{"glyphs":{"0":{"ha":468,"x_min":26,"x_max":419,"o":"m 180 1017 q 419 635 361 1055 q 232 -12 419 77 l 224 -12 q 26 418 57 -12 l 26 467 q 180 1017 1 966 m 82 587 l 82 513 q 186 62 82 164 l 205 62 q 364 568 340 62 q 261 935 364 884 l 224 954 q 82 587 107 928 z "},"1":{"ha":306,"x_min":43,"x_max":257,"o":"m 69 1088 l 98 1088 l 136 1050 l 118 993 l 118 937 q 231 140 118 825 l 257 113 l 257 103 q 201 0 257 24 q 144 28 168 0 l 155 83 q 43 1068 155 231 l 69 1088 z "},"2":{"ha":441,"x_min":24,"x_max":399,"o":"m 193 1065 q 268 848 268 1042 q 155 90 221 355 q 361 221 254 102 l 371 221 l 399 193 q 146 -4 399 81 l 71 16 l 71 24 q 174 953 258 932 q 109 690 119 953 l 81 671 q 24 728 56 671 q 101 967 52 872 q 193 1065 151 1063 z "},"3":{"ha":481,"x_min":37,"x_max":431,"o":"m 243 981 q 290 916 290 966 q 225 615 290 859 l 271 615 q 431 446 431 615 q 121 16 431 232 q 75 62 75 21 l 65 62 q 103 109 83 106 l 131 100 q 366 465 366 275 q 300 550 366 500 q 131 400 179 550 l 103 371 l 83 371 q 46 418 65 376 q 215 831 215 707 l 215 868 l 205 878 l 205 888 q 121 718 139 888 l 131 708 q 75 653 131 681 q 37 690 46 660 q 243 981 107 981 z "},"4":{"ha":403,"x_min":37,"x_max":309,"o":"m 281 1121 q 309 1074 302 1121 l 290 886 l 290 465 l 300 465 q 281 353 375 446 l 281 249 l 271 98 l 300 53 q 262 -4 281 -4 l 243 -4 q 205 53 205 16 l 218 338 l 83 323 l 46 353 q 37 971 56 921 q 83 1018 53 1018 q 131 971 109 1018 l 113 916 l 121 428 l 150 399 l 196 399 l 225 428 q 281 1121 225 1121 z "},"5":{"ha":429,"x_min":42,"x_max":468,"o":"m 449 1104 l 468 1084 l 468 1075 q 139 905 418 994 q 93 597 93 815 l 102 513 l 111 513 l 214 530 l 224 530 q 401 306 374 530 l 401 297 q 192 33 290 69 q 45 100 93 -3 l 45 118 l 56 129 l 56 138 q 131 68 74 138 q 336 306 262 97 l 336 325 q 224 467 319 467 q 74 410 191 467 q 42 667 43 410 q 82 925 41 925 q 157 991 82 991 q 449 1104 231 991 z "},"6":{"ha":429,"x_min":46,"x_max":393,"o":"m 111 1054 l 131 1054 q 158 1006 151 1054 q 103 829 103 926 l 103 660 q 131 293 103 505 l 149 293 q 346 593 176 593 q 393 518 393 570 l 393 387 q 253 4 393 85 l 205 -16 q 46 668 46 -16 l 46 734 q 111 1054 46 1054 m 205 267 l 215 218 l 205 154 q 233 106 212 106 l 261 106 q 336 379 318 106 l 336 454 q 309 510 336 503 l 298 510 q 205 267 235 510 z "},"7":{"ha":503,"x_min":16,"x_max":446,"o":"m 390 897 l 418 897 l 446 869 l 446 860 q 390 335 408 786 l 400 335 l 390 326 l 390 307 l 400 279 l 390 232 l 390 102 l 428 64 q 353 -11 410 -11 q 306 35 328 -11 q 353 785 330 210 l 343 785 l 175 757 l 146 766 l 71 757 q 16 794 16 777 l 16 814 l 53 851 q 155 832 90 832 l 175 832 q 390 897 302 832 z "},"8":{"ha":421,"x_min":46,"x_max":393,"o":"m 355 1072 q 393 1017 393 1063 l 393 968 q 243 472 243 530 q 346 218 318 338 q 168 4 302 4 q 93 117 93 4 l 168 463 q 46 810 81 619 q 318 1043 46 958 l 328 1054 l 355 1072 m 121 800 l 121 791 q 187 575 121 644 l 205 575 l 300 893 l 300 960 l 290 960 q 121 800 121 918 m 158 97 l 178 79 q 271 200 260 79 l 271 237 q 215 379 271 304 q 158 97 171 346 z "},"9":{"ha":484,"x_min":22,"x_max":454,"o":"m 407 999 l 427 999 q 454 961 454 999 q 407 530 407 847 l 416 530 l 407 521 l 407 146 l 435 33 l 397 -4 q 332 53 359 -4 l 342 118 l 342 146 l 351 446 l 342 503 l 351 615 l 351 633 l 332 633 q 154 530 253 530 q 22 690 22 530 q 314 981 117 981 l 359 971 l 407 999 m 97 643 q 164 596 126 596 q 351 848 282 596 l 351 868 q 294 896 342 896 l 239 896 q 97 728 154 865 l 97 643 z "}," ":{"ha":711,"x_min":0,"x_max":0,"o":""},"!":{"ha":355,"x_min":102,"x_max":222,"o":"m 129 1293 l 195 1255 l 195 397 l 184 385 l 167 385 q 129 758 129 411 l 129 1293 m 157 149 q 222 86 216 123 l 222 50 q 176 0 204 0 q 102 74 119 0 q 157 149 102 111 z "},"\"":{"ha":454,"x_min":89,"x_max":343,"o":"m 118 1156 q 182 1118 168 1156 q 136 875 155 875 l 118 875 q 89 1071 89 875 l 89 1100 q 118 1156 94 1156 m 306 1100 q 343 1071 343 1086 q 286 818 294 971 l 277 808 l 268 808 q 231 921 231 808 q 306 1100 249 1100 z "},"#":{"ha":893,"x_min":32,"x_max":810,"o":"m 567 966 l 604 939 l 595 854 l 614 694 l 726 704 l 764 676 l 764 639 l 614 619 l 614 534 l 623 376 l 652 376 q 772 395 730 376 l 810 367 l 623 301 l 614 227 l 623 151 q 585 85 610 85 l 567 85 l 557 94 l 547 122 l 539 122 l 557 282 l 539 301 l 472 292 l 427 292 l 427 235 q 397 179 427 186 l 370 179 q 342 292 351 179 l 277 282 l 164 282 q 89 329 118 282 q 135 376 89 354 q 342 347 205 347 l 359 422 l 359 545 l 342 564 q 69 534 279 545 q 32 591 32 545 l 69 619 l 164 610 l 248 610 q 351 667 351 610 l 359 722 l 342 864 q 370 901 355 901 l 389 901 q 407 872 407 901 l 416 647 l 454 647 q 547 685 547 660 l 547 704 l 529 947 l 567 966 m 416 554 l 416 507 q 444 357 416 357 l 539 357 l 557 376 l 557 395 l 547 602 l 539 602 q 416 554 416 587 z "},"$":{"ha":611,"x_min":82,"x_max":543,"o":"m 157 1231 q 204 1203 204 1218 l 204 1165 q 261 1031 195 1031 q 524 787 524 968 l 514 758 l 486 758 q 289 975 486 888 l 252 975 l 243 965 l 243 956 q 382 628 243 718 q 543 318 543 463 q 401 178 543 243 l 355 168 l 355 113 q 382 46 364 49 q 345 0 366 4 l 336 0 q 281 168 293 0 q 82 431 82 268 q 139 600 106 600 l 149 600 l 157 571 q 139 468 139 534 l 139 393 q 261 262 178 262 l 261 271 q 149 787 231 787 l 82 890 l 82 918 q 168 1021 82 965 l 129 1211 l 157 1231 m 149 918 l 149 900 l 195 843 l 205 843 l 186 937 l 168 937 l 149 918 m 289 618 l 289 600 q 345 243 319 243 l 364 243 q 468 338 468 265 l 468 366 q 307 618 468 479 l 289 618 z "},"%":{"ha":510,"x_min":93,"x_max":410,"o":"m 389 1214 l 410 1214 l 410 1189 q 195 150 339 652 q 175 33 175 150 l 143 7 l 93 21 l 93 72 q 338 1084 241 450 q 389 1214 338 1175 m 345 138 l 372 138 l 410 100 q 364 54 410 75 q 307 100 325 66 l 345 138 m 131 1157 l 160 1157 l 197 1120 q 150 1072 197 1095 q 93 1120 111 1086 l 131 1157 z "},"&":{"ha":720,"x_min":87,"x_max":677,"o":"m 283 1131 q 396 962 396 1089 q 321 493 396 762 q 378 268 321 441 l 406 268 q 471 513 465 268 q 387 568 471 546 l 387 606 l 463 625 l 546 616 l 603 616 l 668 625 l 677 616 l 677 579 l 528 542 l 528 437 q 265 167 528 167 l 171 167 q 87 222 87 167 q 256 504 256 392 l 180 972 l 180 1018 q 283 1131 205 1131 m 245 962 q 302 654 268 654 q 340 879 323 681 q 293 1047 340 1011 q 245 962 258 1047 m 218 250 l 218 241 l 302 241 l 302 317 l 293 363 l 275 363 q 218 250 250 363 z "},"'":{"ha":243,"x_min":50,"x_max":167,"o":"m 167 1051 q 79 798 98 818 l 72 798 l 50 827 q 72 901 50 865 q 131 1107 106 1107 q 167 1051 167 1089 z "},"(":{"ha":427,"x_min":31,"x_max":406,"o":"m 200 1307 l 200 1299 q 117 1131 200 1272 l 87 905 l 87 782 q 285 81 87 452 l 293 69 l 322 52 l 397 98 l 406 89 l 406 81 q 330 -5 393 -5 q 31 782 136 -5 l 31 914 q 180 1307 31 1206 l 200 1307 z "},")":{"ha":386,"x_min":50,"x_max":358,"o":"m 87 1235 q 153 1095 142 1235 q 358 364 358 652 q 171 7 286 7 l 143 17 l 143 45 q 293 382 293 155 l 293 419 q 78 1132 293 669 l 50 1169 q 87 1235 50 1210 z "},"*":{"ha":607,"x_min":46,"x_max":562,"o":"m 375 989 l 421 989 q 458 942 441 983 q 421 772 421 832 l 421 754 q 533 726 421 734 l 562 689 l 562 669 q 412 614 562 648 l 403 567 l 403 416 l 431 294 q 375 248 425 248 l 366 248 q 328 294 346 253 l 338 359 q 300 501 309 407 l 290 510 l 281 510 q 93 314 265 510 q 46 359 46 322 l 196 717 l 196 745 l 150 829 q 187 904 151 878 l 196 895 q 243 829 218 895 l 253 829 q 375 989 288 829 m 328 802 l 346 782 l 355 782 l 355 819 l 346 819 l 328 802 m 290 707 l 290 697 q 318 642 296 642 l 338 642 l 346 689 l 318 707 l 290 707 m 196 547 q 253 604 253 547 l 253 623 l 233 623 q 196 547 210 623 z "},"+":{"ha":700,"x_min":56,"x_max":571,"o":"m 309 783 l 346 765 l 338 653 l 338 578 q 366 558 338 558 l 553 578 l 571 549 l 571 541 q 355 493 571 514 l 355 484 l 393 221 q 366 174 380 174 l 346 174 q 288 356 281 218 q 271 493 296 493 l 75 473 l 56 503 l 56 530 q 168 549 56 549 l 225 549 l 271 558 l 271 653 l 262 708 q 309 783 275 758 z "},",":{"ha":355,"x_min":94,"x_max":235,"o":"m 179 269 q 235 224 196 269 q 122 -282 183 -282 l 114 -282 q 94 -256 94 -282 q 160 131 160 14 l 151 232 l 179 261 l 179 269 z "},"-":{"ha":561,"x_min":68,"x_max":510,"o":"m 472 608 l 481 608 l 510 581 l 510 553 q 106 488 258 525 l 68 515 l 68 562 l 472 608 z "},".":{"ha":355,"x_min":123,"x_max":232,"o":"m 164 118 l 193 118 l 232 65 q 182 0 232 31 q 123 65 143 18 l 164 118 z "},"/":{"ha":484,"x_min":82,"x_max":401,"o":"m 382 1007 l 401 1007 l 401 989 q 176 107 307 469 q 157 22 157 107 l 131 4 l 82 14 l 82 52 q 336 914 218 323 q 382 1007 336 979 z "},":":{"ha":355,"x_min":93,"x_max":225,"o":"m 160 707 q 205 643 205 694 l 205 632 l 179 606 l 168 606 q 93 652 123 606 q 160 707 96 681 m 179 427 q 225 399 225 415 l 225 370 l 179 332 q 131 361 131 345 q 179 427 131 414 z "},";":{"ha":355,"x_min":33,"x_max":240,"o":"m 146 554 q 203 479 203 533 l 174 450 q 98 505 98 479 q 146 554 98 530 m 193 225 l 240 197 l 231 160 l 240 0 q 71 -432 205 -432 l 71 -440 q 33 -412 33 -427 q 183 66 183 -310 l 165 187 l 193 216 l 193 225 z "},"<":{"ha":557,"x_min":81,"x_max":473,"o":"m 436 708 q 473 671 473 700 q 231 465 473 654 l 221 418 l 473 250 l 473 221 l 446 193 q 221 334 419 193 q 98 363 195 353 l 81 400 q 174 475 81 446 q 436 708 228 555 z "},"=":{"ha":747,"x_min":127,"x_max":583,"o":"m 530 444 l 541 444 l 568 416 l 568 389 q 165 322 317 359 l 127 351 l 127 397 l 530 444 m 546 290 l 555 290 l 583 261 l 583 233 q 180 168 332 205 l 143 196 l 143 243 l 546 290 z "},">":{"ha":747,"x_min":53,"x_max":465,"o":"m 90 843 q 249 704 118 843 q 465 525 465 610 q 249 310 465 479 q 183 262 249 289 l 118 281 l 118 318 q 240 385 118 350 q 380 543 380 486 l 53 768 l 53 806 q 90 835 53 831 l 90 843 z "},"?":{"ha":453,"x_min":121,"x_max":403,"o":"m 298 1206 l 318 1206 q 403 1064 403 1206 q 261 689 403 990 l 233 586 l 233 493 q 261 351 239 363 q 215 294 249 313 l 205 294 q 168 343 186 300 l 178 399 q 121 652 178 585 q 233 764 121 689 q 328 999 328 942 l 328 1064 l 298 1093 q 233 943 272 1093 l 205 924 l 168 951 q 298 1206 236 1206 m 233 144 l 261 144 q 298 89 298 126 q 243 52 298 52 l 243 43 q 186 89 204 56 l 186 98 l 233 144 z "},"@":{"ha":720,"x_min":31,"x_max":707,"o":"m 450 970 q 707 554 606 970 q 385 -85 707 3 l 370 -85 q 31 342 17 -104 l 31 387 q 354 951 31 875 q 450 970 450 951 m 127 511 q 306 -7 56 7 l 338 -7 q 528 129 457 -7 q 490 113 511 119 l 453 113 q 415 182 415 113 q 162 355 143 0 q 329 768 180 710 q 374 786 329 787 l 401 786 l 431 768 l 425 684 q 509 187 450 187 l 557 201 q 611 493 596 315 q 370 871 611 804 q 127 511 168 846 m 370 262 l 376 549 q 269 567 353 796 q 370 262 165 125 z "},"A":{"ha":534,"x_min":14,"x_max":501,"o":"m 367 1153 q 472 220 468 1150 l 501 -81 l 454 -89 l 435 -89 l 407 -61 l 407 286 l 397 427 l 389 427 q 143 332 164 399 q 89 -14 107 -9 l 52 -14 l 14 24 q 164 811 60 380 q 367 1153 236 1166 m 174 492 l 220 456 q 407 519 407 497 l 407 689 l 416 811 l 393 905 q 338 1018 367 1018 q 174 492 278 1018 z "},"B":{"ha":498,"x_min":8,"x_max":504,"o":"m 142 1226 q 189 1152 189 1197 l 197 1152 q 357 1217 283 1206 q 460 1095 437 1217 q 317 791 460 1018 l 317 781 l 400 791 q 504 642 469 791 q 309 210 504 449 q 65 -71 189 53 l 37 -71 q 8 -16 8 -62 q 62 567 65 140 l 35 593 l 35 604 l 62 679 q 114 1226 66 1226 l 142 1226 m 142 1002 l 129 762 l 129 717 l 155 717 q 385 1095 380 943 q 347 1141 368 1137 q 142 1002 253 1141 m 129 547 l 129 518 l 121 125 l 131 125 q 410 492 250 125 l 429 567 q 354 717 429 717 q 129 547 129 635 z "},"C":{"ha":496,"x_min":25,"x_max":500,"o":"m 443 1181 q 500 1143 500 1161 l 500 1124 q 415 1105 500 1105 q 197 833 256 1022 q 90 358 90 621 l 90 349 q 221 68 109 68 l 250 58 l 306 58 q 428 283 359 82 l 456 283 l 456 273 q 288 -17 407 -17 q 33 218 129 -17 l 25 311 q 245 1031 25 717 q 443 1181 368 1181 z "},"D":{"ha":496,"x_min":5,"x_max":493,"o":"m 175 1200 q 306 1105 243 1105 q 493 796 493 1003 q 107 43 519 482 q 52 -50 93 -50 q 14 -4 14 -50 l 5 -4 l 61 231 q 100 975 81 518 l 100 1078 q 175 1200 100 1200 m 118 165 l 126 165 q 410 608 289 262 l 429 768 l 429 825 q 222 1059 393 1059 q 155 928 155 1059 l 118 165 z "},"E":{"ha":498,"x_min":29,"x_max":447,"o":"m 318 1181 q 366 1152 366 1168 l 366 1124 q 149 1054 366 1095 l 142 726 l 142 679 q 168 660 142 660 l 347 679 l 355 669 l 355 660 q 142 585 355 623 l 104 172 l 104 154 q 179 52 104 52 l 431 154 l 447 97 q 150 -24 460 83 q 29 164 58 -24 l 75 567 l 47 614 q 85 726 85 685 l 75 964 q 56 1057 75 1057 q 318 1181 56 1132 z "},"F":{"ha":372,"x_min":5,"x_max":493,"o":"m 465 1255 l 493 1218 l 493 1210 q 315 1162 493 1185 q 183 993 183 1121 l 174 787 l 183 760 l 371 806 l 390 787 l 390 768 q 249 722 390 747 q 193 693 249 704 q 118 142 168 693 l 109 75 l 109 -20 l 53 -57 l 5 -20 q 109 637 109 335 q 43 685 43 659 q 109 742 43 707 l 118 779 l 118 956 l 127 1105 l 98 1154 q 165 1218 98 1181 l 174 1210 l 268 1210 q 465 1255 414 1255 z "},"G":{"ha":532,"x_min":24,"x_max":505,"o":"m 458 1178 q 505 1150 505 1166 l 505 1121 q 164 856 220 1121 q 89 489 89 616 l 89 301 q 249 31 126 31 q 361 469 361 218 l 361 518 q 249 668 361 627 l 239 694 q 427 770 239 761 q 473 724 452 770 l 407 648 l 427 526 q 239 -45 380 -45 q 24 319 24 54 l 24 395 q 215 1075 24 794 q 458 1178 329 1178 z "},"H":{"ha":522,"x_min":-7,"x_max":510,"o":"m 172 1152 l 180 1152 l 218 1114 l 218 1095 q 123 562 168 1095 l 153 553 q 378 590 378 570 q 435 1095 399 1095 l 463 1105 q 510 1076 510 1093 q 433 478 454 979 q 368 -37 421 -37 l 358 -37 l 330 -9 l 358 262 l 349 262 l 358 271 l 358 366 l 368 505 l 358 515 q 106 440 106 497 l 68 18 l 68 -37 l 31 -66 q 3 -29 3 -66 l -7 -29 l 49 468 l 31 525 q 97 964 75 525 q 172 1152 139 1152 z "},"I":{"ha":228,"x_min":32,"x_max":212,"o":"m 178 1095 q 212 987 231 1125 q 155 615 193 850 q 117 102 117 380 l 135 45 l 135 26 l 89 -11 q 32 56 49 -11 q 91 581 52 78 q 158 1084 131 1084 l 178 1084 l 178 1095 z "},"J":{"ha":401,"x_min":20,"x_max":370,"o":"m 351 1203 l 370 1203 l 359 1100 l 357 608 q 197 18 335 18 q 114 0 197 0 q 20 131 20 17 l 29 168 l 57 168 q 114 65 79 65 l 170 65 q 301 637 281 65 l 301 646 l 304 1100 q 351 1203 322 1203 z "},"K":{"ha":472,"x_min":21,"x_max":509,"o":"m 125 1143 q 163 1105 155 1133 l 143 965 l 143 478 l 171 478 q 396 1021 396 872 q 471 1059 436 1059 l 509 1011 q 208 411 443 921 l 208 383 q 425 36 289 36 l 425 -1 l 378 -9 q 153 318 265 -9 l 143 318 l 96 -85 l 87 -94 l 50 -94 q 21 -57 26 -94 q 87 599 54 -57 l 78 1116 l 125 1143 z "},"L":{"ha":482,"x_min":47,"x_max":441,"o":"m 165 1174 l 203 1145 l 174 1014 l 179 736 l 179 596 q 142 98 179 375 l 142 90 l 160 71 l 329 71 l 422 98 l 441 71 q 93 -14 441 -14 q 56 24 56 -14 l 47 24 q 122 596 122 218 l 118 1136 q 165 1174 127 1174 z "},"M":{"ha":667,"x_min":32,"x_max":632,"o":"m 510 1175 q 567 1108 567 1153 l 632 134 l 632 68 q 604 12 632 20 l 585 12 l 557 31 l 567 171 l 567 200 q 510 921 567 606 l 501 921 q 379 302 444 745 l 322 275 q 257 518 271 275 q 126 856 154 831 l 117 856 l 126 715 l 126 546 q 69 -45 126 -45 l 41 -45 l 32 3 l 69 387 l 60 387 l 69 396 l 69 518 q 41 1025 69 965 q 79 1071 60 1068 l 107 1071 q 220 790 154 1068 q 322 471 267 701 l 351 471 l 472 1043 l 472 1071 l 464 1128 q 510 1165 464 1165 l 510 1175 z "},"N":{"ha":644,"x_min":36,"x_max":599,"o":"m 510 1193 q 555 1100 555 1193 l 538 1043 l 543 890 l 590 168 l 581 131 l 599 18 q 561 -29 581 -25 l 533 -29 q 421 253 498 -29 q 149 908 192 889 q 111 590 123 908 l 121 458 l 111 374 l 131 83 l 103 46 l 93 46 q 36 74 43 46 l 56 346 l 46 355 l 56 403 l 56 796 q 93 965 56 908 l 93 983 l 56 1031 l 56 1059 q 111 1096 74 1096 q 271 796 153 1096 q 440 318 328 686 l 515 168 l 524 168 l 524 271 l 472 978 l 481 1108 l 472 1156 q 510 1193 479 1183 z "},"O":{"ha":549,"x_min":29,"x_max":517,"o":"m 254 1050 l 264 1050 q 339 965 315 1050 q 517 478 517 827 q 329 8 517 126 l 235 0 q 29 309 81 0 l 29 421 q 170 946 94 946 q 254 1050 170 975 m 77 403 l 85 393 l 85 383 l 77 355 q 244 56 104 56 q 460 496 460 56 l 460 533 q 264 937 411 937 q 77 403 140 937 z "},"P":{"ha":425,"x_min":40,"x_max":481,"o":"m 123 1154 l 161 1126 l 283 1135 q 481 966 481 1116 q 143 517 481 791 q 123 347 123 468 l 123 132 l 134 77 q 86 -8 121 18 l 58 20 l 49 20 l 78 817 l 78 939 q 40 1014 78 981 q 68 1117 68 1063 l 123 1154 m 134 939 l 134 602 l 161 602 q 415 939 386 781 q 273 1079 415 1079 q 134 939 134 1079 z "},"Q":{"ha":625,"x_min":26,"x_max":599,"o":"m 336 1162 l 355 1162 l 382 1133 q 326 1096 382 1118 l 326 1088 q 532 628 532 908 l 532 608 q 486 262 532 447 q 599 113 522 170 l 561 65 q 457 168 536 65 q 307 18 349 21 l 224 0 q 36 253 82 0 l 26 383 l 26 403 q 243 1133 26 844 l 336 1162 m 74 300 q 252 56 106 56 q 411 253 411 140 q 232 571 411 298 l 232 600 l 252 618 l 269 618 q 439 355 290 618 l 449 355 q 486 646 476 406 q 336 1013 419 1013 l 326 1013 q 298 975 304 1013 l 281 975 l 269 1021 l 281 1068 l 269 1068 q 82 505 174 1068 l 74 300 z "},"R":{"ha":469,"x_min":14,"x_max":473,"o":"m 323 1063 l 361 1063 q 444 930 444 1063 q 182 538 366 661 l 182 509 q 436 -54 354 -3 l 473 -62 l 473 -100 l 427 -138 q 239 208 368 -138 l 136 443 l 107 443 l 107 433 l 118 275 q 69 3 118 3 l 43 3 q 14 50 21 3 l 43 143 l 61 818 q 14 856 14 818 q 52 940 52 913 l 52 1015 l 81 1043 l 89 1043 l 155 1025 l 323 1063 m 126 921 l 118 668 l 118 603 l 136 583 l 155 583 q 370 921 370 772 l 370 968 l 332 1006 l 323 1006 q 126 921 218 1006 z "},"S":{"ha":549,"x_min":45,"x_max":510,"o":"m 397 1196 q 510 1131 431 1196 l 510 1093 l 492 1093 l 492 1083 q 370 1131 416 1131 l 322 1131 q 457 200 131 1023 l 467 154 q 252 -157 467 -33 l 184 -175 q 45 -33 45 -135 q 72 12 56 12 l 92 12 q 157 -109 122 -109 q 401 154 372 -109 l 401 200 q 332 1187 -3 1129 l 397 1196 z "},"T":{"ha":485,"x_min":-4,"x_max":624,"o":"m 596 1093 l 624 1083 l 624 1055 q 586 1028 624 1028 l 586 1018 l 549 1028 q 323 981 336 1000 l 334 700 l 336 281 l 345 225 l 336 178 l 336 75 q 289 0 336 31 q 243 37 245 18 l 243 65 q 281 150 281 115 l 281 187 l 289 355 l 281 403 l 286 633 q 240 981 265 981 l 193 981 l 43 971 q -4 1000 -4 983 l -4 1028 l 24 1055 l 136 1038 q 286 1075 249 1046 l 343 1055 l 596 1093 z "},"U":{"ha":501,"x_min":33,"x_max":473,"o":"m 98 1104 l 126 1104 l 144 1084 l 144 1076 q 90 586 90 711 l 90 530 l 98 521 l 90 511 l 90 465 q 174 71 121 71 l 183 71 q 390 596 318 71 l 399 708 l 370 1047 l 399 1084 q 473 972 473 1084 l 465 718 q 174 -14 370 -14 q 33 653 33 -14 q 98 1104 56 1104 z "},"V":{"ha":505,"x_min":31,"x_max":518,"o":"m 461 1168 q 518 1131 518 1149 q 489 1065 518 1099 q 322 25 472 530 l 277 -3 q 220 138 232 -3 q 31 1055 154 309 l 68 1093 q 229 250 123 1093 q 294 129 279 129 q 407 747 407 525 l 407 831 l 414 1140 l 461 1168 z "},"W":{"ha":737,"x_min":49,"x_max":696,"o":"m 106 1152 q 143 1114 138 1141 q 106 646 106 800 l 106 355 l 115 225 l 106 196 q 134 93 113 93 q 349 721 228 231 l 349 787 l 330 815 q 386 880 354 880 q 453 815 440 880 l 443 750 q 566 168 484 168 q 631 505 615 168 l 631 665 q 603 1117 631 800 l 640 1182 q 677 1126 677 1173 l 696 543 q 566 65 661 65 q 396 608 454 65 q 273 271 371 593 q 115 -47 167 -43 l 96 -47 q 68 -9 72 -47 l 58 -9 l 49 431 l 49 543 q 97 1152 50 1152 l 106 1152 z "},"X":{"ha":530,"x_min":-16,"x_max":529,"o":"m 492 1153 q 529 1116 522 1143 q 322 496 454 1014 l 322 486 q 501 149 421 277 q 472 111 488 111 l 464 111 q 294 393 443 114 q 144 18 268 371 l 52 -151 l 4 -160 l -16 -132 q 248 468 189 175 l 248 515 l 107 946 l 135 974 l 144 974 q 257 665 175 974 l 267 656 q 285 628 267 628 l 304 628 q 492 1153 418 1090 z "},"Y":{"ha":514,"x_min":36,"x_max":510,"o":"m 435 1152 l 472 1152 l 510 1114 q 421 514 464 1026 q 186 -49 349 -49 l 186 -58 q 36 45 56 -58 l 36 54 l 56 54 l 56 64 l 140 7 q 411 869 351 7 l 403 869 l 271 644 q 140 514 168 514 l 111 514 q 65 644 71 514 l 65 729 q 158 1179 71 1117 l 186 1169 l 186 1141 q 131 672 131 987 q 158 607 140 607 q 435 1152 326 764 z "},"Z":{"ha":625,"x_min":26,"x_max":599,"o":"m 450 1203 l 478 1203 l 505 1175 l 505 1165 q 139 113 530 832 l 139 83 l 176 83 l 543 187 q 599 121 599 187 l 599 113 q 543 75 581 75 l 476 93 l 82 0 q 26 37 56 0 q 421 1118 382 636 l 393 1128 l 121 1034 q 75 1071 79 1053 l 75 1080 q 225 1118 75 1108 q 450 1203 225 1137 z "},"[":{"ha":439,"x_min":22,"x_max":422,"o":"m 131 1068 l 422 1003 l 422 983 q 367 956 412 956 l 160 974 q 97 25 122 974 q 239 -87 119 -87 l 285 -87 q 379 -32 329 -87 l 407 -32 l 407 -40 q 257 -153 407 -132 q 22 5 22 -107 q 75 1021 60 121 q 131 1059 75 1059 l 131 1068 z "},"\\":{"ha":432,"x_min":-1,"x_max":421,"o":"m 36 964 l 65 964 q 140 739 90 964 q 421 64 265 379 q 393 26 407 26 l 374 26 q 131 589 340 26 q -1 935 78 770 l 36 964 z "},"]":{"ha":412,"x_min":14,"x_max":407,"o":"m 52 1100 l 201 1071 l 257 1071 l 359 1080 l 407 1043 q 314 509 314 960 l 292 53 q 367 -125 292 -39 q 300 -172 351 -172 q 47 -107 47 -131 l 47 -79 l 56 -69 l 85 -60 l 85 -50 q 225 -79 161 -79 l 225 16 q 285 987 257 777 q 14 1053 14 1015 l 14 1071 l 52 1100 z "},"^":{"ha":600,"x_min":83,"x_max":553,"o":"m 318 997 l 336 997 q 515 650 375 997 l 553 604 l 553 567 l 515 555 q 421 717 421 555 q 328 885 349 880 l 318 885 q 131 481 261 827 l 93 454 l 83 454 l 83 500 q 318 997 282 997 z "},"_":{"ha":844,"x_min":18,"x_max":817,"o":"m 760 118 q 817 71 799 106 l 817 61 l 798 33 l 685 43 l 675 43 l 300 5 l 104 5 q 18 43 31 5 l 18 71 l 37 90 l 205 71 l 347 71 l 760 118 z "},"`":{"ha":481,"x_min":75,"x_max":431,"o":"m 92 1008 q 431 895 139 1042 l 355 835 l 75 956 l 92 1008 z "},"a":{"ha":475,"x_min":52,"x_max":435,"o":"m 285 739 l 314 739 l 342 720 l 332 581 q 416 82 358 82 l 435 82 l 435 74 q 397 7 435 22 l 359 7 q 294 214 322 7 l 285 214 q 117 -106 231 -106 q 52 93 52 -106 l 52 195 q 210 682 52 627 q 285 739 236 682 m 117 224 l 117 93 q 144 -11 117 -11 q 267 476 205 -11 l 267 486 q 239 618 260 618 l 210 618 q 117 224 117 618 z "},"b":{"ha":461,"x_min":31,"x_max":443,"o":"m 77 1122 l 123 1093 l 114 1010 l 151 542 l 161 542 q 301 654 243 654 l 330 654 q 443 456 443 558 q 218 -12 379 144 l 207 -21 q 170 25 170 -12 l 151 25 q 77 54 82 25 l 77 62 l 94 138 q 31 1075 94 778 q 77 1122 31 1100 m 180 62 l 189 54 q 349 343 277 106 l 368 418 q 282 579 368 579 q 180 62 193 579 z "},"c":{"ha":439,"x_min":12,"x_max":397,"o":"m 248 818 l 275 808 l 275 790 q 87 443 87 664 l 79 358 l 79 237 q 218 50 79 93 q 359 143 330 50 l 387 143 l 397 115 q 248 -17 397 14 q 41 134 96 -17 q 12 275 12 210 l 12 340 q 154 771 12 614 l 248 818 z "},"d":{"ha":441,"x_min":39,"x_max":437,"o":"m 349 1035 q 414 989 401 1035 l 395 922 q 437 -7 418 -29 l 407 -29 q 366 -12 368 -12 l 357 379 l 349 389 l 339 389 q 170 -5 282 -5 l 151 -5 q 39 220 39 -5 q 199 539 39 383 q 330 642 330 570 l 330 772 l 311 989 q 349 1035 329 1031 m 114 257 l 114 164 q 161 69 114 92 l 170 69 q 301 482 225 69 l 293 492 l 256 492 q 114 257 114 406 z "},"e":{"ha":439,"x_min":12,"x_max":397,"o":"m 218 783 q 368 633 368 739 l 368 606 q 180 315 368 396 l 117 315 l 117 296 q 200 61 117 127 l 229 61 q 379 211 282 61 l 387 203 l 397 203 q 210 -14 330 -14 q 31 371 100 -14 q 12 418 16 371 q 79 661 50 447 q 218 783 151 783 m 106 436 q 135 390 114 390 l 192 390 q 304 606 304 443 l 304 615 q 218 708 290 708 q 106 436 106 708 z "},"f":{"ha":355,"x_min":-40,"x_max":522,"o":"m 372 1043 q 522 1006 522 1038 l 522 987 l 513 978 l 485 968 l 485 958 l 475 968 l 363 968 q 184 696 212 968 l 184 518 l 193 518 q 400 583 294 534 l 410 575 l 410 555 q 184 453 400 513 l 193 153 l 193 68 q 155 -17 193 -3 l 147 -17 l 118 21 l 138 115 l 129 415 l 118 443 l 100 443 q -40 481 -16 443 q -3 538 -21 538 l 17 538 l 92 518 l 100 518 q 118 659 121 518 q 372 1043 154 1043 z "},"g":{"ha":472,"x_min":17,"x_max":447,"o":"m 400 755 l 418 755 l 447 728 l 447 681 q 380 371 380 555 l 392 -182 q 260 -604 392 -604 q 212 -623 260 -623 q 100 -519 100 -599 l 100 -510 l 118 -510 q 222 -557 180 -557 q 325 -248 325 -557 l 325 211 l 317 278 l 297 278 q 92 16 227 16 l 81 16 q 17 155 49 20 q 193 653 17 437 l 335 708 q 400 755 335 755 m 92 268 l 92 118 q 129 90 92 90 q 317 541 205 90 l 317 624 q 100 343 157 624 l 92 268 z "},"h":{"ha":488,"x_min":5,"x_max":456,"o":"m 62 1117 l 90 1117 l 118 1089 l 118 1079 l 100 1004 l 100 939 l 118 469 l 127 441 l 146 441 q 334 676 208 676 q 437 160 424 676 l 456 57 l 428 9 q 371 104 379 9 l 371 170 q 296 591 371 591 q 155 142 180 547 q 175 9 161 9 q 138 -36 155 -32 l 109 -36 q 62 39 62 -9 l 81 85 q 5 1051 41 1051 q 62 1117 21 1093 z "},"i":{"ha":193,"x_min":36,"x_max":178,"o":"m 111 875 q 178 838 147 875 q 111 772 178 810 q 65 818 86 772 q 111 875 83 869 m 111 631 l 140 593 q 103 387 103 555 q 158 41 107 210 l 158 22 l 131 -7 l 103 -7 q 36 435 58 -7 q 93 631 36 631 l 111 631 z "},"j":{"ha":283,"x_min":-110,"x_max":208,"o":"m 68 806 q 134 760 129 782 l 134 730 l 106 704 l 58 704 q 31 760 31 713 l 68 806 m 125 656 l 153 629 l 143 505 q 208 -158 208 1 l 208 -207 q -7 -694 208 -694 q -110 -545 -110 -640 l -110 -488 l -92 -488 l -25 -619 l -17 -628 l 3 -628 q 153 -140 153 -628 q 58 610 125 321 q 125 656 72 656 z "},"k":{"ha":496,"x_min":7,"x_max":476,"o":"m 54 1010 q 102 972 96 993 l 82 869 l 102 476 l 110 476 q 279 729 176 526 l 289 739 l 307 739 l 345 701 l 345 682 q 129 354 129 393 l 129 345 q 410 45 129 231 l 419 45 l 476 64 l 476 26 q 419 -21 458 -7 q 129 204 335 -3 l 119 195 l 119 139 q 147 45 123 69 q 110 -11 129 -11 l 92 -11 l 45 35 l 54 102 l 54 176 q 35 335 54 335 l 45 372 l 17 954 l 7 954 q 54 1010 7 971 z "},"l":{"ha":196,"x_min":47,"x_max":142,"o":"m 102 1095 l 134 1103 l 126 932 l 123 779 l 131 340 l 122 153 l 142 40 q 93 -17 142 22 l 47 21 q 66 218 66 69 l 66 236 l 81 1064 q 102 1095 97 1095 z "},"m":{"ha":614,"x_min":45,"x_max":581,"o":"m 457 796 q 581 225 545 796 l 581 37 l 551 8 q 494 46 511 8 l 514 243 q 449 675 493 663 l 431 675 q 345 75 345 441 l 318 56 l 281 56 q 252 103 264 56 q 289 431 289 168 q 243 608 277 608 l 232 608 q 157 187 157 608 l 157 113 l 168 56 q 93 0 147 0 l 56 46 l 74 168 l 74 215 l 45 637 q 93 703 45 690 q 131 646 131 693 l 111 590 l 111 571 l 119 571 q 232 713 193 713 q 336 608 282 713 q 401 768 355 608 l 457 796 z "},"n":{"ha":432,"x_min":25,"x_max":400,"o":"m 250 823 l 258 823 q 390 403 370 823 l 390 233 l 400 131 l 390 93 l 400 8 l 371 -9 q 325 56 325 3 l 325 366 q 258 721 325 693 l 250 721 q 127 309 150 669 l 127 46 l 138 8 q 100 -47 118 -47 q 43 -9 53 -47 l 53 243 l 25 665 l 25 721 l 62 758 q 100 730 100 745 l 90 590 l 100 581 l 118 581 q 250 823 118 718 z "},"o":{"ha":375,"x_min":32,"x_max":351,"o":"m 229 732 q 351 481 317 732 l 342 469 l 342 414 q 192 -18 318 -18 l 182 -26 l 172 -26 q 32 330 32 5 q 229 732 32 732 m 89 376 q 172 49 110 49 l 182 49 q 285 386 261 49 l 285 518 q 201 657 285 644 q 89 376 89 624 z "},"p":{"ha":389,"x_min":20,"x_max":319,"o":"m 199 631 q 319 414 296 631 q 114 31 319 264 l 114 20 q 143 -468 114 -193 l 114 -486 l 106 -486 q 49 -382 49 -486 l 39 -298 l 49 -289 l 49 -281 l 20 20 l 31 77 l 31 273 l 39 386 l 31 386 q 199 631 79 631 m 106 293 l 106 123 l 114 123 q 256 443 256 258 q 189 555 218 555 l 180 555 q 106 293 106 494 z "},"q":{"ha":465,"x_min":36,"x_max":431,"o":"m 271 734 q 383 679 357 734 l 374 642 q 431 -221 421 205 q 374 -484 431 -454 q 336 -436 336 -484 l 328 -436 q 366 -98 366 -389 q 336 351 366 157 l 318 351 q 149 41 245 41 q 36 248 36 41 l 36 304 q 224 717 36 547 q 271 734 271 717 m 103 277 l 103 201 q 140 117 103 129 l 158 117 q 298 492 231 117 l 309 519 q 271 660 298 660 q 103 277 131 660 z "},"r":{"ha":393,"x_min":21,"x_max":368,"o":"m 302 743 l 330 743 l 368 705 l 368 686 l 349 668 l 302 677 q 153 302 153 479 l 153 153 l 161 49 q 115 11 161 11 l 115 3 q 78 31 78 17 l 78 134 q 21 583 43 583 q 58 640 40 640 l 68 640 q 106 574 106 625 l 106 471 l 115 471 q 302 743 208 673 z "},"s":{"ha":361,"x_min":-41,"x_max":334,"o":"m 323 781 l 334 770 l 334 751 q 155 489 155 625 l 155 469 q 315 189 155 370 l 323 151 q 61 -26 256 -26 q -41 49 -41 -26 l 71 39 l 109 39 q 240 151 240 71 l 240 161 q 109 376 240 184 l 81 481 q 306 781 81 653 l 323 781 z "},"t":{"ha":267,"x_min":-35,"x_max":277,"o":"m 114 1118 l 135 1120 l 139 1053 l 139 1043 q 167 828 139 828 l 258 859 q 277 818 268 839 q 269 799 260 803 l 157 743 l 176 256 l 176 218 q 157 -3 174 81 l 113 0 l 110 146 l 110 378 l 110 481 q 82 724 110 724 l -4 717 l -35 729 l -32 751 l -16 755 l 3 755 q 92 818 92 768 l 72 1099 l 82 1107 l 114 1118 z "},"u":{"ha":393,"x_min":24,"x_max":371,"o":"m 353 693 l 371 673 l 353 599 l 353 570 l 361 494 q 203 -11 323 -11 q 24 468 79 -11 l 24 524 q 61 607 24 595 l 81 607 l 109 589 l 98 524 l 98 431 q 183 64 98 244 l 203 64 q 286 419 268 90 l 286 514 q 268 618 286 581 q 353 693 268 677 z "},"v":{"ha":368,"x_min":41,"x_max":379,"o":"m 342 722 q 379 675 359 718 q 210 66 350 618 q 135 -20 174 -8 q 79 243 79 -20 l 41 637 q 97 693 54 693 l 125 656 l 117 581 q 163 142 121 142 q 285 618 285 514 l 275 693 q 342 722 310 722 z "},"w":{"ha":648,"x_min":26,"x_max":599,"o":"m 570 787 q 599 703 599 751 l 599 543 q 457 0 575 0 q 336 375 372 0 l 318 375 q 176 28 231 28 l 157 28 l 157 18 q 26 393 56 18 l 26 421 q 82 675 36 675 l 93 675 l 119 646 q 93 468 93 562 q 157 113 111 113 q 298 600 224 113 l 289 713 l 345 730 l 382 703 l 382 656 q 449 93 382 236 l 457 93 q 543 533 517 93 l 514 721 l 514 730 q 570 787 514 787 z "},"x":{"ha":449,"x_min":-3,"x_max":447,"o":"m 401 907 l 447 869 q 260 345 286 554 l 382 35 q 354 -11 370 -11 l 307 -11 q 241 232 307 72 l 222 232 q 45 -228 81 -197 l 35 -236 q -3 -199 -3 -228 q 184 335 47 -138 q 64 672 92 643 l 64 701 l 92 729 l 119 729 q 195 485 147 729 l 204 457 l 232 457 q 401 907 354 907 z "},"y":{"ha":465,"x_min":29,"x_max":422,"o":"m 355 693 l 385 693 l 422 656 q 404 553 404 618 l 404 486 l 393 243 l 404 233 l 404 224 l 393 131 q 329 -554 393 -554 l 292 -554 l 254 -507 q 310 -329 310 -464 q 338 393 338 -72 l 329 393 q 197 83 315 389 q 113 36 157 46 q 29 318 29 36 q 113 590 29 542 l 142 581 l 142 543 q 93 366 93 485 l 93 309 q 131 140 93 140 l 142 140 q 318 636 318 440 l 355 693 z "},"z":{"ha":522,"x_min":25,"x_max":484,"o":"m 306 864 l 315 864 q 353 781 353 851 l 353 761 q 138 94 353 599 l 138 77 l 155 57 l 183 57 q 428 151 218 57 l 456 151 l 484 123 l 484 106 l 437 57 l 428 68 l 400 68 l 165 -26 q 33 39 33 -4 q 278 686 278 543 l 278 781 l 258 781 q 81 686 232 781 l 53 686 l 25 724 q 165 807 25 746 q 306 864 229 861 z "},"{":{"ha":428,"x_min":21,"x_max":425,"o":"m 406 1187 l 406 1168 q 134 868 164 990 q 96 755 96 810 l 96 692 q 218 579 96 597 l 340 606 q 368 550 368 597 l 368 542 l 228 447 q 153 325 153 363 l 153 317 l 163 317 l 302 354 l 313 354 l 340 325 l 340 297 q 218 -58 218 160 q 283 -87 253 -87 q 387 -12 306 -87 l 396 -12 l 425 -32 q 256 -153 361 -125 q 153 -21 171 -153 l 208 222 l 200 231 l 191 231 l 68 222 l 31 250 l 31 297 q 191 513 191 488 q 31 643 93 513 l 21 681 q 283 1141 21 918 q 406 1187 357 1187 z "},"|":{"ha":332,"x_min":47,"x_max":142,"o":"m 90 1251 l 122 1258 l 125 1028 l 122 873 l 131 340 l 122 153 l 142 40 q 93 -17 142 22 l 47 21 q 66 218 66 69 l 66 236 l 68 1219 q 90 1251 86 1251 z "},"}":{"ha":428,"x_min":18,"x_max":382,"o":"m 168 1169 l 224 1169 q 374 1011 374 1104 l 374 964 q 186 570 338 764 l 186 551 q 261 524 192 524 l 298 514 l 326 468 q 261 374 318 432 l 261 336 l 345 336 q 374 298 374 336 l 382 298 q 111 -77 268 74 l 82 -77 l 56 -49 l 56 -31 q 269 232 260 142 l 269 261 l 261 261 l 119 243 l 82 298 l 186 393 l 214 431 q 186 449 214 449 l 45 439 l 18 476 l 18 505 q 176 664 176 621 q 307 945 283 785 l 307 993 q 157 1076 307 1076 l 131 1114 q 168 1169 151 1169 z "},"~":{"ha":848,"x_min":89,"x_max":730,"o":"m 726 1039 q 472 918 603 880 l 397 962 q 254 1116 271 1109 l 245 1118 q 144 1034 186 1133 l 140 1003 l 89 1008 q 257 1186 115 1168 l 285 1171 q 475 981 399 1003 l 489 978 q 710 1068 591 949 l 724 1064 l 730 1055 l 726 1039 z "},"¡":{"ha":355,"x_min":136,"x_max":252,"o":"m 162 -92 l 225 -59 l 225 699 l 216 711 l 199 711 q 162 381 162 687 l 162 -92 m 189 919 q 252 974 246 941 l 252 1006 q 208 1050 234 1050 q 136 985 153 1050 q 189 919 136 952 z "},"¢":{"ha":439,"x_min":12,"x_max":397,"o":"m 211 1061 l 243 1069 l 250 1028 l 248 873 l 248 818 l 385 829 l 364 775 q 249 736 298 765 l 256 340 l 248 153 l 260 54 q 359 143 336 68 l 387 143 l 397 115 q 267 1 397 20 l 275 -61 q 229 -118 275 -79 l 180 -81 q 184 0 183 -40 q 41 134 83 17 q 12 275 12 210 l 12 340 q 154 771 12 614 l 189 789 l 189 1031 q 211 1061 205 1061 m 87 443 l 79 358 l 79 237 q 187 60 79 109 q 192 218 192 139 l 192 236 l 191 692 q 87 443 106 606 z "},"£":{"ha":743,"x_min":-24,"x_max":635,"o":"m 368 458 l 378 458 l 406 431 l 406 403 q 187 382 245 392 q 129 47 168 165 l 342 155 l 635 68 l 606 -7 q 342 81 345 107 q 47 24 24 -96 q 114 372 98 155 q 14 354 43 361 l -24 382 l -24 429 l 118 441 l 102 947 q 621 850 14 1282 l 625 768 l 275 954 l 186 996 q 193 447 187 652 l 368 458 z "},"¤":{"ha":659,"x_min":81,"x_max":526,"o":"m 481 884 l 526 846 q 433 648 472 742 q 481 445 481 546 q 443 254 481 343 l 519 87 q 492 41 507 41 l 444 41 q 410 203 444 114 q 290 160 366 154 l 281 160 q 211 201 240 168 q 127 32 150 53 l 118 24 q 81 61 81 32 q 176 258 103 36 q 143 412 140 349 q 168 570 146 476 q 83 760 102 742 l 83 789 l 111 817 l 140 817 q 207 669 157 817 q 350 732 256 742 q 392 708 372 726 q 481 884 450 884 m 232 521 q 275 282 191 393 q 415 432 395 176 l 415 476 q 313 627 396 614 q 232 521 243 587 z "},"¥":{"ha":479,"x_min":-7,"x_max":456,"o":"m 400 446 l 410 446 l 437 418 l 437 390 q 293 380 361 386 l 293 328 l 418 343 l 428 343 l 456 314 l 456 286 q 290 265 368 277 l 279 -45 l 184 -62 q 201 250 191 66 q 53 220 118 236 l 16 249 l 16 294 l 205 318 q 210 372 207 345 q 31 342 107 359 l -7 370 l -7 416 l 215 432 l 218 457 l 114 876 q 191 935 146 935 l 208 822 q 268 554 218 732 q 353 905 353 739 q 437 880 387 933 q 296 457 393 700 l 294 439 l 400 446 z "},"¦":{"ha":210,"x_min":61,"x_max":155,"o":"m 140 631 l 144 340 l 155 40 q 107 -17 155 22 l 61 21 q 81 629 81 69 l 140 631 m 75 694 l 82 1219 q 104 1251 100 1251 l 136 1258 l 139 1028 l 136 873 l 129 694 l 75 694 z "},"§":{"ha":522,"x_min":45,"x_max":437,"o":"m 418 897 l 408 859 l 408 840 q 200 846 222 958 l 200 828 q 323 618 200 728 q 218 322 659 361 q 170 329 191 322 q 437 125 490 227 q 180 56 385 24 q 78 131 78 56 l 191 121 l 228 121 q 261 236 485 102 q 46 414 115 269 q 187 684 -24 558 q 127 817 171 707 q 418 897 106 1060 m 229 387 l 349 400 q 392 493 437 427 l 210 650 q 164 393 52 530 l 229 387 z "},"¨":{"ha":1067,"x_min":228,"x_max":547,"o":"m 268 1122 l 296 1122 l 336 1069 q 286 1004 336 1035 q 228 1069 245 1022 l 268 1122 m 479 1129 l 507 1129 l 547 1076 q 497 1011 547 1042 q 439 1076 457 1029 l 479 1129 z "},"©":{"ha":690,"x_min":46,"x_max":622,"o":"m 457 494 l 441 433 q 256 607 288 633 l 245 522 l 245 401 q 386 214 245 256 q 490 340 460 245 l 518 340 l 528 311 q 415 147 515 207 q 208 297 264 147 q 180 439 180 374 l 180 504 q 457 494 229 859 m 319 848 q 622 362 693 766 q 250 20 550 -41 q 46 456 21 58 q 187 811 131 760 q 319 848 243 863 m 78 431 q 254 79 113 79 q 578 413 564 52 q 296 806 593 774 q 78 431 172 806 z "},"ª":{"ha":288,"x_min":19,"x_max":283,"o":"m 180 561 l 200 561 l 219 552 l 212 486 q 271 252 231 252 l 283 252 l 283 248 q 258 217 283 224 l 231 217 q 187 314 206 217 l 180 314 q 65 164 143 164 q 20 257 20 164 l 20 305 q 128 534 20 508 q 180 561 147 534 m 65 319 l 65 257 q 84 209 65 209 q 168 437 126 209 l 168 442 q 148 504 163 504 l 128 504 q 65 319 65 504 z "},"«":{"ha":755,"x_min":81,"x_max":705,"o":"m 436 708 q 473 671 473 700 q 231 465 473 654 l 221 418 l 473 250 l 473 221 l 446 193 q 221 334 419 193 q 98 363 195 353 l 81 400 q 174 475 81 446 q 436 708 228 555 m 668 742 q 705 704 705 732 q 463 497 705 686 l 454 452 l 705 282 l 705 254 l 679 227 q 454 367 653 227 q 330 395 428 385 l 313 432 q 406 507 313 479 q 668 742 460 587 z "},"¬":{"ha":732,"x_min":60,"x_max":663,"o":"m 60 419 q 93 481 66 469 l 286 472 q 663 488 525 456 q 647 191 677 518 l 587 195 l 600 412 l 593 412 q 60 419 416 382 z "},"®":{"ha":549,"x_min":29,"x_max":517,"o":"m 517 478 q 329 8 517 126 l 235 0 q 29 309 81 0 l 29 421 q 170 946 94 946 q 517 478 511 1157 m 332 794 q 407 704 407 777 q 272 481 399 559 q 403 158 355 191 q 460 496 460 268 l 435 746 q 264 937 411 937 q 77 403 140 937 l 77 355 q 244 56 104 56 q 379 122 329 56 q 293 304 347 157 l 236 433 l 221 433 l 221 429 l 227 340 q 199 189 227 189 l 184 189 q 168 215 172 189 l 189 751 l 205 766 l 210 766 l 332 794 m 231 699 l 227 558 l 227 522 l 236 511 q 367 699 367 616 l 367 725 l 345 745 l 340 745 q 231 699 282 745 z "},"¯":{"ha":419,"x_min":69,"x_max":382,"o":"m 353 921 l 380 925 l 382 854 q 69 868 256 878 l 74 932 l 353 921 z "},"°":{"ha":236,"x_min":8,"x_max":227,"o":"m 144 391 q 227 322 203 391 l 220 319 l 220 304 q 118 186 204 186 l 111 183 l 105 183 q 9 281 9 192 q 144 391 9 391 m 48 294 q 105 204 62 204 l 111 204 q 181 296 165 204 l 181 332 q 125 370 181 367 q 48 294 48 361 z "},"±":{"ha":700,"x_min":56,"x_max":621,"o":"m 583 260 l 593 260 l 621 232 l 621 204 q 375 179 482 192 q 366 174 370 174 l 346 174 l 343 175 q 119 136 203 155 l 82 164 l 82 211 l 302 232 q 289 355 283 281 q 271 493 296 493 l 75 473 l 56 503 l 56 530 q 168 549 56 549 l 225 549 l 271 558 l 271 653 l 262 708 q 309 783 275 758 l 346 765 l 338 653 l 338 578 q 366 558 338 558 l 553 578 l 571 549 l 571 541 q 355 493 571 514 l 355 484 l 390 241 l 583 260 z "},"²":{"ha":346,"x_min":22,"x_max":305,"o":"m 150 767 q 206 665 206 756 q 121 308 171 433 q 276 369 196 313 l 284 369 l 304 356 q 114 263 304 303 l 57 273 l 57 276 q 135 714 199 704 q 86 591 94 714 l 65 581 q 22 608 46 581 q 80 721 43 676 q 150 767 118 766 z "},"³":{"ha":332,"x_min":33,"x_max":302,"o":"m 174 737 q 206 705 206 730 q 161 554 206 676 l 193 554 q 302 469 302 554 q 90 253 302 361 q 59 276 59 255 l 52 276 q 78 299 65 298 l 97 295 q 258 478 258 383 q 213 521 258 496 q 97 446 130 521 l 78 431 l 65 431 q 39 455 52 434 q 155 662 155 600 l 155 681 l 148 686 l 148 691 q 90 606 103 691 l 97 600 q 59 573 97 587 q 33 592 39 576 q 174 737 81 737 z "},"´":{"ha":465,"x_min":75,"x_max":319,"o":"m 119 935 l 75 975 q 285 1150 269 1143 l 319 1116 l 119 935 z "},"µ":{"ha":386,"x_min":8,"x_max":354,"o":"m 345 599 l 345 570 l 354 494 q 350 12 339 286 q 310 9 325 9 q 269 52 278 66 q 195 -11 237 -11 q 92 62 165 -11 q 50 -57 75 36 q 8 -46 62 -68 q 31 107 31 53 q 17 468 40 258 l 17 524 q 54 607 17 595 l 72 607 l 102 589 l 92 524 l 92 431 q 195 64 132 35 q 279 419 260 90 l 279 514 q 260 618 279 581 q 345 599 260 677 z "},"¶":{"ha":644,"x_min":46,"x_max":578,"o":"m 431 772 l 450 772 q 578 745 596 779 l 562 345 l 572 45 q 525 -11 572 28 l 497 25 q 519 705 497 74 q 473 701 500 703 q 407 146 431 621 l 435 33 l 397 -4 q 332 53 359 -4 l 342 118 l 342 146 l 375 389 l 375 407 l 355 407 q 178 304 277 304 q 46 464 46 304 q 338 754 140 754 l 431 772 z "},"·":{"ha":240,"x_min":65,"x_max":157,"o":"m 96 416 q 157 367 144 425 q 106 310 142 301 q 65 370 75 325 q 96 416 65 393 z "},"¸":{"ha":750,"x_min":153,"x_max":518,"o":"m 349 29 l 349 9 q 509 -271 349 -92 l 518 -309 q 256 -488 450 -488 q 153 -412 153 -488 l 265 -421 l 302 -421 q 433 -309 433 -390 l 433 -300 q 302 -83 433 -275 l 273 18 l 349 29 z "},"¹":{"ha":215,"x_min":38,"x_max":184,"o":"m 57 836 l 76 836 l 102 817 l 90 787 l 90 758 q 167 344 90 700 l 185 330 l 185 325 q 147 271 185 284 q 108 286 124 271 l 115 315 q 39 826 115 391 l 57 836 z "},"º":{"ha":236,"x_min":21,"x_max":216,"o":"m 141 607 q 215 487 194 607 l 209 481 l 209 455 q 118 247 195 247 l 112 243 l 106 243 q 21 414 21 258 q 141 607 21 607 m 55 437 q 106 279 68 279 l 112 279 q 174 441 160 279 l 174 505 q 124 572 174 565 q 55 437 55 556 z "},"»":{"ha":747,"x_min":53,"x_max":732,"o":"m 107 832 q 465 525 465 610 q 136 215 465 479 l 81 262 q 237 392 93 297 q 380 543 380 486 l 53 768 l 53 806 q 90 835 53 831 l 107 832 m 357 850 q 558 732 385 850 q 732 530 732 615 q 600 366 732 484 q 404 221 468 248 l 354 253 q 514 386 380 281 q 647 550 647 492 l 319 775 l 319 812 q 357 850 319 836 z "},"¼":{"ha":868,"x_min":41,"x_max":723,"o":"m 64 922 l 90 922 l 122 898 l 107 864 l 107 830 q 204 344 107 762 l 227 327 l 227 321 q 179 258 227 273 q 130 275 150 258 l 139 309 q 42 910 139 399 l 64 922 m 472 1039 l 492 1039 l 492 1021 q 267 139 397 501 q 247 54 247 139 l 221 36 l 172 45 l 172 83 q 427 946 309 355 q 472 1039 427 1011 m 695 673 q 722 646 716 673 l 705 539 l 705 298 l 714 298 q 695 234 787 287 l 695 174 l 685 88 l 714 62 q 677 30 695 30 l 658 30 q 622 62 622 41 l 635 225 l 503 217 l 467 234 q 458 588 476 559 q 503 614 473 614 q 549 588 528 614 l 531 556 l 539 277 l 568 260 l 613 260 l 641 277 q 695 673 641 673 z "},"½":{"ha":817,"x_min":41,"x_max":762,"o":"m 64 912 l 90 912 l 122 889 l 107 855 l 107 822 q 204 346 107 755 l 227 329 l 227 323 q 179 262 227 276 q 130 278 150 262 l 139 312 q 42 900 139 400 l 64 912 m 439 1013 l 458 1013 l 458 994 q 233 113 364 475 q 214 28 214 113 l 188 9 l 139 19 l 139 57 q 393 920 275 329 q 439 1013 393 985 m 550 528 q 627 427 627 517 q 511 72 579 196 q 722 133 613 77 l 733 133 l 761 120 q 501 28 761 68 l 424 37 l 424 41 q 530 476 617 466 q 463 353 474 476 l 434 344 q 376 370 408 344 q 456 482 404 438 q 550 528 507 527 z "},"¾":{"ha":933,"x_min":37,"x_max":751,"o":"m 232 731 q 277 699 277 724 q 215 550 277 670 l 258 550 q 410 466 410 550 q 116 253 410 360 q 73 276 73 255 l 63 276 q 99 299 81 297 l 126 294 q 348 475 348 381 q 286 517 348 493 q 126 443 171 517 l 99 429 l 81 429 q 45 452 63 431 q 205 657 205 595 l 205 675 l 196 680 l 196 685 q 116 601 133 685 l 126 596 q 73 569 126 582 q 37 587 45 572 q 232 731 103 731 m 568 1019 l 587 1019 l 587 1001 q 362 119 493 481 q 342 35 342 119 l 317 16 l 268 26 l 268 64 q 522 926 404 336 q 568 1019 522 991 m 726 612 q 751 587 745 612 l 735 488 l 735 267 l 743 267 q 726 208 810 257 l 726 153 l 717 74 l 743 50 q 710 20 726 20 l 692 20 q 659 50 659 31 l 671 200 l 550 192 l 517 208 q 509 533 526 506 q 550 557 523 557 q 593 533 573 557 l 576 504 l 584 247 l 610 232 l 651 232 l 677 247 q 726 612 677 612 z "},"¿":{"ha":347,"x_min":41,"x_max":351,"o":"m 155 21 l 134 21 q 41 168 41 21 q 196 557 41 245 l 227 664 l 227 761 q 196 908 221 896 q 247 967 210 948 l 257 967 q 298 916 279 961 l 288 858 q 350 596 288 666 q 227 480 350 557 q 123 236 123 295 l 123 168 l 155 138 q 227 293 184 138 l 257 314 l 298 285 q 155 21 224 21 m 227 1122 l 196 1122 q 155 1180 155 1141 q 216 1219 155 1219 l 216 1228 q 279 1180 259 1215 l 279 1170 l 227 1122 z "},"À":{"ha":534,"x_min":14,"x_max":514,"o":"m 367 1153 q 472 220 468 1150 l 501 -81 l 454 -89 l 435 -89 l 407 -61 l 407 286 l 397 427 l 389 427 q 143 332 164 399 q 89 -14 107 -9 l 52 -14 l 14 24 q 164 811 60 380 q 367 1153 236 1166 m 174 492 l 220 456 q 407 519 407 497 l 407 689 l 416 811 l 393 905 q 338 1018 367 1018 q 174 492 278 1018 m 175 1343 q 514 1230 222 1377 l 439 1170 l 159 1291 l 175 1343 z "},"Á":{"ha":534,"x_min":14,"x_max":501,"o":"m 367 1153 q 472 220 468 1150 l 501 -81 l 454 -89 l 435 -89 l 407 -61 l 407 286 l 397 427 l 389 427 q 143 332 164 399 q 89 -14 107 -9 l 52 -14 l 14 24 q 164 811 60 380 q 367 1153 236 1166 m 174 492 l 220 456 q 407 519 407 497 l 407 689 l 416 811 l 393 905 q 338 1018 367 1018 q 174 492 278 1018 m 205 1108 l 161 1149 q 371 1324 355 1317 l 406 1289 l 205 1108 z "},"Â":{"ha":534,"x_min":14,"x_max":528,"o":"m 367 1153 q 472 220 468 1150 l 501 -81 l 454 -89 l 435 -89 l 407 -61 l 407 286 l 397 427 l 389 427 q 143 332 164 399 q 89 -14 107 -9 l 52 -14 l 14 24 q 164 811 60 380 q 367 1153 236 1166 m 174 492 l 220 456 q 407 519 407 497 l 407 689 l 416 811 l 393 905 q 338 1018 367 1018 q 174 492 278 1018 m 337 1362 l 355 1362 q 528 1100 394 1362 q 435 1164 447 1065 q 347 1250 368 1247 l 337 1250 q 208 1126 280 1192 l 170 1100 l 162 1100 l 162 1145 q 337 1362 301 1362 z "},"Ã":{"ha":534,"x_min":14,"x_max":787,"o":"m 367 1153 q 472 220 468 1150 l 501 -81 l 454 -89 l 435 -89 l 407 -61 l 407 286 l 397 427 l 389 427 q 143 332 164 399 q 89 -14 107 -9 l 52 -14 l 14 24 q 164 811 60 380 q 367 1153 236 1166 m 174 492 l 220 456 q 407 519 407 497 l 407 689 l 416 811 l 393 905 q 338 1018 367 1018 q 174 492 278 1018 m 783 1211 q 529 1090 660 1053 l 454 1135 q 311 1288 328 1282 l 302 1291 q 201 1206 243 1305 l 197 1175 l 146 1181 q 314 1358 172 1340 l 342 1343 q 532 1153 456 1175 l 546 1150 q 767 1240 648 1121 l 781 1236 l 787 1227 l 783 1211 z "},"Ä":{"ha":534,"x_min":14,"x_max":501,"o":"m 367 1153 q 472 220 468 1150 l 501 -81 l 454 -89 l 435 -89 l 407 -61 l 407 286 l 397 427 l 389 427 q 143 332 164 399 q 89 -14 107 -9 l 52 -14 l 14 24 q 164 811 60 380 q 367 1153 236 1166 m 174 492 l 220 456 q 407 519 407 497 l 407 689 l 416 811 l 393 905 q 338 1018 367 1018 q 174 492 278 1018 m 221 1264 l 249 1264 l 290 1211 q 239 1146 290 1177 q 181 1211 199 1164 l 221 1264 m 433 1271 l 460 1271 l 500 1218 q 450 1153 500 1183 q 392 1218 410 1171 l 433 1271 z "},"Å":{"ha":534,"x_min":14,"x_max":501,"o":"m 367 1153 q 472 220 468 1150 l 501 -81 l 454 -89 l 435 -89 l 407 -61 l 407 286 l 397 427 l 389 427 q 143 332 164 399 q 89 -14 107 -9 l 52 -14 l 14 24 q 164 811 60 380 q 367 1153 236 1166 m 174 492 l 220 456 q 407 519 407 497 l 407 689 l 416 811 l 393 905 q 338 1018 367 1018 q 174 492 278 1018 m 360 1392 q 478 1283 431 1392 q 330 1118 478 1141 l 323 1118 q 168 1229 192 1118 l 168 1242 q 316 1388 168 1367 q 360 1392 360 1388 m 213 1272 l 213 1253 q 294 1137 213 1164 l 307 1137 q 433 1266 414 1137 q 353 1361 433 1347 l 323 1367 q 213 1272 231 1358 z "},"Æ":{"ha":888,"x_min":14,"x_max":823,"o":"m 367 1153 q 472 220 468 1150 l 501 -81 l 454 -89 l 435 -89 l 407 -61 l 407 286 l 397 427 l 389 427 q 143 332 164 399 q 89 -14 107 -9 l 52 -14 l 14 24 q 164 811 60 380 q 367 1153 236 1166 m 174 492 l 220 456 q 407 519 407 497 l 407 689 l 416 811 l 393 905 q 338 1018 367 1018 q 174 492 278 1018 m 694 1186 q 742 1157 742 1173 l 742 1129 q 525 1059 742 1100 l 518 732 l 518 684 q 545 665 518 665 l 724 684 l 732 675 l 732 665 q 518 590 732 628 l 481 178 l 481 159 q 555 57 481 57 l 807 159 l 823 102 q 526 -18 836 89 q 406 170 435 -18 l 452 572 l 424 619 q 461 732 461 690 l 452 969 q 432 1063 452 1063 q 694 1186 432 1137 z "},"Ç":{"ha":496,"x_min":25,"x_max":500,"o":"m 443 1181 q 500 1143 500 1161 l 500 1124 q 415 1105 500 1105 q 197 833 256 1022 q 90 358 90 621 l 90 349 q 221 68 109 68 l 250 58 l 306 58 q 428 283 359 82 l 456 283 l 456 273 q 288 -17 407 -17 q 33 218 129 -17 l 25 311 q 245 1031 25 717 q 443 1181 368 1181 m 263 29 l 263 9 q 423 -271 263 -92 l 433 -309 q 170 -488 365 -488 q 67 -412 67 -488 l 180 -421 l 217 -421 q 348 -309 348 -390 l 348 -300 q 217 -83 348 -275 l 188 18 l 263 29 z "},"È":{"ha":496,"x_min":26,"x_max":444,"o":"m 315 1181 q 362 1152 362 1168 l 362 1124 q 145 1054 362 1095 l 138 726 l 138 679 q 165 660 138 660 l 344 679 l 352 669 l 352 660 q 138 585 352 623 l 101 172 l 101 154 q 176 52 101 52 l 427 154 l 444 97 q 146 -24 456 83 q 26 164 55 -24 l 72 567 l 44 614 q 81 726 81 685 l 72 964 q 52 1057 72 1057 q 315 1181 52 1132 m 52 1390 q 391 1276 100 1423 l 316 1217 l 36 1337 l 52 1390 z "},"É":{"ha":496,"x_min":26,"x_max":444,"o":"m 315 1181 q 362 1152 362 1168 l 362 1124 q 145 1054 362 1095 l 138 726 l 138 679 q 165 660 138 660 l 344 679 l 352 669 l 352 660 q 138 585 352 623 l 101 172 l 101 154 q 176 52 101 52 l 427 154 l 444 97 q 146 -24 456 83 q 26 164 55 -24 l 72 567 l 44 614 q 81 726 81 685 l 72 964 q 52 1057 72 1057 q 315 1181 52 1132 m 113 1153 l 69 1194 q 279 1369 263 1362 l 313 1334 l 113 1153 z "},"Ê":{"ha":496,"x_min":26,"x_max":444,"o":"m 315 1181 q 362 1152 362 1168 l 362 1124 q 145 1054 362 1095 l 138 726 l 138 679 q 165 660 138 660 l 344 679 l 352 669 l 352 660 q 138 585 352 623 l 101 172 l 101 154 q 176 52 101 52 l 427 154 l 444 97 q 146 -24 456 83 q 26 164 55 -24 l 72 567 l 44 614 q 81 726 81 685 l 72 964 q 52 1057 72 1057 q 315 1181 52 1132 m 226 1454 l 244 1454 q 416 1192 283 1454 q 323 1255 336 1157 q 236 1341 256 1339 l 226 1341 q 97 1218 169 1283 l 59 1192 l 51 1192 l 51 1237 q 226 1454 190 1454 z "},"Ë":{"ha":496,"x_min":26,"x_max":444,"o":"m 315 1181 q 362 1152 362 1168 l 362 1124 q 145 1054 362 1095 l 138 726 l 138 679 q 165 660 138 660 l 344 679 l 352 669 l 352 660 q 138 585 352 623 l 101 172 l 101 154 q 176 52 101 52 l 427 154 l 444 97 q 146 -24 456 83 q 26 164 55 -24 l 72 567 l 44 614 q 81 726 81 685 l 72 964 q 52 1057 72 1057 q 315 1181 52 1132 m 120 1325 l 148 1325 l 189 1272 q 138 1207 189 1238 q 80 1272 98 1225 l 120 1325 m 332 1332 l 359 1332 l 399 1279 q 349 1214 399 1244 q 291 1279 309 1232 l 332 1332 z "},"Ì":{"ha":228,"x_min":16,"x_max":372,"o":"m 178 1095 q 212 987 231 1125 q 155 615 193 850 q 117 102 117 380 l 135 45 l 135 26 l 89 -11 q 32 56 49 -11 q 91 581 52 78 q 158 1084 131 1084 l 178 1084 l 178 1095 m 33 1291 q 372 1177 80 1324 l 296 1117 l 16 1238 l 33 1291 z "},"Í":{"ha":228,"x_min":32,"x_max":277,"o":"m 178 1095 q 212 987 231 1125 q 155 615 193 850 q 117 102 117 380 l 135 45 l 135 26 l 89 -11 q 32 56 49 -11 q 91 581 52 78 q 158 1084 131 1084 l 178 1084 l 178 1095 m 77 1059 l 33 1100 q 243 1275 227 1268 l 277 1240 l 77 1059 z "},"Î":{"ha":228,"x_min":13,"x_max":378,"o":"m 178 1095 q 212 987 231 1125 q 155 615 193 850 q 117 102 117 380 l 135 45 l 135 26 l 89 -11 q 32 56 49 -11 q 91 581 52 78 q 158 1084 131 1084 l 178 1084 l 178 1095 m 188 1316 l 206 1316 q 378 1053 245 1316 q 286 1117 298 1019 q 198 1203 218 1200 l 188 1203 q 59 1080 131 1145 l 21 1053 l 13 1053 l 13 1099 q 188 1316 152 1316 z "},"Ï":{"ha":228,"x_min":18,"x_max":337,"o":"m 178 1095 q 212 987 231 1125 q 155 615 193 850 q 117 102 117 380 l 135 45 l 135 26 l 89 -11 q 32 56 49 -11 q 91 581 52 78 q 158 1084 131 1084 l 178 1084 l 178 1095 m 58 1261 l 85 1261 l 126 1208 q 76 1143 126 1174 q 18 1208 35 1161 l 58 1261 m 269 1268 l 297 1268 l 337 1215 q 287 1150 337 1181 q 229 1215 247 1168 l 269 1268 z "},"Ð":{"ha":496,"x_min":-52,"x_max":519,"o":"m 201 1280 q 332 1187 268 1187 q 519 878 519 1083 q 107 43 519 482 q 52 -50 93 -50 q 14 -4 14 -50 l 5 -4 l 61 231 q 106 703 89 452 l -14 730 l -52 758 l -52 806 l 110 760 q 126 1055 119 903 l 126 1158 q 201 1280 126 1280 m 289 708 l 297 708 l 326 681 l 326 653 l 157 692 l 118 165 l 126 165 q 436 690 289 262 l 456 850 l 456 905 q 249 1140 458 1118 q 182 1008 182 1140 l 163 745 l 289 708 z "},"Ñ":{"ha":644,"x_min":-105,"x_max":599,"o":"m 510 1193 q 555 1100 555 1193 l 538 1043 l 543 890 l 590 168 l 581 131 l 599 18 q 561 -29 581 -25 l 533 -29 q 421 253 498 -29 q 149 908 192 889 q 111 590 123 908 l 121 458 l 111 374 l 131 83 l 103 46 l 93 46 q 36 74 43 46 l 56 346 l 46 355 l 56 403 l 56 796 q 93 965 56 908 l 93 983 l 56 1031 l 56 1059 q 111 1096 74 1096 q 271 796 153 1096 q 440 318 328 686 l 515 168 l 524 168 l 524 271 l 472 978 l 481 1108 l 472 1156 q 510 1193 479 1183 m 532 1260 q 278 1139 409 1101 l 203 1183 q 60 1337 77 1331 l 52 1339 q -50 1255 -8 1354 l -54 1224 l -105 1230 q 63 1407 -79 1389 l 91 1392 q 281 1202 205 1224 l 295 1199 q 516 1289 397 1170 l 530 1285 l 536 1276 l 532 1260 z "},"Ò":{"ha":549,"x_min":29,"x_max":517,"o":"m 254 1050 l 264 1050 q 339 965 315 1050 q 517 478 517 827 q 329 8 517 126 l 235 0 q 29 309 81 0 l 29 421 q 170 946 94 946 q 254 1050 170 975 m 77 403 l 85 393 l 85 383 l 77 355 q 244 56 104 56 q 460 496 460 56 l 460 533 q 264 937 411 937 q 77 403 140 937 m 114 1227 q 453 1113 161 1260 l 378 1053 l 98 1174 l 114 1227 z "},"Ó":{"ha":549,"x_min":29,"x_max":517,"o":"m 254 1050 l 264 1050 q 339 965 315 1050 q 517 478 517 827 q 329 8 517 126 l 235 0 q 29 309 81 0 l 29 421 q 170 946 94 946 q 254 1050 170 975 m 77 403 l 85 393 l 85 383 l 77 355 q 244 56 104 56 q 460 496 460 56 l 460 533 q 264 937 411 937 q 77 403 140 937 m 139 1034 l 95 1075 q 304 1250 289 1243 l 339 1215 l 139 1034 z "},"Ô":{"ha":549,"x_min":29,"x_max":517,"o":"m 254 1050 l 264 1050 q 339 965 315 1050 q 517 478 517 827 q 329 8 517 126 l 235 0 q 29 309 81 0 l 29 421 q 170 946 94 946 q 254 1050 170 975 m 77 403 l 85 393 l 85 383 l 77 355 q 244 56 104 56 q 460 496 460 56 l 460 533 q 264 937 411 937 q 77 403 140 937 m 277 1247 l 296 1247 q 468 985 334 1247 q 375 1048 387 950 q 288 1135 308 1132 l 277 1135 q 149 1011 220 1076 l 111 985 l 102 985 l 102 1030 q 277 1247 241 1247 z "},"Õ":{"ha":549,"x_min":1,"x_max":642,"o":"m 254 1050 l 264 1050 q 339 965 315 1050 q 517 478 517 827 q 329 8 517 126 l 235 0 q 29 309 81 0 l 29 421 q 170 946 94 946 q 254 1050 170 975 m 77 403 l 85 393 l 85 383 l 77 355 q 244 56 104 56 q 460 496 460 56 l 460 533 q 264 937 411 937 q 77 403 140 937 m 638 1162 q 384 1042 515 1004 l 309 1086 q 166 1239 182 1233 l 157 1242 q 56 1157 98 1257 l 52 1126 l 1 1132 q 169 1310 27 1291 l 197 1294 q 387 1104 311 1126 l 401 1101 q 622 1192 503 1072 l 635 1187 l 642 1179 l 638 1162 z "},"Ö":{"ha":549,"x_min":29,"x_max":517,"o":"m 254 1050 l 264 1050 q 339 965 315 1050 q 517 478 517 827 q 329 8 517 126 l 235 0 q 29 309 81 0 l 29 421 q 170 946 94 946 q 254 1050 170 975 m 77 403 l 85 393 l 85 383 l 77 355 q 244 56 104 56 q 460 496 460 56 l 460 533 q 264 937 411 937 q 77 403 140 937 m 149 1259 l 177 1259 l 218 1206 q 168 1141 218 1171 q 109 1206 127 1158 l 149 1259 m 361 1265 l 389 1265 l 429 1213 q 378 1147 429 1178 q 320 1213 338 1166 l 361 1265 z "},"×":{"ha":447,"x_min":16,"x_max":407,"o":"m 339 640 l 407 578 q 260 345 302 461 l 372 143 q 343 96 359 96 q 210 262 307 72 q 62 77 97 106 l 53 68 q 16 106 16 77 q 184 335 65 167 q 64 606 92 576 l 64 635 l 92 663 l 119 663 q 195 485 147 663 l 222 418 l 339 640 z "},"Ø":{"ha":549,"x_min":29,"x_max":517,"o":"m 254 1050 l 264 1050 q 339 965 315 1050 q 517 478 517 827 q 329 8 517 126 l 235 0 q 29 309 81 0 l 29 421 q 170 946 94 946 q 254 1050 170 975 m 77 403 l 85 393 l 85 383 l 77 355 q 244 56 104 56 q 460 496 460 56 l 460 533 q 264 937 411 937 q 77 403 140 937 m 412 1007 l 432 1007 l 432 989 q 207 107 338 469 q 187 22 187 107 l 161 4 l 113 14 l 113 52 q 367 914 249 323 q 412 1007 367 979 z "},"Ù":{"ha":501,"x_min":33,"x_max":473,"o":"m 98 1104 l 126 1104 l 144 1084 l 144 1076 q 90 586 90 711 l 90 530 l 98 521 l 90 511 l 90 465 q 174 71 121 71 l 183 71 q 390 596 318 71 l 399 708 l 370 1047 l 399 1084 q 473 972 473 1084 l 465 718 q 174 -14 370 -14 q 33 653 33 -14 q 98 1104 56 1104 m 75 1295 q 414 1181 123 1328 l 339 1121 l 59 1242 l 75 1295 z "},"Ú":{"ha":501,"x_min":33,"x_max":473,"o":"m 98 1104 l 126 1104 l 144 1084 l 144 1076 q 90 586 90 711 l 90 530 l 98 521 l 90 511 l 90 465 q 174 71 121 71 l 183 71 q 390 596 318 71 l 399 708 l 370 1047 l 399 1084 q 473 972 473 1084 l 465 718 q 174 -14 370 -14 q 33 653 33 -14 q 98 1104 56 1104 m 232 1097 l 188 1138 q 397 1313 382 1306 l 432 1278 l 232 1097 z "},"Û":{"ha":501,"x_min":33,"x_max":473,"o":"m 98 1104 l 126 1104 l 144 1084 l 144 1076 q 90 586 90 711 l 90 530 l 98 521 l 90 511 l 90 465 q 174 71 121 71 l 183 71 q 390 596 318 71 l 399 708 l 370 1047 l 399 1084 q 473 972 473 1084 l 465 718 q 174 -14 370 -14 q 33 653 33 -14 q 98 1104 56 1104 m 262 1442 l 280 1442 q 452 1179 319 1442 q 359 1243 372 1145 q 272 1329 292 1326 l 262 1329 q 133 1206 205 1271 l 95 1179 l 87 1179 l 87 1225 q 262 1442 226 1442 z "},"Ü":{"ha":501,"x_min":33,"x_max":473,"o":"m 98 1104 l 126 1104 l 144 1084 l 144 1076 q 90 586 90 711 l 90 530 l 98 521 l 90 511 l 90 465 q 174 71 121 71 l 183 71 q 390 596 318 71 l 399 708 l 370 1047 l 399 1084 q 473 972 473 1084 l 465 718 q 174 -14 370 -14 q 33 653 33 -14 q 98 1104 56 1104 m 157 1265 l 185 1265 l 226 1213 q 176 1147 226 1178 q 117 1213 135 1165 l 157 1265 m 369 1272 l 397 1272 l 437 1219 q 387 1154 437 1185 q 328 1219 347 1173 l 369 1272 z "},"Ý":{"ha":514,"x_min":36,"x_max":510,"o":"m 435 1152 l 472 1152 l 510 1114 q 421 514 464 1026 q 186 -49 349 -49 l 186 -58 q 36 45 56 -58 l 36 54 l 56 54 l 56 64 l 140 7 q 411 869 351 7 l 403 869 l 271 644 q 140 514 168 514 l 111 514 q 65 644 71 514 l 65 729 q 158 1179 71 1117 l 186 1169 l 186 1141 q 131 672 131 987 q 158 607 140 607 q 435 1152 326 764 m 271 1158 l 227 1199 q 436 1374 420 1367 l 471 1339 l 271 1158 z "},"Þ":{"ha":400,"x_min":25,"x_max":352,"o":"m 72 1104 l 119 1075 l 110 991 l 110 770 l 119 770 q 260 882 201 882 l 289 882 q 352 524 419 777 q 207 243 285 271 q 100 256 129 216 l 94 -37 l 25 -37 l 54 367 q 26 1055 54 1006 q 72 1104 26 1080 m 117 375 q 282 447 167 196 l 326 653 q 241 812 326 812 q 117 375 100 696 z "},"ß":{"ha":514,"x_min":-22,"x_max":497,"o":"m 129 135 q 404 418 335 -5 q 347 643 422 643 q 196 572 252 608 l 178 672 q 375 1075 375 884 q 338 1121 357 1118 q 131 981 243 1121 l 122 690 q 66 -240 113 412 q -22 -298 37 -340 q 79 1050 24 -170 l 187 1131 q 347 1196 273 1185 q 450 1075 428 1196 q 310 718 450 999 l 310 708 l 393 718 q 497 568 464 718 q 329 56 484 199 q 127 32 239 -18 l 129 135 z "},"à":{"ha":475,"x_min":5,"x_max":435,"o":"m 285 739 l 314 739 l 342 720 l 332 581 q 416 82 358 82 l 435 82 l 435 74 q 397 7 435 22 l 359 7 q 294 214 322 7 l 285 214 q 117 -106 231 -106 q 52 93 52 -106 l 52 195 q 210 682 52 627 q 285 739 236 682 m 117 224 l 117 93 q 144 -11 117 -11 q 267 476 205 -11 l 267 486 q 239 618 260 618 l 210 618 q 117 224 117 618 m 22 1008 q 361 895 69 1042 l 286 835 l 5 956 l 22 1008 z "},"á":{"ha":475,"x_min":52,"x_max":435,"o":"m 285 739 l 314 739 l 342 720 l 332 581 q 416 82 358 82 l 435 82 l 435 74 q 397 7 435 22 l 359 7 q 294 214 322 7 l 285 214 q 117 -106 231 -106 q 52 93 52 -106 l 52 195 q 210 682 52 627 q 285 739 236 682 m 117 224 l 117 93 q 144 -11 117 -11 q 267 476 205 -11 l 267 486 q 239 618 260 618 l 210 618 q 117 224 117 618 m 200 935 l 156 975 q 366 1150 350 1143 l 400 1116 l 200 935 z "},"â":{"ha":475,"x_min":52,"x_max":455,"o":"m 285 739 l 314 739 l 342 720 l 332 581 q 416 82 358 82 l 435 82 l 435 74 q 397 7 435 22 l 359 7 q 294 214 322 7 l 285 214 q 117 -106 231 -106 q 52 93 52 -106 l 52 195 q 210 682 52 627 q 285 739 236 682 m 117 224 l 117 93 q 144 -11 117 -11 q 267 476 205 -11 l 267 486 q 239 618 260 618 l 210 618 q 117 224 117 618 m 264 1020 l 283 1020 q 455 758 321 1020 q 362 821 374 723 q 275 907 295 905 l 264 907 q 136 784 208 849 l 98 758 l 90 758 l 90 803 q 264 1020 229 1020 z "},"ã":{"ha":475,"x_min":-81,"x_max":560,"o":"m 285 739 l 314 739 l 342 720 l 332 581 q 416 82 358 82 l 435 82 l 435 74 q 397 7 435 22 l 359 7 q 294 214 322 7 l 285 214 q 117 -106 231 -106 q 52 93 52 -106 l 52 195 q 210 682 52 627 q 285 739 236 682 m 117 224 l 117 93 q 144 -11 117 -11 q 267 476 205 -11 l 267 486 q 239 618 260 618 l 210 618 q 117 224 117 618 m 556 1039 q 302 918 433 880 l 227 962 q 84 1116 100 1109 l 75 1118 q -26 1034 16 1133 l -30 1003 l -81 1008 q 87 1186 -55 1168 l 115 1171 q 304 981 229 1003 l 319 978 q 540 1068 421 949 l 553 1064 l 560 1055 l 556 1039 z "},"ä":{"ha":475,"x_min":52,"x_max":435,"o":"m 285 739 l 314 739 l 342 720 l 332 581 q 416 82 358 82 l 435 82 l 435 74 q 397 7 435 22 l 359 7 q 294 214 322 7 l 285 214 q 117 -106 231 -106 q 52 93 52 -106 l 52 195 q 210 682 52 627 q 285 739 236 682 m 117 224 l 117 93 q 144 -11 117 -11 q 267 476 205 -11 l 267 486 q 239 618 260 618 l 210 618 q 117 224 117 618 m 112 934 l 140 934 l 180 881 q 130 816 180 846 q 72 881 90 833 l 112 934 m 323 941 l 351 941 l 391 888 q 341 823 391 853 q 283 888 301 841 l 323 941 z "},"å":{"ha":475,"x_min":52,"x_max":435,"o":"m 285 739 l 314 739 l 342 720 l 332 581 q 416 82 358 82 l 435 82 l 435 74 q 397 7 435 22 l 359 7 q 294 214 322 7 l 285 214 q 117 -106 231 -106 q 52 93 52 -106 l 52 195 q 210 682 52 627 q 285 739 236 682 m 117 224 l 117 93 q 144 -11 117 -11 q 267 476 205 -11 l 267 486 q 239 618 260 618 l 210 618 q 117 224 117 618 m 262 951 q 380 842 333 951 q 231 677 380 701 l 224 677 q 70 788 94 677 l 70 801 q 218 947 70 926 q 262 951 262 947 m 115 831 l 115 812 q 195 696 115 723 l 209 696 q 334 825 316 696 q 255 920 334 906 l 224 926 q 115 831 133 918 z "},"æ":{"ha":737,"x_min":52,"x_max":689,"o":"m 285 739 l 314 739 l 342 720 l 332 581 q 416 82 358 82 l 435 82 l 435 74 q 397 7 435 22 l 359 7 q 294 214 322 7 l 285 214 q 117 -106 231 -106 q 52 93 52 -106 l 52 195 q 210 682 52 627 q 285 739 236 682 m 117 224 l 117 93 q 144 -11 117 -11 q 267 476 205 -11 l 267 486 q 239 618 260 618 l 210 618 q 117 224 117 618 m 510 789 q 660 639 660 745 l 660 611 q 472 321 660 401 l 408 321 l 408 301 q 492 66 408 133 l 521 66 q 671 216 574 66 l 679 208 l 689 208 q 501 -8 622 -8 q 322 376 391 -8 q 304 423 307 376 q 371 667 342 452 q 510 789 443 789 m 397 441 q 427 395 406 395 l 484 395 q 596 611 596 448 l 596 621 q 510 713 582 713 q 397 441 397 713 z "},"ç":{"ha":439,"x_min":12,"x_max":404,"o":"m 248 818 l 275 808 l 275 790 q 87 443 87 664 l 79 358 l 79 237 q 218 50 79 93 q 359 143 330 50 l 387 143 l 397 115 q 248 -17 397 14 q 41 134 96 -17 q 12 275 12 210 l 12 340 q 154 771 12 614 l 248 818 m 234 29 l 234 9 q 394 -271 234 -92 l 404 -309 q 141 -488 336 -488 q 38 -412 38 -488 l 151 -421 l 188 -421 q 319 -309 319 -390 l 319 -300 q 188 -83 319 -275 l 159 18 l 234 29 z "},"è":{"ha":439,"x_min":-13,"x_max":397,"o":"m 218 783 q 368 633 368 739 l 368 606 q 180 315 368 396 l 117 315 l 117 296 q 200 61 117 127 l 229 61 q 379 211 282 61 l 387 203 l 397 203 q 210 -14 330 -14 q 31 371 100 -14 q 12 418 16 371 q 79 661 50 447 q 218 783 151 783 m 106 436 q 135 390 114 390 l 192 390 q 304 606 304 443 l 304 615 q 218 708 290 708 q 106 436 106 708 m 3 1008 q 342 895 51 1042 l 267 835 l -13 956 l 3 1008 z "},"é":{"ha":439,"x_min":12,"x_max":397,"o":"m 218 783 q 368 633 368 739 l 368 606 q 180 315 368 396 l 117 315 l 117 296 q 200 61 117 127 l 229 61 q 379 211 282 61 l 387 203 l 397 203 q 210 -14 330 -14 q 31 371 100 -14 q 12 418 16 371 q 79 661 50 447 q 218 783 151 783 m 106 436 q 135 390 114 390 l 192 390 q 304 606 304 443 l 304 615 q 218 708 290 708 q 106 436 106 708 m 182 935 l 138 975 q 347 1150 332 1143 l 382 1116 l 182 935 z "},"ê":{"ha":439,"x_min":12,"x_max":427,"o":"m 218 783 q 368 633 368 739 l 368 606 q 180 315 368 396 l 117 315 l 117 296 q 200 61 117 127 l 229 61 q 379 211 282 61 l 387 203 l 397 203 q 210 -14 330 -14 q 31 371 100 -14 q 12 418 16 371 q 79 661 50 447 q 218 783 151 783 m 106 436 q 135 390 114 390 l 192 390 q 304 606 304 443 l 304 615 q 218 708 290 708 q 106 436 106 708 m 237 998 l 255 998 q 427 736 294 998 q 334 800 347 701 q 247 886 267 883 l 237 886 q 108 762 180 827 l 70 736 l 62 736 l 62 781 q 237 998 201 998 z "},"ë":{"ha":439,"x_min":12,"x_max":397,"o":"m 218 783 q 368 633 368 739 l 368 606 q 180 315 368 396 l 117 315 l 117 296 q 200 61 117 127 l 229 61 q 379 211 282 61 l 387 203 l 397 203 q 210 -14 330 -14 q 31 371 100 -14 q 12 418 16 371 q 79 661 50 447 q 218 783 151 783 m 106 436 q 135 390 114 390 l 192 390 q 304 606 304 443 l 304 615 q 218 708 290 708 q 106 436 106 708 m 81 960 l 109 960 l 150 907 q 100 842 150 873 q 41 907 59 860 l 81 960 m 293 967 l 321 967 l 361 914 q 311 849 361 880 q 252 914 271 867 l 293 967 z "},"ì":{"ha":193,"x_min":-121,"x_max":315,"o":"m 111 631 l 140 593 q 103 387 103 555 q 158 41 107 210 l 158 22 l 131 -7 l 103 -7 q 36 435 58 -7 q 93 631 36 631 l 111 631 m -121 1008 l -106 1019 q 236 832 -74 1042 l 293 815 l 315 783 q 107 837 244 743 q -50 921 -31 930 l -121 1008 m 111 631 l 140 593 q 103 387 103 555 q 158 41 107 210 l 158 22 l 131 -7 l 103 -7 q 36 435 58 -7 q 93 631 36 631 l 111 631 z "},"í":{"ha":193,"x_min":-132,"x_max":326,"o":"m 111 631 l 140 593 q 103 387 103 555 q 158 41 107 210 l 158 22 l 131 -7 l 103 -7 q 36 435 58 -7 q 93 631 36 631 l 111 631 m 253 943 q 86 869 231 951 q -132 823 -58 787 l -110 851 l -50 867 q 310 1031 277 1048 l 326 1019 l 253 943 z "},"î":{"ha":193,"x_min":-54,"x_max":325,"o":"m 111 631 l 140 593 q 103 387 103 555 q 158 41 107 210 l 158 22 l 131 -7 l 103 -7 q 36 435 58 -7 q 93 631 36 631 l 111 631 m 115 1092 l 134 1092 q 313 743 172 1092 l 325 710 q 218 810 231 710 q 125 979 146 975 l 115 979 q -7 772 58 920 l -45 743 l -54 743 l -54 791 q 115 1092 81 1092 z "},"ï":{"ha":193,"x_min":-64,"x_max":257,"o":"m 111 631 l 140 593 q 103 387 103 555 q 158 41 107 210 l 158 22 l 131 -7 l 103 -7 q 36 435 58 -7 q 93 631 36 631 l 111 631 m -24 861 l 5 861 l 46 808 q -4 743 46 774 q -64 808 -45 761 l -24 861 m 187 868 l 218 868 l 257 815 q 207 750 257 781 q 147 815 167 768 l 187 868 z "},"ð":{"ha":497,"x_min":62,"x_max":390,"o":"m 250 772 q 332 918 279 819 l 390 890 l 325 747 q 310 -12 623 425 q 62 294 92 -119 l 62 418 q 114 488 62 465 q 330 205 300 488 q 294 654 482 471 l 253 532 l 199 555 l 235 707 q 85 753 216 700 q 127 819 102 831 l 250 772 m 268 180 q 167 408 236 408 l 155 408 q 125 355 125 403 l 125 286 q 207 31 155 43 l 237 31 q 268 180 261 31 z "},"ñ":{"ha":432,"x_min":-104,"x_max":538,"o":"m 250 823 l 258 823 q 390 403 370 823 l 390 233 l 400 131 l 390 93 l 400 8 l 371 -9 q 325 56 325 3 l 325 366 q 258 721 325 693 l 250 721 q 127 309 150 669 l 127 46 l 138 8 q 100 -47 118 -47 q 43 -9 53 -47 l 53 243 l 25 665 l 25 721 l 62 758 q 100 730 100 745 l 90 590 l 100 581 l 118 581 q 250 823 118 718 m 534 1039 q 279 918 410 880 l 205 962 q 62 1116 78 1109 l 53 1118 q -48 1034 -7 1133 l -52 1003 l -104 1008 q 64 1186 -77 1168 l 92 1171 q 282 981 206 1003 l 296 978 q 517 1068 399 949 l 531 1064 l 538 1055 l 534 1039 z "},"ò":{"ha":375,"x_min":-45,"x_max":351,"o":"m 229 732 q 351 481 317 732 l 342 469 l 342 414 q 192 -18 318 -18 l 182 -26 l 172 -26 q 32 330 32 5 q 229 732 32 732 m 89 376 q 172 49 110 49 l 182 49 q 285 386 261 49 l 285 518 q 201 657 285 644 q 89 376 89 624 m -28 1008 q 311 895 19 1042 l 235 835 l -45 956 l -28 1008 z "},"ó":{"ha":375,"x_min":32,"x_max":351,"o":"m 229 732 q 351 481 317 732 l 342 469 l 342 414 q 192 -18 318 -18 l 182 -26 l 172 -26 q 32 330 32 5 q 229 732 32 732 m 89 376 q 172 49 110 49 l 182 49 q 285 386 261 49 l 285 518 q 201 657 285 644 q 89 376 89 624 m 150 935 l 106 975 q 315 1150 300 1143 l 350 1116 l 150 935 z "},"ô":{"ha":375,"x_min":32,"x_max":401,"o":"m 229 732 q 351 481 317 732 l 342 469 l 342 414 q 192 -18 318 -18 l 182 -26 l 172 -26 q 32 330 32 5 q 229 732 32 732 m 89 376 q 172 49 110 49 l 182 49 q 285 386 261 49 l 285 518 q 201 657 285 644 q 89 376 89 624 m 210 1004 l 229 1004 q 401 741 267 1004 q 308 805 320 707 q 220 891 241 888 l 210 891 q 81 768 153 833 l 43 741 l 35 741 l 35 787 q 210 1004 174 1004 z "},"õ":{"ha":375,"x_min":-41,"x_max":600,"o":"m 229 732 q 351 481 317 732 l 342 469 l 342 414 q 192 -18 318 -18 l 182 -26 l 172 -26 q 32 330 32 5 q 229 732 32 732 m 89 376 q 172 49 110 49 l 182 49 q 285 386 261 49 l 285 518 q 201 657 285 644 q 89 376 89 624 m 596 895 q 342 774 473 736 l 267 819 q 124 972 140 966 l 115 975 q 14 890 56 989 l 10 859 l -41 865 q 127 1042 -15 1024 l 155 1027 q 345 837 269 859 l 359 834 q 580 924 461 805 l 593 920 l 600 911 l 596 895 z "},"ö":{"ha":375,"x_min":32,"x_max":362,"o":"m 229 732 q 351 481 317 732 l 342 469 l 342 414 q 192 -18 318 -18 l 182 -26 l 172 -26 q 32 330 32 5 q 229 732 32 732 m 89 376 q 172 49 110 49 l 182 49 q 285 386 261 49 l 285 518 q 201 657 285 644 q 89 376 89 624 m 83 902 l 111 902 l 151 849 q 101 784 151 814 q 43 849 60 802 l 83 902 m 294 909 l 322 909 l 362 856 q 312 791 362 821 q 254 856 272 809 l 294 909 z "},"÷":{"ha":355,"x_min":34,"x_max":347,"o":"m 193 546 q 236 482 236 534 l 236 471 l 211 444 l 201 444 q 129 491 158 444 q 193 546 132 520 m 211 263 q 255 235 255 252 l 255 206 l 211 167 q 165 197 165 180 q 211 263 165 250 m 316 397 l 344 401 l 347 329 q 34 342 219 353 l 37 408 l 316 397 z "},"ø":{"ha":375,"x_min":15,"x_max":351,"o":"m 229 732 q 351 481 317 732 l 342 469 l 342 414 q 192 -18 318 -18 l 182 -26 l 172 -26 q 32 330 32 5 q 229 732 32 732 m 89 376 q 172 49 110 49 l 182 49 q 285 386 261 49 l 285 518 q 201 657 285 644 q 89 376 89 624 m 315 871 l 334 871 l 334 853 q 109 -28 240 334 q 90 -113 90 -28 l 64 -132 l 15 -122 l 15 -84 q 269 779 151 188 q 315 871 269 844 z "},"ù":{"ha":393,"x_min":-35,"x_max":371,"o":"m 353 693 l 371 673 l 353 599 l 353 570 l 361 494 q 203 -11 323 -11 q 24 468 79 -11 l 24 524 q 61 607 24 595 l 81 607 l 109 589 l 98 524 l 98 431 q 183 64 98 244 l 203 64 q 286 419 268 90 l 286 514 q 268 618 286 581 q 353 693 268 677 m -19 1008 q 320 895 28 1042 l 245 835 l -35 956 l -19 1008 z "},"ú":{"ha":393,"x_min":24,"x_max":371,"o":"m 353 693 l 371 673 l 353 599 l 353 570 l 361 494 q 203 -11 323 -11 q 24 468 79 -11 l 24 524 q 61 607 24 595 l 81 607 l 109 589 l 98 524 l 98 431 q 183 64 98 244 l 203 64 q 286 419 268 90 l 286 514 q 268 618 286 581 q 353 693 268 677 m 159 935 l 115 975 q 325 1150 309 1143 l 359 1116 l 159 935 z "},"û":{"ha":393,"x_min":10,"x_max":376,"o":"m 353 693 l 371 673 l 353 599 l 353 570 l 361 494 q 203 -11 323 -11 q 24 468 79 -11 l 24 524 q 61 607 24 595 l 81 607 l 109 589 l 98 524 l 98 431 q 183 64 98 244 l 203 64 q 286 419 268 90 l 286 514 q 268 618 286 581 q 353 693 268 677 m 185 1017 l 203 1017 q 376 755 242 1017 q 283 819 295 720 q 195 905 216 902 l 185 905 q 56 781 128 846 l 18 755 l 10 755 l 10 800 q 185 1017 149 1017 z "},"ü":{"ha":393,"x_min":24,"x_max":371,"o":"m 353 693 l 371 673 l 353 599 l 353 570 l 361 494 q 203 -11 323 -11 q 24 468 79 -11 l 24 524 q 61 607 24 595 l 81 607 l 109 589 l 98 524 l 98 431 q 183 64 98 244 l 203 64 q 286 419 268 90 l 286 514 q 268 618 286 581 q 353 693 268 677 m 91 876 l 119 876 l 159 823 q 109 758 159 788 q 51 823 68 775 l 91 876 m 302 882 l 330 882 l 370 829 q 320 764 370 795 q 262 829 280 783 l 302 882 z "},"ý":{"ha":465,"x_min":29,"x_max":422,"o":"m 355 693 l 385 693 l 422 656 q 404 553 404 618 l 404 486 l 393 243 l 404 233 l 404 224 l 393 131 q 329 -554 393 -554 l 292 -554 l 254 -507 q 310 -329 310 -464 q 338 393 338 -72 l 329 393 q 197 83 315 389 q 113 36 157 46 q 29 318 29 36 q 113 590 29 542 l 142 581 l 142 543 q 93 366 93 485 l 93 309 q 131 140 93 140 l 142 140 q 318 636 318 440 l 355 693 m 153 701 l 109 741 q 318 916 302 909 l 353 882 l 153 701 z "},"þ":{"ha":335,"x_min":11,"x_max":315,"o":"m 199 631 q 315 347 296 631 q 114 31 315 197 l 114 20 q 117 -175 114 -193 l 87 -195 l 79 -195 q 37 -100 22 -195 l 11 775 l 75 790 q 61 500 64 484 q 199 631 111 631 m 106 293 l 106 123 l 114 123 q 243 371 250 193 q 189 555 244 547 l 180 555 q 106 293 106 494 z "},"ÿ":{"ha":465,"x_min":29,"x_max":433,"o":"m 355 693 l 385 693 l 422 656 q 404 553 404 618 l 404 486 l 393 243 l 404 233 l 404 224 l 393 131 q 329 -554 393 -554 l 292 -554 l 254 -507 q 310 -329 310 -464 q 338 393 338 -72 l 329 393 q 197 83 315 389 q 113 36 157 46 q 29 318 29 36 q 113 590 29 542 l 142 581 l 142 543 q 93 366 93 485 l 93 309 q 131 140 93 140 l 142 140 q 318 636 318 440 l 355 693 m 153 902 l 181 902 l 222 849 q 172 784 222 814 q 113 849 131 802 l 153 902 m 365 909 l 393 909 l 433 856 q 382 791 433 821 q 324 856 342 809 l 365 909 z "},"Ā":{"ha":534,"x_min":14,"x_max":501,"o":"m 367 1153 q 472 220 468 1150 l 501 -81 l 454 -89 l 435 -89 l 407 -61 l 407 286 l 397 427 l 389 427 q 143 332 164 399 q 89 -14 107 -9 l 52 -14 l 14 24 q 164 811 60 380 q 367 1153 236 1166 m 174 492 l 220 456 q 407 519 407 497 l 407 689 l 416 811 l 393 905 q 338 1018 367 1018 q 174 492 278 1018 m 464 1264 l 492 1268 l 493 1198 q 180 1211 367 1221 l 185 1275 l 464 1264 z "},"ā":{"ha":475,"x_min":52,"x_max":435,"o":"m 285 739 l 314 739 l 342 720 l 332 581 q 416 82 358 82 l 435 82 l 435 74 q 397 7 435 22 l 359 7 q 294 214 322 7 l 285 214 q 117 -106 231 -106 q 52 93 52 -106 l 52 195 q 210 682 52 627 q 285 739 236 682 m 117 224 l 117 93 q 144 -11 117 -11 q 267 476 205 -11 l 267 486 q 239 618 260 618 l 210 618 q 117 224 117 618 m 363 921 l 391 925 l 393 854 q 80 868 267 878 l 85 932 l 363 921 z "},"Ă":{"ha":534,"x_min":14,"x_max":514,"o":"m 367 1153 q 472 220 468 1150 l 501 -81 l 454 -89 l 435 -89 l 407 -61 l 407 286 l 397 427 l 389 427 q 143 332 164 399 q 89 -14 107 -9 l 52 -14 l 14 24 q 164 811 60 380 q 367 1153 236 1166 m 174 492 l 220 456 q 407 519 407 497 l 407 689 l 416 811 l 393 905 q 338 1018 367 1018 q 174 492 278 1018 m 180 1350 l 207 1379 q 331 1257 292 1259 q 472 1398 371 1255 l 514 1390 q 180 1350 351 1024 z "},"ă":{"ha":475,"x_min":66,"x_max":456,"o":"m 306 795 l 335 795 l 363 775 l 353 636 q 437 138 379 138 l 456 138 l 456 130 q 418 62 456 78 l 380 62 q 315 269 343 62 l 306 269 q 138 -50 252 -50 q 73 149 73 -50 l 73 250 q 231 738 73 682 q 306 795 257 738 m 138 279 l 138 149 q 165 45 138 45 q 288 532 227 45 l 288 542 q 260 673 281 673 l 231 673 q 138 279 138 673 m 66 951 l 92 980 q 217 857 177 859 q 357 998 256 855 l 399 991 q 66 951 237 625 z "},"Ą":{"ha":534,"x_min":14,"x_max":562,"o":"m 367 1153 q 472 220 468 1150 l 501 -81 l 454 -89 l 435 -89 l 407 -61 l 407 286 l 397 427 l 389 427 q 143 332 164 399 q 89 -14 107 -9 l 52 -14 l 14 24 q 164 811 60 380 q 367 1153 236 1166 m 174 492 l 220 456 q 407 519 407 497 l 407 689 l 416 811 l 393 905 q 338 1018 367 1018 q 174 492 278 1018 m 450 -68 l 404 -182 q 453 -244 387 -280 q 518 -174 484 -244 l 562 -214 q 416 -319 502 -319 l 406 -319 q 340 -180 349 -312 q 400 -24 340 -154 l 450 -68 z "},"ą":{"ha":475,"x_min":52,"x_max":498,"o":"m 285 739 l 314 739 l 342 720 l 332 581 q 416 82 358 82 l 435 82 l 435 74 q 397 7 435 22 l 359 7 q 294 214 322 7 l 285 214 q 117 -106 231 -106 q 52 93 52 -106 l 52 195 q 210 682 52 627 q 285 739 236 682 m 117 224 l 117 93 q 144 -11 117 -11 q 267 476 205 -11 l 267 486 q 239 618 260 618 l 210 618 q 117 224 117 618 m 387 16 l 341 -98 q 390 -160 323 -196 q 455 -90 420 -160 l 498 -130 q 353 -235 439 -235 l 342 -235 q 277 -96 286 -228 q 337 60 277 -70 l 387 16 z "},"Ć":{"ha":496,"x_min":25,"x_max":500,"o":"m 443 1181 q 500 1143 500 1161 l 500 1124 q 415 1105 500 1105 q 197 833 256 1022 q 90 358 90 621 l 90 349 q 221 68 109 68 l 250 58 l 306 58 q 428 283 359 82 l 456 283 l 456 273 q 288 -17 407 -17 q 33 218 129 -17 l 25 311 q 245 1031 25 717 q 443 1181 368 1181 m 275 1133 l 231 1174 q 440 1349 425 1342 l 475 1314 l 275 1133 z "},"ć":{"ha":439,"x_min":12,"x_max":397,"o":"m 248 818 l 275 808 l 275 790 q 87 443 87 664 l 79 358 l 79 237 q 218 50 79 93 q 359 143 330 50 l 387 143 l 397 115 q 248 -17 397 14 q 41 134 96 -17 q 12 275 12 210 l 12 340 q 154 771 12 614 l 248 818 m 140 935 l 96 975 q 306 1150 290 1143 l 340 1116 l 140 935 z "},"Ĉ":{"ha":496,"x_min":25,"x_max":588,"o":"m 443 1181 q 500 1143 500 1161 l 500 1124 q 415 1105 500 1105 q 197 833 256 1022 q 90 358 90 621 l 90 349 q 221 68 109 68 l 250 58 l 306 58 q 428 283 359 82 l 456 283 l 456 273 q 288 -17 407 -17 q 33 218 129 -17 l 25 311 q 245 1031 25 717 q 443 1181 368 1181 m 397 1449 l 416 1449 q 588 1186 454 1449 q 495 1250 507 1152 q 408 1336 428 1333 l 397 1336 q 269 1213 340 1278 l 231 1186 l 222 1186 l 222 1232 q 397 1449 361 1449 z "},"ĉ":{"ha":439,"x_min":12,"x_max":397,"o":"m 248 818 l 275 808 l 275 790 q 87 443 87 664 l 79 358 l 79 237 q 218 50 79 93 q 359 143 330 50 l 387 143 l 397 115 q 248 -17 397 14 q 41 134 96 -17 q 12 275 12 210 l 12 340 q 154 771 12 614 l 248 818 m 192 1181 l 210 1181 q 382 918 249 1181 q 290 982 302 884 q 202 1068 222 1065 l 192 1068 q 63 945 135 1010 l 25 918 l 17 918 l 17 964 q 192 1181 156 1181 z "},"Ċ":{"ha":496,"x_min":25,"x_max":500,"o":"m 443 1181 q 500 1143 500 1161 l 500 1124 q 415 1105 500 1105 q 197 833 256 1022 q 90 358 90 621 l 90 349 q 221 68 109 68 l 250 58 l 306 58 q 428 283 359 82 l 456 283 l 456 273 q 288 -17 407 -17 q 33 218 129 -17 l 25 311 q 245 1031 25 717 q 443 1181 368 1181 m 364 1340 q 428 1278 422 1315 l 428 1240 q 382 1190 410 1190 q 307 1265 326 1190 q 364 1340 307 1303 z "},"ċ":{"ha":439,"x_min":12,"x_max":397,"o":"m 248 818 l 275 808 l 275 790 q 87 443 87 664 l 79 358 l 79 237 q 218 50 79 93 q 359 143 330 50 l 387 143 l 397 115 q 248 -17 397 14 q 41 134 96 -17 q 12 275 12 210 l 12 340 q 154 771 12 614 l 248 818 m 216 1099 q 279 1036 274 1074 l 279 999 q 233 949 261 949 q 159 1023 178 949 q 216 1099 159 1061 z "},"Č":{"ha":496,"x_min":25,"x_max":541,"o":"m 443 1181 q 500 1143 500 1161 l 500 1124 q 415 1105 500 1105 q 197 833 256 1022 q 90 358 90 621 l 90 349 q 221 68 109 68 l 250 58 l 306 58 q 428 283 359 82 l 456 283 l 456 273 q 288 -17 407 -17 q 33 218 129 -17 l 25 311 q 245 1031 25 717 q 443 1181 368 1181 m 366 1206 q 228 1360 331 1206 l 228 1400 l 238 1400 l 275 1375 q 366 1304 363 1314 l 377 1304 q 435 1345 397 1309 q 541 1432 448 1432 l 528 1402 q 385 1206 424 1206 l 366 1206 z "},"č":{"ha":439,"x_min":12,"x_max":397,"o":"m 248 818 l 275 808 l 275 790 q 87 443 87 664 l 79 358 l 79 237 q 218 50 79 93 q 359 143 330 50 l 387 143 l 397 115 q 248 -17 397 14 q 41 134 96 -17 q 12 275 12 210 l 12 340 q 154 771 12 614 l 248 818 m 192 925 q 54 1079 157 925 l 54 1120 l 64 1120 l 102 1095 q 192 1023 189 1034 l 203 1023 q 262 1064 224 1028 q 367 1152 274 1152 l 355 1121 q 212 925 250 925 l 192 925 z "},"Ď":{"ha":496,"x_min":5,"x_max":493,"o":"m 175 1200 q 306 1105 243 1105 q 493 796 493 1003 q 107 43 519 482 q 52 -50 93 -50 q 14 -4 14 -50 l 5 -4 l 61 231 q 100 975 81 518 l 100 1078 q 175 1200 100 1200 m 118 165 l 126 165 q 410 608 289 262 l 429 768 l 429 825 q 222 1059 393 1059 q 155 928 155 1059 l 118 165 m 267 1208 q 130 1362 233 1208 l 130 1403 l 140 1403 l 177 1378 q 267 1307 264 1317 l 279 1307 q 337 1348 299 1312 q 442 1435 349 1435 l 430 1404 q 287 1208 326 1208 l 267 1208 z "},"ď":{"ha":685,"x_min":39,"x_max":608,"o":"m 349 1035 q 414 989 401 1035 l 395 922 q 437 -7 418 -29 l 407 -29 q 366 -12 368 -12 l 357 379 l 349 389 l 339 389 q 170 -5 282 -5 l 151 -5 q 39 220 39 -5 q 199 539 39 383 q 330 642 330 570 l 330 772 l 311 989 q 349 1035 329 1031 m 114 257 l 114 164 q 161 69 114 92 l 170 69 q 301 482 225 69 l 293 492 l 256 492 q 114 257 114 406 m 608 1051 q 521 798 540 818 l 513 798 l 492 827 q 513 901 492 865 q 572 1107 547 1107 q 608 1051 608 1089 z "},"Đ":{"ha":496,"x_min":-35,"x_max":493,"o":"m 175 1200 q 306 1105 243 1105 q 493 796 493 1003 q 107 43 519 482 q 52 -50 93 -50 q 14 -4 14 -50 l 5 -4 l 61 231 q 100 975 81 518 l 100 1078 q 175 1200 100 1200 m 118 165 l 126 165 q 410 608 289 262 l 429 768 l 429 825 q 222 1059 393 1059 q 155 928 155 1059 l 118 165 m 249 732 l 277 736 l 278 666 q -35 680 152 689 l -30 743 l 249 732 z "},"đ":{"ha":441,"x_min":39,"x_max":621,"o":"m 349 1035 q 414 989 401 1035 l 395 922 q 437 -7 418 -29 l 407 -29 q 366 -12 368 -12 l 357 379 l 349 389 l 339 389 q 170 -5 282 -5 l 151 -5 q 39 220 39 -5 q 199 539 39 383 q 330 642 330 570 l 330 772 l 311 989 q 349 1035 329 1031 m 114 257 l 114 164 q 161 69 114 92 l 170 69 q 301 482 225 69 l 293 492 l 256 492 q 114 257 114 406 m 583 868 l 592 868 l 621 840 l 621 812 q 217 747 370 785 l 179 775 l 179 822 l 583 868 z "},"Ē":{"ha":498,"x_min":29,"x_max":447,"o":"m 318 1181 q 366 1152 366 1168 l 366 1124 q 149 1054 366 1095 l 142 726 l 142 679 q 168 660 142 660 l 347 679 l 355 669 l 355 660 q 142 585 355 623 l 104 172 l 104 154 q 179 52 104 52 l 431 154 l 447 97 q 150 -24 460 83 q 29 164 58 -24 l 75 567 l 47 614 q 85 726 85 685 l 75 964 q 56 1057 75 1057 q 318 1181 56 1132 m 371 1263 l 399 1267 l 400 1196 q 87 1210 274 1219 l 92 1274 l 371 1263 z "},"ē":{"ha":439,"x_min":12,"x_max":397,"o":"m 218 783 q 368 633 368 739 l 368 606 q 180 315 368 396 l 117 315 l 117 296 q 200 61 117 127 l 229 61 q 379 211 282 61 l 387 203 l 397 203 q 210 -14 330 -14 q 31 371 100 -14 q 12 418 16 371 q 79 661 50 447 q 218 783 151 783 m 106 436 q 135 390 114 390 l 192 390 q 304 606 304 443 l 304 615 q 218 708 290 708 q 106 436 106 708 m 347 921 l 374 925 l 376 854 q 63 868 250 878 l 68 932 l 347 921 z "},"Ĕ":{"ha":498,"x_min":29,"x_max":447,"o":"m 318 1181 q 366 1152 366 1168 l 366 1124 q 149 1054 366 1095 l 142 726 l 142 679 q 168 660 142 660 l 347 679 l 355 669 l 355 660 q 142 585 355 623 l 104 172 l 104 154 q 179 52 104 52 l 431 154 l 447 97 q 150 -24 460 83 q 29 164 58 -24 l 75 567 l 47 614 q 85 726 85 685 l 75 964 q 56 1057 75 1057 q 318 1181 56 1132 m 38 1346 l 64 1375 q 189 1253 149 1255 q 330 1394 229 1251 l 372 1386 q 38 1346 209 1020 z "},"ĕ":{"ha":439,"x_min":12,"x_max":411,"o":"m 218 783 q 368 633 368 739 l 368 606 q 180 315 368 396 l 117 315 l 117 296 q 200 61 117 127 l 229 61 q 379 211 282 61 l 387 203 l 397 203 q 210 -14 330 -14 q 31 371 100 -14 q 12 418 16 371 q 79 661 50 447 q 218 783 151 783 m 106 436 q 135 390 114 390 l 192 390 q 304 606 304 443 l 304 615 q 218 708 290 708 q 106 436 106 708 m 77 975 l 104 1004 q 228 881 189 883 q 369 1022 268 879 l 411 1015 q 77 975 248 648 z "},"Ė":{"ha":498,"x_min":29,"x_max":447,"o":"m 318 1181 q 366 1152 366 1168 l 366 1124 q 149 1054 366 1095 l 142 726 l 142 679 q 168 660 142 660 l 347 679 l 355 669 l 355 660 q 142 585 355 623 l 104 172 l 104 154 q 179 52 104 52 l 431 154 l 447 97 q 150 -24 460 83 q 29 164 58 -24 l 75 567 l 47 614 q 85 726 85 685 l 75 964 q 56 1057 75 1057 q 318 1181 56 1132 m 195 1325 q 258 1263 253 1300 l 258 1225 q 212 1175 240 1175 q 138 1250 157 1175 q 195 1325 138 1288 z "},"ė":{"ha":439,"x_min":12,"x_max":397,"o":"m 218 783 q 368 633 368 739 l 368 606 q 180 315 368 396 l 117 315 l 117 296 q 200 61 117 127 l 229 61 q 379 211 282 61 l 387 203 l 397 203 q 210 -14 330 -14 q 31 371 100 -14 q 12 418 16 371 q 79 661 50 447 q 218 783 151 783 m 106 436 q 135 390 114 390 l 192 390 q 304 606 304 443 l 304 615 q 218 708 290 708 q 106 436 106 708 m 216 1099 q 279 1036 274 1074 l 279 999 q 233 949 261 949 q 159 1023 178 949 q 216 1099 159 1061 z "},"Ę":{"ha":498,"x_min":29,"x_max":447,"o":"m 318 1181 q 366 1152 366 1168 l 366 1124 q 149 1054 366 1095 l 142 726 l 142 679 q 168 660 142 660 l 347 679 l 355 669 l 355 660 q 142 585 355 623 l 104 172 l 104 154 q 179 52 104 52 l 431 154 l 447 97 q 150 -24 460 83 q 29 164 58 -24 l 75 567 l 47 614 q 85 726 85 685 l 75 964 q 56 1057 75 1057 q 318 1181 56 1132 m 278 32 l 232 -82 q 281 -144 214 -180 q 346 -75 311 -144 l 389 -114 q 243 -219 330 -219 l 233 -219 q 168 -81 176 -212 q 228 75 168 -54 l 278 32 z "},"ę":{"ha":439,"x_min":12,"x_max":397,"o":"m 218 783 q 368 633 368 739 l 368 606 q 180 315 368 396 l 117 315 l 117 296 q 200 61 117 127 l 229 61 q 379 211 282 61 l 387 203 l 397 203 q 210 -14 330 -14 q 31 371 100 -14 q 12 418 16 371 q 79 661 50 447 q 218 783 151 783 m 106 436 q 135 390 114 390 l 192 390 q 304 606 304 443 l 304 615 q 218 708 290 708 q 106 436 106 708 m 286 7 l 240 -107 q 289 -170 222 -205 q 354 -100 319 -170 l 397 -139 q 252 -244 338 -244 l 241 -244 q 176 -106 184 -237 q 236 50 176 -79 l 286 7 z "},"Ě":{"ha":498,"x_min":29,"x_max":447,"o":"m 318 1181 q 366 1152 366 1168 l 366 1124 q 149 1054 366 1095 l 142 726 l 142 679 q 168 660 142 660 l 347 679 l 355 669 l 355 660 q 142 585 355 623 l 104 172 l 104 154 q 179 52 104 52 l 431 154 l 447 97 q 150 -24 460 83 q 29 164 58 -24 l 75 567 l 47 614 q 85 726 85 685 l 75 964 q 56 1057 75 1057 q 318 1181 56 1132 m 201 1207 q 63 1361 166 1207 l 63 1402 l 73 1402 l 111 1377 q 201 1305 198 1316 l 212 1305 q 271 1346 233 1310 q 376 1434 283 1434 l 363 1403 q 220 1207 259 1207 l 201 1207 z "},"ě":{"ha":439,"x_min":12,"x_max":397,"o":"m 218 783 q 368 633 368 739 l 368 606 q 180 315 368 396 l 117 315 l 117 296 q 200 61 117 127 l 229 61 q 379 211 282 61 l 387 203 l 397 203 q 210 -14 330 -14 q 31 371 100 -14 q 12 418 16 371 q 79 661 50 447 q 218 783 151 783 m 106 436 q 135 390 114 390 l 192 390 q 304 606 304 443 l 304 615 q 218 708 290 708 q 106 436 106 708 m 202 812 q 64 966 168 812 l 64 1006 l 75 1006 l 112 981 q 202 910 199 920 l 214 910 q 272 951 234 915 q 377 1038 284 1038 l 365 1008 q 222 812 260 812 l 202 812 z "},"Ĝ":{"ha":532,"x_min":24,"x_max":599,"o":"m 458 1178 q 505 1150 505 1166 l 505 1121 q 164 856 220 1121 q 89 489 89 616 l 89 301 q 249 31 126 31 q 361 469 361 218 l 361 518 q 249 668 361 627 l 239 694 q 427 770 239 761 q 473 724 452 770 l 407 648 l 427 526 q 239 -45 380 -45 q 24 319 24 54 l 24 395 q 215 1075 24 794 q 458 1178 329 1178 m 408 1422 l 427 1422 q 599 1160 465 1422 q 506 1223 518 1125 q 418 1310 439 1307 l 408 1310 q 279 1186 351 1251 l 241 1160 l 233 1160 l 233 1205 q 408 1422 372 1422 z "},"ĝ":{"ha":472,"x_min":17,"x_max":562,"o":"m 400 755 l 418 755 l 447 728 l 447 681 q 380 371 380 555 l 392 -182 q 260 -604 392 -604 q 212 -623 260 -623 q 100 -519 100 -599 l 100 -510 l 118 -510 q 222 -557 180 -557 q 325 -248 325 -557 l 325 211 l 317 278 l 297 278 q 92 16 227 16 l 81 16 q 17 155 49 20 q 193 653 17 437 l 335 708 q 400 755 335 755 m 92 268 l 92 118 q 129 90 92 90 q 317 541 205 90 l 317 624 q 100 343 157 624 l 92 268 m 371 1017 l 389 1017 q 562 755 428 1017 q 469 819 481 720 q 381 905 401 902 l 371 905 q 242 781 314 846 l 204 755 l 196 755 l 196 800 q 371 1017 335 1017 z "},"Ğ":{"ha":532,"x_min":24,"x_max":505,"o":"m 458 1178 q 505 1150 505 1166 l 505 1121 q 164 856 220 1121 q 89 489 89 616 l 89 301 q 249 31 126 31 q 361 469 361 218 l 361 518 q 249 668 361 627 l 239 694 q 427 770 239 761 q 473 724 452 770 l 407 648 l 427 526 q 239 -45 380 -45 q 24 319 24 54 l 24 395 q 215 1075 24 794 q 458 1178 329 1178 m 104 1299 l 130 1328 q 255 1205 215 1207 q 395 1346 294 1203 l 437 1339 q 104 1299 275 972 z "},"ğ":{"ha":472,"x_min":17,"x_max":447,"o":"m 400 755 l 418 755 l 447 728 l 447 681 q 380 371 380 555 l 392 -182 q 260 -604 392 -604 q 212 -623 260 -623 q 100 -519 100 -599 l 100 -510 l 118 -510 q 222 -557 180 -557 q 325 -248 325 -557 l 325 211 l 317 278 l 297 278 q 92 16 227 16 l 81 16 q 17 155 49 20 q 193 653 17 437 l 335 708 q 400 755 335 755 m 92 268 l 92 118 q 129 90 92 90 q 317 541 205 90 l 317 624 q 100 343 157 624 l 92 268 m 94 899 l 121 928 q 245 806 205 808 q 386 947 285 804 l 428 939 q 94 899 265 573 z "},"Ġ":{"ha":532,"x_min":24,"x_max":505,"o":"m 458 1178 q 505 1150 505 1166 l 505 1121 q 164 856 220 1121 q 89 489 89 616 l 89 301 q 249 31 126 31 q 361 469 361 218 l 361 518 q 249 668 361 627 l 239 694 q 427 770 239 761 q 473 724 452 770 l 407 648 l 427 526 q 239 -45 380 -45 q 24 319 24 54 l 24 395 q 215 1075 24 794 q 458 1178 329 1178 m 299 1350 q 363 1288 357 1325 l 363 1251 q 317 1200 345 1200 q 242 1275 261 1200 q 299 1350 242 1313 z "},"ġ":{"ha":472,"x_min":17,"x_max":447,"o":"m 400 755 l 418 755 l 447 728 l 447 681 q 380 371 380 555 l 392 -182 q 260 -604 392 -604 q 212 -623 260 -623 q 100 -519 100 -599 l 100 -510 l 118 -510 q 222 -557 180 -557 q 325 -248 325 -557 l 325 211 l 317 278 l 297 278 q 92 16 227 16 l 81 16 q 17 155 49 20 q 193 653 17 437 l 335 708 q 400 755 335 755 m 92 268 l 92 118 q 129 90 92 90 q 317 541 205 90 l 317 624 q 100 343 157 624 l 92 268 m 232 1099 q 296 1036 290 1074 l 296 999 q 250 949 277 949 q 175 1023 194 949 q 232 1099 175 1061 z "},"Ģ":{"ha":532,"x_min":24,"x_max":505,"o":"m 458 1178 q 505 1150 505 1166 l 505 1121 q 164 856 220 1121 q 89 489 89 616 l 89 301 q 249 31 126 31 q 361 469 361 218 l 361 518 q 249 668 361 627 l 239 694 q 427 770 239 761 q 473 724 452 770 l 407 648 l 427 526 q 239 -45 380 -45 q 24 319 24 54 l 24 395 q 215 1075 24 794 q 458 1178 329 1178 m 265 -74 q 207 -338 353 -204 l 199 -338 q 179 -310 179 -338 q 232 -94 294 -155 l 265 -74 z "},"ģ":{"ha":472,"x_min":17,"x_max":447,"o":"m 400 755 l 418 755 l 447 728 l 447 681 q 380 371 380 555 l 392 -182 q 260 -604 392 -604 q 212 -623 260 -623 q 100 -519 100 -599 l 100 -510 l 118 -510 q 222 -557 180 -557 q 325 -248 325 -557 l 325 211 l 317 278 l 297 278 q 92 16 227 16 l 81 16 q 17 155 49 20 q 193 653 17 437 l 335 708 q 400 755 335 755 m 92 268 l 92 118 q 129 90 92 90 q 317 541 205 90 l 317 624 q 100 343 157 624 l 92 268 m 404 1103 q 317 849 336 869 l 309 849 l 288 878 q 309 953 288 917 q 368 1158 343 1158 q 404 1103 404 1141 z "},"Ĥ":{"ha":522,"x_min":-7,"x_max":510,"o":"m 172 1152 l 180 1152 l 218 1114 l 218 1095 q 123 562 168 1095 l 153 553 q 378 590 378 570 q 435 1095 399 1095 l 463 1105 q 510 1076 510 1093 q 433 478 454 979 q 368 -37 421 -37 l 358 -37 l 330 -9 l 358 262 l 349 262 l 358 271 l 358 366 l 368 505 l 358 515 q 106 440 106 497 l 68 18 l 68 -37 l 31 -66 q 3 -29 3 -66 l -7 -29 l 49 468 l 31 525 q 97 964 75 525 q 172 1152 139 1152 m 249 1407 l 267 1407 q 439 1145 306 1407 q 347 1208 359 1110 q 259 1295 279 1292 l 249 1295 q 120 1171 192 1236 l 82 1145 l 74 1145 l 74 1190 q 249 1407 213 1407 z "},"ĥ":{"ha":488,"x_min":5,"x_max":563,"o":"m 62 1117 l 90 1117 l 118 1089 l 118 1079 l 100 1004 l 100 939 l 118 469 l 127 441 l 146 441 q 334 676 208 676 q 437 160 424 676 l 456 57 l 428 9 q 371 104 379 9 l 371 170 q 296 591 371 591 q 155 142 180 547 q 175 9 161 9 q 138 -36 155 -32 l 109 -36 q 62 39 62 -9 l 81 85 q 5 1051 41 1051 q 62 1117 21 1093 m 372 997 l 391 997 q 563 734 429 997 q 470 798 482 700 q 382 884 403 882 l 372 884 q 243 761 315 826 l 205 734 l 197 734 l 197 780 q 372 997 336 997 z "},"ħ":{"ha":488,"x_min":-52,"x_max":456,"o":"m 62 1117 l 90 1117 l 118 1089 l 118 1079 l 100 1004 l 100 939 l 118 469 l 127 441 l 146 441 q 334 676 208 676 q 437 160 424 676 l 456 57 l 428 9 q 371 104 379 9 l 371 170 q 296 591 371 591 q 155 142 180 547 q 175 9 161 9 q 138 -36 155 -32 l 109 -36 q 62 39 62 -9 l 81 85 q 5 1051 41 1051 q 62 1117 21 1093 m 231 787 l 259 791 l 260 720 q -52 734 134 743 l -47 798 l 231 787 z "},"Ĩ":{"ha":228,"x_min":32,"x_max":518,"o":"m 178 1095 q 212 987 231 1125 q 155 615 193 850 q 117 102 117 380 l 135 45 l 135 26 l 89 -11 q 32 56 49 -11 q 91 581 52 78 q 158 1084 131 1084 l 178 1084 l 178 1095 m 515 1147 q 328 1038 424 1004 l 274 1078 q 169 1216 181 1211 l 162 1219 q 88 1142 119 1232 l 85 1115 l 47 1119 q 171 1280 67 1263 l 191 1266 q 330 1094 275 1115 l 341 1092 q 503 1173 416 1066 l 513 1170 l 518 1162 l 515 1147 z "},"ĩ":{"ha":193,"x_min":-224,"x_max":418,"o":"m 111 631 l 140 593 q 103 387 103 555 q 158 41 107 210 l 158 22 l 131 -7 l 103 -7 q 36 435 58 -7 q 93 631 36 631 l 111 631 m 414 1039 q 160 918 290 880 l 85 962 q -58 1116 -41 1109 l -66 1118 q -168 1034 -126 1133 l -172 1003 l -224 1008 q -56 1186 -197 1168 l -28 1171 q 163 981 86 1003 l 176 978 q 397 1068 279 949 l 411 1064 l 418 1055 l 414 1039 z "},"Ī":{"ha":228,"x_min":32,"x_max":352,"o":"m 178 1095 q 212 987 231 1125 q 155 615 193 850 q 117 102 117 380 l 135 45 l 135 26 l 89 -11 q 32 56 49 -11 q 91 581 52 78 q 158 1084 131 1084 l 178 1084 l 178 1095 m 323 1214 l 351 1218 l 352 1147 q 39 1161 226 1171 l 44 1225 l 323 1214 z "},"ī":{"ha":193,"x_min":-60,"x_max":253,"o":"m 111 631 l 140 593 q 103 387 103 555 q 158 41 107 210 l 158 22 l 131 -7 l 103 -7 q 36 435 58 -7 q 93 631 36 631 l 111 631 m 224 921 l 252 925 l 253 854 q -60 868 126 878 l -56 932 l 224 921 z "},"Ĭ":{"ha":228,"x_min":32,"x_max":401,"o":"m 178 1095 q 212 987 231 1125 q 155 615 193 850 q 117 102 117 380 l 135 45 l 135 26 l 89 -11 q 32 56 49 -11 q 91 581 52 78 q 158 1084 131 1084 l 178 1084 l 178 1095 m 68 1275 l 94 1304 q 219 1181 179 1183 q 359 1322 258 1179 l 401 1315 q 68 1275 239 949 z "},"ĭ":{"ha":193,"x_min":-45,"x_max":289,"o":"m 111 631 l 140 593 q 103 387 103 555 q 158 41 107 210 l 158 22 l 131 -7 l 103 -7 q 36 435 58 -7 q 93 631 36 631 l 111 631 m -45 869 l -18 899 q 106 776 66 778 q 248 917 146 774 l 289 909 q -45 869 126 543 z "},"Į":{"ha":228,"x_min":-20,"x_max":212,"o":"m 178 1095 q 212 987 231 1125 q 155 615 193 850 q 117 102 117 380 l 135 45 l 135 26 l 89 -11 q 32 56 49 -11 q 91 581 52 78 q 158 1084 131 1084 l 178 1084 l 178 1095 m 90 2 l 43 -112 q 92 -174 26 -210 q 157 -104 123 -174 l 201 -144 q 55 -249 141 -249 l 45 -249 q -20 -111 -12 -242 q 39 45 -20 -84 l 90 2 z "},"į":{"ha":193,"x_min":22,"x_max":243,"o":"m 111 875 q 178 838 147 875 q 111 772 178 810 q 65 818 86 772 q 111 875 83 869 m 111 631 l 140 593 q 103 387 103 555 q 158 41 107 210 l 158 22 l 131 -7 l 103 -7 q 36 435 58 -7 q 93 631 36 631 l 111 631 m 132 26 l 85 -87 q 134 -150 68 -186 q 199 -80 165 -150 l 243 -119 q 97 -224 183 -224 l 87 -224 q 22 -86 30 -218 q 81 70 22 -60 l 132 26 z "},"İ":{"ha":228,"x_min":32,"x_max":248,"o":"m 178 1095 q 212 987 231 1125 q 155 615 193 850 q 117 102 117 380 l 135 45 l 135 26 l 89 -11 q 32 56 49 -11 q 91 581 52 78 q 158 1084 131 1084 l 178 1084 l 178 1095 m 184 1279 q 248 1217 242 1254 l 248 1179 q 201 1129 229 1129 q 127 1204 146 1129 q 184 1279 127 1242 z "},"ı":{"ha":193,"x_min":36,"x_max":158,"o":"m 111 631 l 140 593 q 103 387 103 555 q 158 41 107 210 l 158 22 l 131 -7 l 103 -7 q 36 435 58 -7 q 93 631 36 631 l 111 631 z "},"Ĵ":{"ha":401,"x_min":20,"x_max":526,"o":"m 351 1203 l 370 1203 l 359 1100 l 357 608 q 197 18 335 18 q 114 0 197 0 q 20 131 20 17 l 29 168 l 57 168 q 114 65 79 65 l 170 65 q 301 637 281 65 l 301 646 l 304 1100 q 351 1203 322 1203 m 336 1389 l 354 1389 q 526 1126 393 1389 q 433 1190 446 1092 q 346 1276 366 1274 l 336 1276 q 207 1153 279 1218 l 169 1126 l 161 1126 l 161 1172 q 336 1389 300 1389 z "},"ĵ":{"ha":283,"x_min":-110,"x_max":289,"o":"m 125 656 l 153 629 l 143 505 q 208 -158 208 1 l 208 -207 q -7 -694 208 -694 q -110 -545 -110 -640 l -110 -488 l -92 -488 l -25 -619 l -17 -628 l 3 -628 q 153 -140 153 -628 q 58 610 125 321 q 125 656 72 656 m 98 932 l 117 932 q 289 669 155 932 q 196 733 208 635 q 109 819 129 817 l 98 819 q -31 696 41 761 l -68 669 l -77 669 l -77 715 q 98 932 62 932 z "},"Ķ":{"ha":472,"x_min":21,"x_max":509,"o":"m 125 1143 q 163 1105 155 1133 l 143 965 l 143 478 l 171 478 q 396 1021 396 872 q 471 1059 436 1059 l 509 1011 q 208 411 443 921 l 208 383 q 425 36 289 36 l 425 -1 l 378 -9 q 153 318 265 -9 l 143 318 l 96 -85 l 87 -94 l 50 -94 q 21 -57 26 -94 q 87 599 54 -57 l 78 1116 l 125 1143 m 236 -74 q 178 -338 323 -204 l 170 -338 q 150 -310 150 -338 q 203 -94 265 -155 l 236 -74 z "},"ķ":{"ha":496,"x_min":7,"x_max":476,"o":"m 54 1010 q 102 972 96 993 l 82 869 l 102 476 l 110 476 q 279 729 176 526 l 289 739 l 307 739 l 345 701 l 345 682 q 129 354 129 393 l 129 345 q 410 45 129 231 l 419 45 l 476 64 l 476 26 q 419 -21 458 -7 q 129 204 335 -3 l 119 195 l 119 139 q 147 45 123 69 q 110 -11 129 -11 l 92 -11 l 45 35 l 54 102 l 54 176 q 35 335 54 335 l 45 372 l 17 954 l 7 954 q 54 1010 7 971 m 247 -74 q 189 -338 334 -204 l 180 -338 q 161 -310 161 -338 q 214 -94 276 -155 l 247 -74 z "},"Ĺ":{"ha":482,"x_min":47,"x_max":486,"o":"m 165 1174 l 203 1145 l 174 1014 l 179 736 l 179 596 q 142 98 179 375 l 142 90 l 160 71 l 329 71 l 422 98 l 441 71 q 93 -14 441 -14 q 56 24 56 -14 l 47 24 q 122 596 122 218 l 118 1136 q 165 1174 127 1174 m 286 930 l 242 970 q 452 1145 436 1139 l 486 1111 l 286 930 z "},"ĺ":{"ha":196,"x_min":-33,"x_max":212,"o":"m 102 1095 l 134 1103 l 126 932 l 123 779 l 131 340 l 122 153 l 142 40 q 93 -17 142 22 l 47 21 q 66 218 66 69 l 66 236 l 81 1064 q 102 1095 97 1095 m 12 1068 l -33 1109 q 177 1284 161 1277 l 212 1249 l 12 1068 z "},"Ļ":{"ha":482,"x_min":47,"x_max":441,"o":"m 165 1174 l 203 1145 l 174 1014 l 179 736 l 179 596 q 142 98 179 375 l 142 90 l 160 71 l 329 71 l 422 98 l 441 71 q 93 -14 441 -14 q 56 24 56 -14 l 47 24 q 122 596 122 218 l 118 1136 q 165 1174 127 1174 m 240 -74 q 182 -338 328 -204 l 174 -338 q 154 -310 154 -338 q 207 -94 269 -155 l 240 -74 z "},"ļ":{"ha":196,"x_min":13,"x_max":142,"o":"m 102 1095 l 134 1103 l 126 932 l 123 779 l 131 340 l 122 153 l 142 40 q 93 -17 142 22 l 47 21 q 66 218 66 69 l 66 236 l 81 1064 q 102 1095 97 1095 m 99 -74 q 41 -338 186 -204 l 33 -338 q 13 -310 13 -338 q 66 -94 128 -155 l 99 -74 z "},"Ľ":{"ha":482,"x_min":47,"x_max":441,"o":"m 165 1174 l 203 1145 l 174 1014 l 179 736 l 179 596 q 142 98 179 375 l 142 90 l 160 71 l 329 71 l 422 98 l 441 71 q 93 -14 441 -14 q 56 24 56 -14 l 47 24 q 122 596 122 218 l 118 1136 q 165 1174 127 1174 m 410 1247 q 322 994 341 1014 l 315 994 l 293 1023 q 315 1097 293 1061 q 374 1303 349 1303 q 410 1247 410 1285 z "},"ľ":{"ha":319,"x_min":47,"x_max":278,"o":"m 102 1095 l 134 1103 l 126 932 l 123 779 l 131 340 l 122 153 l 142 40 q 93 -17 142 22 l 47 21 q 66 218 66 69 l 66 236 l 81 1064 q 102 1095 97 1095 m 278 1286 q 191 1032 210 1053 l 183 1032 l 161 1061 q 183 1136 161 1100 q 242 1341 217 1341 q 278 1286 278 1324 z "},"Ŀ":{"ha":482,"x_min":47,"x_max":441,"o":"m 165 1174 l 203 1145 l 174 1014 l 179 736 l 179 596 q 142 98 179 375 l 142 90 l 160 71 l 329 71 l 422 98 l 441 71 q 93 -14 441 -14 q 56 24 56 -14 l 47 24 q 122 596 122 218 l 118 1136 q 165 1174 127 1174 m 301 416 q 362 367 350 425 q 311 310 347 301 q 271 370 281 325 q 301 416 271 393 z "},"ŀ":{"ha":436,"x_min":47,"x_max":353,"o":"m 102 1095 l 134 1103 l 126 932 l 123 779 l 131 340 l 122 153 l 142 40 q 93 -17 142 22 l 47 21 q 66 218 66 69 l 66 236 l 81 1064 q 102 1095 97 1095 m 292 416 q 353 367 340 425 q 302 310 338 301 q 261 370 271 325 q 292 416 261 393 z "},"Ł":{"ha":482,"x_min":-65,"x_max":441,"o":"m 165 1174 l 203 1145 l 174 1014 l 179 736 l 179 596 q 142 98 179 375 l 142 90 l 160 71 l 329 71 l 422 98 l 441 71 q 93 -14 441 -14 q 56 24 56 -14 l 47 24 q 122 596 122 218 l 118 1136 q 165 1174 127 1174 m 339 573 l 348 573 l 377 545 l 377 517 q -27 452 125 490 l -65 480 l -65 527 l 339 573 z "},"ł":{"ha":196,"x_min":-123,"x_max":319,"o":"m 102 1095 l 134 1103 l 126 932 l 123 779 l 131 340 l 122 153 l 142 40 q 93 -17 142 22 l 47 21 q 66 218 66 69 l 66 236 l 81 1064 q 102 1095 97 1095 m 281 608 l 290 608 l 319 581 l 319 553 q -85 488 67 525 l -123 515 l -123 562 l 281 608 z "},"Ń":{"ha":644,"x_min":36,"x_max":599,"o":"m 510 1193 q 555 1100 555 1193 l 538 1043 l 543 890 l 590 168 l 581 131 l 599 18 q 561 -29 581 -25 l 533 -29 q 421 253 498 -29 q 149 908 192 889 q 111 590 123 908 l 121 458 l 111 374 l 131 83 l 103 46 l 93 46 q 36 74 43 46 l 56 346 l 46 355 l 56 403 l 56 796 q 93 965 56 908 l 93 983 l 56 1031 l 56 1059 q 111 1096 74 1096 q 271 796 153 1096 q 440 318 328 686 l 515 168 l 524 168 l 524 271 l 472 978 l 481 1108 l 472 1156 q 510 1193 479 1183 m 229 1100 l 185 1141 q 395 1316 379 1309 l 429 1281 l 229 1100 z "},"ń":{"ha":432,"x_min":25,"x_max":400,"o":"m 250 823 l 258 823 q 390 403 370 823 l 390 233 l 400 131 l 390 93 l 400 8 l 371 -9 q 325 56 325 3 l 325 366 q 258 721 325 693 l 250 721 q 127 309 150 669 l 127 46 l 138 8 q 100 -47 118 -47 q 43 -9 53 -47 l 53 243 l 25 665 l 25 721 l 62 758 q 100 730 100 745 l 90 590 l 100 581 l 118 581 q 250 823 118 718 m 138 935 l 94 975 q 303 1150 288 1143 l 338 1116 l 138 935 z "},"Ņ":{"ha":644,"x_min":36,"x_max":599,"o":"m 510 1193 q 555 1100 555 1193 l 538 1043 l 543 890 l 590 168 l 581 131 l 599 18 q 561 -29 581 -25 l 533 -29 q 421 253 498 -29 q 149 908 192 889 q 111 590 123 908 l 121 458 l 111 374 l 131 83 l 103 46 l 93 46 q 36 74 43 46 l 56 346 l 46 355 l 56 403 l 56 796 q 93 965 56 908 l 93 983 l 56 1031 l 56 1059 q 111 1096 74 1096 q 271 796 153 1096 q 440 318 328 686 l 515 168 l 524 168 l 524 271 l 472 978 l 481 1108 l 472 1156 q 510 1193 479 1183 m 322 -74 q 264 -338 410 -204 l 256 -338 q 236 -310 236 -338 q 289 -94 351 -155 l 322 -74 z "},"ņ":{"ha":432,"x_min":25,"x_max":400,"o":"m 250 823 l 258 823 q 390 403 370 823 l 390 233 l 400 131 l 390 93 l 400 8 l 371 -9 q 325 56 325 3 l 325 366 q 258 721 325 693 l 250 721 q 127 309 150 669 l 127 46 l 138 8 q 100 -47 118 -47 q 43 -9 53 -47 l 53 243 l 25 665 l 25 721 l 62 758 q 100 730 100 745 l 90 590 l 100 581 l 118 581 q 250 823 118 718 m 215 -74 q 157 -338 302 -204 l 149 -338 q 129 -310 129 -338 q 182 -94 244 -155 l 215 -74 z "},"Ň":{"ha":644,"x_min":36,"x_max":599,"o":"m 510 1193 q 555 1100 555 1193 l 538 1043 l 543 890 l 590 168 l 581 131 l 599 18 q 561 -29 581 -25 l 533 -29 q 421 253 498 -29 q 149 908 192 889 q 111 590 123 908 l 121 458 l 111 374 l 131 83 l 103 46 l 93 46 q 36 74 43 46 l 56 346 l 46 355 l 56 403 l 56 796 q 93 965 56 908 l 93 983 l 56 1031 l 56 1059 q 111 1096 74 1096 q 271 796 153 1096 q 440 318 328 686 l 515 168 l 524 168 l 524 271 l 472 978 l 481 1108 l 472 1156 q 510 1193 479 1183 m 275 1079 q 138 1233 241 1079 l 138 1274 l 148 1274 l 185 1249 q 275 1177 273 1187 l 287 1177 q 345 1218 307 1182 q 450 1305 357 1305 l 438 1275 q 295 1079 334 1079 l 275 1079 z "},"ň":{"ha":432,"x_min":25,"x_max":400,"o":"m 250 823 l 258 823 q 390 403 370 823 l 390 233 l 400 131 l 390 93 l 400 8 l 371 -9 q 325 56 325 3 l 325 366 q 258 721 325 693 l 250 721 q 127 309 150 669 l 127 46 l 138 8 q 100 -47 118 -47 q 43 -9 53 -47 l 53 243 l 25 665 l 25 721 l 62 758 q 100 730 100 745 l 90 590 l 100 581 l 118 581 q 250 823 118 718 m 205 873 q 67 1027 170 873 l 67 1067 l 77 1067 l 115 1042 q 205 971 202 981 l 216 971 q 275 1012 237 976 q 380 1099 287 1099 l 368 1069 q 224 873 263 873 l 205 873 z "},"ŉ":{"ha":432,"x_min":10,"x_max":385,"o":"m 235 858 l 243 858 q 375 437 355 858 l 375 268 l 385 165 l 375 127 l 385 43 l 356 25 q 310 90 310 37 l 310 400 q 243 755 310 728 l 235 755 q 113 343 135 704 l 113 81 l 123 43 q 85 -13 103 -13 q 28 25 38 -13 l 38 277 l 10 700 l 10 755 l 47 793 q 85 765 85 779 l 75 625 l 85 615 l 103 615 q 235 858 103 753 m 131 1172 q 73 908 218 1042 l 64 908 q 45 936 45 908 q 98 1152 160 1090 l 131 1172 z "},"Ō":{"ha":549,"x_min":29,"x_max":517,"o":"m 254 1050 l 264 1050 q 339 965 315 1050 q 517 478 517 827 q 329 8 517 126 l 235 0 q 29 309 81 0 l 29 421 q 170 946 94 946 q 254 1050 170 975 m 77 403 l 85 393 l 85 383 l 77 355 q 244 56 104 56 q 460 496 460 56 l 460 533 q 264 937 411 937 q 77 403 140 937 m 375 1222 l 403 1226 l 404 1156 q 92 1169 278 1179 l 96 1233 l 375 1222 z "},"ō":{"ha":375,"x_min":31,"x_max":351,"o":"m 229 732 q 351 481 317 732 l 342 469 l 342 414 q 192 -18 318 -18 l 182 -26 l 172 -26 q 32 330 32 5 q 229 732 32 732 m 89 376 q 172 49 110 49 l 182 49 q 285 386 261 49 l 285 518 q 201 657 285 644 q 89 376 89 624 m 315 921 l 342 925 l 344 854 q 31 868 218 878 l 36 932 l 315 921 z "},"Ŏ":{"ha":549,"x_min":29,"x_max":517,"o":"m 254 1050 l 264 1050 q 339 965 315 1050 q 517 478 517 827 q 329 8 517 126 l 235 0 q 29 309 81 0 l 29 421 q 170 946 94 946 q 254 1050 170 975 m 77 403 l 85 393 l 85 383 l 77 355 q 244 56 104 56 q 460 496 460 56 l 460 533 q 264 937 411 937 q 77 403 140 937 m 102 1265 l 129 1295 q 253 1172 214 1174 q 394 1313 293 1170 l 436 1305 q 102 1265 273 939 z "},"ŏ":{"ha":375,"x_min":32,"x_max":385,"o":"m 229 732 q 351 481 317 732 l 342 469 l 342 414 q 192 -18 318 -18 l 182 -26 l 172 -26 q 32 330 32 5 q 229 732 32 732 m 89 376 q 172 49 110 49 l 182 49 q 285 386 261 49 l 285 518 q 201 657 285 644 q 89 376 89 624 m 52 935 l 78 964 q 202 842 163 844 q 343 983 242 840 l 385 975 q 52 935 222 609 z "},"Ő":{"ha":549,"x_min":29,"x_max":517,"o":"m 254 1050 l 264 1050 q 339 965 315 1050 q 517 478 517 827 q 329 8 517 126 l 235 0 q 29 309 81 0 l 29 421 q 170 946 94 946 q 254 1050 170 975 m 77 403 l 85 393 l 85 383 l 77 355 q 244 56 104 56 q 460 496 460 56 l 460 533 q 264 937 411 937 q 77 403 140 937 m 142 1136 l 102 1200 q 243 1397 240 1376 l 290 1347 l 142 1136 m 283 1109 l 243 1172 q 385 1372 380 1348 l 431 1322 l 283 1109 z "},"ő":{"ha":375,"x_min":5,"x_max":351,"o":"m 229 732 q 351 481 317 732 l 342 469 l 342 414 q 192 -18 318 -18 l 182 -26 l 172 -26 q 32 330 32 5 q 229 732 32 732 m 89 376 q 172 49 110 49 l 182 49 q 285 386 261 49 l 285 518 q 201 657 285 644 q 89 376 89 624 m 44 869 l 5 933 q 145 1131 142 1109 l 193 1080 l 44 869 m 185 843 l 145 905 q 287 1105 283 1082 l 333 1055 l 185 843 z "},"Œ":{"ha":914,"x_min":29,"x_max":862,"o":"m 254 1050 l 264 1050 q 339 965 315 1050 q 517 478 517 827 q 329 8 517 126 l 235 0 q 29 309 81 0 l 29 421 q 170 946 94 946 q 254 1050 170 975 m 77 403 l 85 393 l 85 383 l 77 355 q 244 56 104 56 q 460 496 460 56 l 460 533 q 264 937 411 937 q 77 403 140 937 m 733 1128 q 781 1099 781 1116 l 781 1072 q 564 1002 781 1042 l 557 674 l 557 627 q 583 608 557 608 l 762 627 l 770 617 l 770 608 q 557 532 770 570 l 519 120 l 519 102 q 594 -1 519 -1 l 846 102 l 862 45 q 565 -76 875 31 q 444 112 473 -76 l 490 515 l 463 562 q 500 674 500 633 l 490 911 q 471 1005 490 1005 q 733 1128 471 1080 z "},"œ":{"ha":743,"x_min":32,"x_max":689,"o":"m 229 732 q 351 481 317 732 l 342 469 l 342 414 q 192 -18 318 -18 l 182 -26 l 172 -26 q 32 330 32 5 q 229 732 32 732 m 89 376 q 172 49 110 49 l 182 49 q 285 386 261 49 l 285 518 q 201 657 285 644 q 89 376 89 624 m 510 772 q 660 622 660 728 l 660 594 q 472 304 660 385 l 408 304 l 408 284 q 492 50 408 116 l 521 50 q 671 199 574 50 l 679 191 l 689 191 q 501 -25 622 -25 q 322 359 391 -25 q 304 406 307 359 q 371 650 342 435 q 510 772 443 772 m 397 425 q 427 378 406 378 l 484 378 q 596 594 596 431 l 596 604 q 510 696 582 696 q 397 425 397 696 z "},"Ŕ":{"ha":469,"x_min":14,"x_max":473,"o":"m 323 1063 l 361 1063 q 444 930 444 1063 q 182 538 366 661 l 182 509 q 436 -54 354 -3 l 473 -62 l 473 -100 l 427 -138 q 239 208 368 -138 l 136 443 l 107 443 l 107 433 l 118 275 q 69 3 118 3 l 43 3 q 14 50 21 3 l 43 143 l 61 818 q 14 856 14 818 q 52 940 52 913 l 52 1015 l 81 1043 l 89 1043 l 155 1025 l 323 1063 m 126 921 l 118 668 l 118 603 l 136 583 l 155 583 q 370 921 370 772 l 370 968 l 332 1006 l 323 1006 q 126 921 218 1006 m 155 1099 l 111 1139 q 321 1314 305 1308 l 355 1280 l 155 1099 z "},"ŕ":{"ha":393,"x_min":21,"x_max":368,"o":"m 302 743 l 330 743 l 368 705 l 368 686 l 349 668 l 302 677 q 153 302 153 479 l 153 153 l 161 49 q 115 11 161 11 l 115 3 q 78 31 78 17 l 78 134 q 21 583 43 583 q 58 640 40 640 l 68 640 q 106 574 106 625 l 106 471 l 115 471 q 302 743 208 673 m 119 935 l 75 975 q 285 1150 269 1143 l 319 1116 l 119 935 z "},"Ŗ":{"ha":469,"x_min":14,"x_max":473,"o":"m 323 1063 l 361 1063 q 444 930 444 1063 q 182 538 366 661 l 182 509 q 436 -54 354 -3 l 473 -62 l 473 -100 l 427 -138 q 239 208 368 -138 l 136 443 l 107 443 l 107 433 l 118 275 q 69 3 118 3 l 43 3 q 14 50 21 3 l 43 143 l 61 818 q 14 856 14 818 q 52 940 52 913 l 52 1015 l 81 1043 l 89 1043 l 155 1025 l 323 1063 m 126 921 l 118 668 l 118 603 l 136 583 l 155 583 q 370 921 370 772 l 370 968 l 332 1006 l 323 1006 q 126 921 218 1006 m 235 -74 q 176 -338 322 -204 l 168 -338 q 149 -310 149 -338 q 201 -94 264 -155 l 235 -74 z "},"ŗ":{"ha":393,"x_min":21,"x_max":368,"o":"m 302 743 l 330 743 l 368 705 l 368 686 l 349 668 l 302 677 q 153 302 153 479 l 153 153 l 161 49 q 115 11 161 11 l 115 3 q 78 31 78 17 l 78 134 q 21 583 43 583 q 58 640 40 640 l 68 640 q 106 574 106 625 l 106 471 l 115 471 q 302 743 208 673 m 195 -74 q 137 -338 283 -204 l 129 -338 q 109 -310 109 -338 q 162 -94 224 -155 l 195 -74 z "},"Ř":{"ha":469,"x_min":14,"x_max":473,"o":"m 323 1063 l 361 1063 q 444 930 444 1063 q 182 538 366 661 l 182 509 q 436 -54 354 -3 l 473 -62 l 473 -100 l 427 -138 q 239 208 368 -138 l 136 443 l 107 443 l 107 433 l 118 275 q 69 3 118 3 l 43 3 q 14 50 21 3 l 43 143 l 61 818 q 14 856 14 818 q 52 940 52 913 l 52 1015 l 81 1043 l 89 1043 l 155 1025 l 323 1063 m 126 921 l 118 668 l 118 603 l 136 583 l 155 583 q 370 921 370 772 l 370 968 l 332 1006 l 323 1006 q 126 921 218 1006 m 245 1109 q 107 1263 210 1109 l 107 1304 l 117 1304 l 155 1279 q 245 1208 242 1218 l 256 1208 q 315 1249 277 1213 q 420 1336 327 1336 l 408 1305 q 264 1109 303 1109 l 245 1109 z "},"ř":{"ha":393,"x_min":21,"x_max":368,"o":"m 302 743 l 330 743 l 368 705 l 368 686 l 349 668 l 302 677 q 153 302 153 479 l 153 153 l 161 49 q 115 11 161 11 l 115 3 q 78 31 78 17 l 78 134 q 21 583 43 583 q 58 640 40 640 l 68 640 q 106 574 106 625 l 106 471 l 115 471 q 302 743 208 673 m 170 925 q 33 1079 136 925 l 33 1120 l 43 1120 l 80 1095 q 170 1023 168 1034 l 182 1023 q 240 1064 202 1028 q 345 1152 252 1152 l 333 1121 q 190 925 229 925 l 170 925 z "},"Ś":{"ha":549,"x_min":45,"x_max":510,"o":"m 397 1196 q 510 1131 431 1196 l 510 1093 l 492 1093 l 492 1083 q 370 1131 416 1131 l 322 1131 q 457 200 131 1023 l 467 154 q 252 -157 467 -33 l 184 -175 q 45 -33 45 -135 q 72 12 56 12 l 92 12 q 157 -109 122 -109 q 401 154 372 -109 l 401 200 q 332 1187 -3 1129 l 397 1196 m 201 1190 l 157 1231 q 367 1406 351 1399 l 401 1371 l 201 1190 z "},"ś":{"ha":361,"x_min":-41,"x_max":334,"o":"m 323 781 l 334 770 l 334 751 q 155 489 155 625 l 155 469 q 315 189 155 370 l 323 151 q 61 -26 256 -26 q -41 49 -41 -26 l 71 39 l 109 39 q 240 151 240 71 l 240 161 q 109 376 240 184 l 81 481 q 306 781 81 653 l 323 781 m 103 935 l 59 975 q 269 1150 253 1143 l 303 1116 l 103 935 z "},"Ŝ":{"ha":549,"x_min":45,"x_max":560,"o":"m 397 1196 q 510 1131 431 1196 l 510 1093 l 492 1093 l 492 1083 q 370 1131 416 1131 l 322 1131 q 457 200 131 1023 l 467 154 q 252 -157 467 -33 l 184 -175 q 45 -33 45 -135 q 72 12 56 12 l 92 12 q 157 -109 122 -109 q 401 154 372 -109 l 401 200 q 332 1187 -3 1129 l 397 1196 m 370 1463 l 388 1463 q 560 1200 427 1463 q 467 1264 479 1166 q 380 1350 400 1348 l 370 1350 q 241 1227 313 1292 l 203 1200 l 195 1200 l 195 1246 q 370 1463 334 1463 z "},"ŝ":{"ha":361,"x_min":-41,"x_max":344,"o":"m 323 781 l 334 770 l 334 751 q 155 489 155 625 l 155 469 q 315 189 155 370 l 323 151 q 61 -26 256 -26 q -41 49 -41 -26 l 71 39 l 109 39 q 240 151 240 71 l 240 161 q 109 376 240 184 l 81 481 q 306 781 81 653 l 323 781 m 153 1181 l 172 1181 q 344 918 210 1181 q 251 982 263 884 q 163 1068 184 1065 l 153 1068 q 24 945 96 1010 l -14 918 l -22 918 l -22 964 q 153 1181 117 1181 z "},"Ş":{"ha":549,"x_min":43,"x_max":510,"o":"m 397 1196 q 510 1131 431 1196 l 510 1093 l 492 1093 l 492 1083 q 370 1131 416 1131 l 322 1131 q 457 200 131 1023 l 467 154 q 252 -157 467 -33 l 184 -175 q 45 -33 45 -135 q 72 12 56 12 l 92 12 q 157 -109 122 -109 q 401 154 372 -109 l 401 200 q 332 1187 -3 1129 l 397 1196 m 239 -120 l 239 -140 q 399 -420 239 -241 l 409 -458 q 146 -637 341 -637 q 43 -562 43 -637 l 156 -570 l 193 -570 q 324 -458 324 -539 l 324 -449 q 193 -233 324 -425 l 164 -131 l 239 -120 z "},"ş":{"ha":361,"x_min":-41,"x_max":365,"o":"m 323 781 l 334 770 l 334 751 q 155 489 155 625 l 155 469 q 315 189 155 370 l 323 151 q 61 -26 256 -26 q -41 49 -41 -26 l 71 39 l 109 39 q 240 151 240 71 l 240 161 q 109 376 240 184 l 81 481 q 306 781 81 653 l 323 781 m 195 29 l 195 9 q 355 -271 195 -92 l 365 -309 q 102 -488 297 -488 q -1 -412 -1 -488 l 112 -421 l 149 -421 q 280 -309 280 -390 l 280 -300 q 149 -83 280 -275 l 120 18 l 195 29 z "},"Š":{"ha":549,"x_min":45,"x_max":510,"o":"m 397 1196 q 510 1131 431 1196 l 510 1093 l 492 1093 l 492 1083 q 370 1131 416 1131 l 322 1131 q 457 200 131 1023 l 467 154 q 252 -157 467 -33 l 184 -175 q 45 -33 45 -135 q 72 12 56 12 l 92 12 q 157 -109 122 -109 q 401 154 372 -109 l 401 200 q 332 1187 -3 1129 l 397 1196 m 319 1217 q 181 1371 284 1217 l 181 1411 l 191 1411 l 229 1386 q 319 1315 316 1325 l 330 1315 q 389 1356 351 1320 q 494 1443 401 1443 l 481 1413 q 338 1217 377 1217 l 319 1217 z "},"š":{"ha":361,"x_min":-41,"x_max":360,"o":"m 323 781 l 334 770 l 334 751 q 155 489 155 625 l 155 469 q 315 189 155 370 l 323 151 q 61 -26 256 -26 q -41 49 -41 -26 l 71 39 l 109 39 q 240 151 240 71 l 240 161 q 109 376 240 184 l 81 481 q 306 781 81 653 l 323 781 m 185 808 q 47 962 151 808 l 47 1002 l 58 1002 l 95 977 q 185 906 182 916 l 197 906 q 255 947 217 911 q 360 1034 267 1034 l 348 1004 q 205 808 243 808 l 185 808 z "},"Ţ":{"ha":485,"x_min":-4,"x_max":624,"o":"m 596 1093 l 624 1083 l 624 1055 q 586 1028 624 1028 l 586 1018 l 549 1028 q 323 981 336 1000 l 334 700 l 336 281 l 345 225 l 336 178 l 336 75 q 289 0 336 31 q 243 37 245 18 l 243 65 q 281 150 281 115 l 281 187 l 289 355 l 281 403 l 286 633 q 240 981 265 981 l 193 981 l 43 971 q -4 1000 -4 983 l -4 1028 l 24 1055 l 136 1038 q 286 1075 249 1046 l 343 1055 l 596 1093 m 241 -74 q 183 -338 329 -204 l 175 -338 q 155 -310 155 -338 q 208 -94 271 -155 l 241 -74 z "},"ţ":{"ha":267,"x_min":-35,"x_max":277,"o":"m 114 1118 l 135 1120 l 139 1053 l 139 1043 q 167 828 139 828 l 258 859 q 277 818 268 839 q 269 799 260 803 l 157 743 l 176 256 l 176 218 q 157 -3 174 81 l 113 0 l 110 146 l 110 378 l 110 481 q 82 724 110 724 l -4 717 l -35 729 l -32 751 l -16 755 l 3 755 q 92 818 92 768 l 72 1099 l 82 1107 l 114 1118 m 134 -74 q 75 -338 221 -204 l 67 -338 q 47 -310 47 -338 q 100 -94 163 -155 l 134 -74 z "},"Ť":{"ha":485,"x_min":-4,"x_max":624,"o":"m 596 1093 l 624 1083 l 624 1055 q 586 1028 624 1028 l 586 1018 l 549 1028 q 323 981 336 1000 l 334 700 l 336 281 l 345 225 l 336 178 l 336 75 q 289 0 336 31 q 243 37 245 18 l 243 65 q 281 150 281 115 l 281 187 l 289 355 l 281 403 l 286 633 q 240 981 265 981 l 193 981 l 43 971 q -4 1000 -4 983 l -4 1028 l 24 1055 l 136 1038 q 286 1075 249 1046 l 343 1055 l 596 1093 m 296 1111 q 159 1265 262 1111 l 159 1305 l 169 1305 l 206 1280 q 296 1209 294 1219 l 308 1209 q 366 1250 328 1214 q 471 1337 378 1337 l 459 1307 q 316 1111 355 1111 l 296 1111 z "},"ť":{"ha":510,"x_min":-35,"x_max":433,"o":"m 114 1118 l 135 1120 l 139 1053 l 139 1043 q 167 828 139 828 l 258 859 q 277 818 268 839 q 269 799 260 803 l 157 743 l 176 256 l 176 218 q 157 -3 174 81 l 113 0 l 110 146 l 110 378 l 110 481 q 82 724 110 724 l -4 717 l -35 729 l -32 751 l -16 755 l 3 755 q 92 818 92 768 l 72 1099 l 82 1107 l 114 1118 m 433 1051 q 346 798 365 818 l 338 798 l 317 827 q 338 901 317 865 q 397 1107 372 1107 q 433 1051 433 1089 z "},"Ũ":{"ha":501,"x_min":-50,"x_max":592,"o":"m 98 1104 l 126 1104 l 144 1084 l 144 1076 q 90 586 90 711 l 90 530 l 98 521 l 90 511 l 90 465 q 174 71 121 71 l 183 71 q 390 596 318 71 l 399 708 l 370 1047 l 399 1084 q 473 972 473 1084 l 465 718 q 174 -14 370 -14 q 33 653 33 -14 q 98 1104 56 1104 m 588 1238 q 334 1117 465 1079 l 259 1161 q 116 1314 132 1308 l 107 1317 q 6 1232 47 1332 l 2 1202 l -50 1207 q 119 1385 -23 1367 l 146 1369 q 336 1179 260 1202 l 351 1177 q 572 1267 453 1147 l 585 1263 l 592 1254 l 588 1238 z "},"ũ":{"ha":393,"x_min":-123,"x_max":519,"o":"m 353 693 l 371 673 l 353 599 l 353 570 l 361 494 q 203 -11 323 -11 q 24 468 79 -11 l 24 524 q 61 607 24 595 l 81 607 l 109 589 l 98 524 l 98 431 q 183 64 98 244 l 203 64 q 286 419 268 90 l 286 514 q 268 618 286 581 q 353 693 268 677 m 515 1039 q 260 918 391 880 l 186 962 q 43 1116 59 1109 l 34 1118 q -67 1034 -26 1133 l -71 1003 l -123 1008 q 45 1186 -96 1168 l 73 1171 q 263 981 187 1003 l 277 978 q 498 1068 380 949 l 512 1064 l 519 1055 l 515 1039 z "},"Ū":{"ha":501,"x_min":33,"x_max":473,"o":"m 98 1104 l 126 1104 l 144 1084 l 144 1076 q 90 586 90 711 l 90 530 l 98 521 l 90 511 l 90 465 q 174 71 121 71 l 183 71 q 390 596 318 71 l 399 708 l 370 1047 l 399 1084 q 473 972 473 1084 l 465 718 q 174 -14 370 -14 q 33 653 33 -14 q 98 1104 56 1104 m 371 1211 l 399 1215 l 400 1145 q 87 1158 274 1168 l 92 1222 l 371 1211 z "},"ū":{"ha":393,"x_min":24,"x_max":371,"o":"m 353 693 l 371 673 l 353 599 l 353 570 l 361 494 q 203 -11 323 -11 q 24 468 79 -11 l 24 524 q 61 607 24 595 l 81 607 l 109 589 l 98 524 l 98 431 q 183 64 98 244 l 203 64 q 286 419 268 90 l 286 514 q 268 618 286 581 q 353 693 268 677 m 324 921 l 352 925 l 353 854 q 41 868 227 878 l 45 932 l 324 921 z "},"Ŭ":{"ha":501,"x_min":33,"x_max":473,"o":"m 98 1104 l 126 1104 l 144 1084 l 144 1076 q 90 586 90 711 l 90 530 l 98 521 l 90 511 l 90 465 q 174 71 121 71 l 183 71 q 390 596 318 71 l 399 708 l 370 1047 l 399 1084 q 473 972 473 1084 l 465 718 q 174 -14 370 -14 q 33 653 33 -14 q 98 1104 56 1104 m 119 1253 l 146 1282 q 270 1159 231 1161 q 411 1300 310 1157 l 453 1293 q 119 1253 290 926 z "},"ŭ":{"ha":393,"x_min":24,"x_max":371,"o":"m 353 693 l 371 673 l 353 599 l 353 570 l 361 494 q 203 -11 323 -11 q 24 468 79 -11 l 24 524 q 61 607 24 595 l 81 607 l 109 589 l 98 524 l 98 431 q 183 64 98 244 l 203 64 q 286 419 268 90 l 286 514 q 268 618 286 581 q 353 693 268 677 m 35 1069 l 62 1099 q 186 976 146 978 q 327 1117 226 974 l 369 1109 q 35 1069 206 743 z "},"Ů":{"ha":501,"x_min":33,"x_max":473,"o":"m 98 1104 l 126 1104 l 144 1084 l 144 1076 q 90 586 90 711 l 90 530 l 98 521 l 90 511 l 90 465 q 174 71 121 71 l 183 71 q 390 596 318 71 l 399 708 l 370 1047 l 399 1084 q 473 972 473 1084 l 465 718 q 174 -14 370 -14 q 33 653 33 -14 q 98 1104 56 1104 m 323 1374 q 441 1265 394 1374 q 292 1100 441 1124 l 286 1100 q 131 1211 155 1100 l 131 1224 q 279 1370 131 1349 q 323 1374 323 1370 m 176 1255 l 176 1235 q 256 1120 176 1146 l 270 1120 q 395 1249 377 1120 q 316 1343 395 1329 l 286 1349 q 176 1255 194 1341 z "},"ů":{"ha":393,"x_min":24,"x_max":371,"o":"m 353 693 l 371 673 l 353 599 l 353 570 l 361 494 q 203 -11 323 -11 q 24 468 79 -11 l 24 524 q 61 607 24 595 l 81 607 l 109 589 l 98 524 l 98 431 q 183 64 98 244 l 203 64 q 286 419 268 90 l 286 514 q 268 618 286 581 q 353 693 268 677 m 233 1181 q 351 1072 304 1181 q 202 907 351 930 l 195 907 q 41 1018 64 907 l 41 1031 q 189 1177 41 1156 q 233 1181 233 1177 m 85 1061 l 85 1042 q 166 926 85 953 l 180 926 q 305 1055 287 926 q 226 1150 305 1136 l 195 1156 q 85 1061 104 1147 z "},"Ű":{"ha":501,"x_min":33,"x_max":498,"o":"m 98 1104 l 126 1104 l 144 1084 l 144 1076 q 90 586 90 711 l 90 530 l 98 521 l 90 511 l 90 465 q 174 71 121 71 l 183 71 q 390 596 318 71 l 399 708 l 370 1047 l 399 1084 q 473 972 473 1084 l 465 718 q 174 -14 370 -14 q 33 653 33 -14 q 98 1104 56 1104 m 209 1118 l 170 1182 q 310 1379 307 1358 l 357 1329 l 209 1118 m 350 1092 l 310 1154 q 452 1354 448 1331 l 498 1304 l 350 1092 z "},"ű":{"ha":393,"x_min":13,"x_max":371,"o":"m 353 693 l 371 673 l 353 599 l 353 570 l 361 494 q 203 -11 323 -11 q 24 468 79 -11 l 24 524 q 61 607 24 595 l 81 607 l 109 589 l 98 524 l 98 431 q 183 64 98 244 l 203 64 q 286 419 268 90 l 286 514 q 268 618 286 581 q 353 693 268 677 m 52 869 l 13 933 q 153 1131 151 1109 l 201 1080 l 52 869 m 193 843 l 153 905 q 295 1105 291 1082 l 341 1055 l 193 843 z "},"Ų":{"ha":501,"x_min":33,"x_max":473,"o":"m 98 1104 l 126 1104 l 144 1084 l 144 1076 q 90 586 90 711 l 90 530 l 98 521 l 90 511 l 90 465 q 174 71 121 71 l 183 71 q 390 596 318 71 l 399 708 l 370 1047 l 399 1084 q 473 972 473 1084 l 465 718 q 174 -14 370 -14 q 33 653 33 -14 q 98 1104 56 1104 m 203 7 l 157 -107 q 205 -170 139 -205 q 271 -100 236 -170 l 314 -139 q 168 -244 254 -244 l 158 -244 q 93 -106 101 -237 q 153 50 93 -79 l 203 7 z "},"ų":{"ha":393,"x_min":24,"x_max":371,"o":"m 353 693 l 371 673 l 353 599 l 353 570 l 361 494 q 203 -11 323 -11 q 24 468 79 -11 l 24 524 q 61 607 24 595 l 81 607 l 109 589 l 98 524 l 98 431 q 183 64 98 244 l 203 64 q 286 419 268 90 l 286 514 q 268 618 286 581 q 353 693 268 677 m 260 7 l 214 -107 q 262 -170 196 -205 q 328 -100 293 -170 l 371 -139 q 225 -244 311 -244 l 215 -244 q 150 -106 158 -237 q 210 50 150 -79 l 260 7 z "},"Ŵ":{"ha":737,"x_min":49,"x_max":696,"o":"m 106 1152 q 143 1114 138 1141 q 106 646 106 800 l 106 355 l 115 225 l 106 196 q 134 93 113 93 q 349 721 228 231 l 349 787 l 330 815 q 386 880 354 880 q 453 815 440 880 l 443 750 q 566 168 484 168 q 631 505 615 168 l 631 665 q 603 1117 631 800 l 640 1182 q 677 1126 677 1173 l 696 543 q 566 65 661 65 q 396 608 454 65 q 273 271 371 593 q 115 -47 167 -43 l 96 -47 q 68 -9 72 -47 l 58 -9 l 49 431 l 49 543 q 97 1152 50 1152 l 106 1152 m 359 1389 l 378 1389 q 550 1126 416 1389 q 457 1190 469 1092 q 370 1276 390 1274 l 359 1276 q 231 1153 302 1218 l 193 1126 l 184 1126 l 184 1172 q 359 1389 323 1389 z "},"ŵ":{"ha":648,"x_min":26,"x_max":599,"o":"m 570 787 q 599 703 599 751 l 599 543 q 457 0 575 0 q 336 375 372 0 l 318 375 q 176 28 231 28 l 157 28 l 157 18 q 26 393 56 18 l 26 421 q 82 675 36 675 l 93 675 l 119 646 q 93 468 93 562 q 157 113 111 113 q 298 600 224 113 l 289 713 l 345 730 l 382 703 l 382 656 q 449 93 382 236 l 457 93 q 543 533 517 93 l 514 721 l 514 730 q 570 787 514 787 m 297 1181 l 315 1181 q 488 918 354 1181 q 395 982 407 884 q 307 1068 328 1065 l 297 1068 q 168 945 240 1010 l 130 918 l 122 918 l 122 964 q 297 1181 261 1181 z "},"Ŷ":{"ha":514,"x_min":36,"x_max":606,"o":"m 435 1152 l 472 1152 l 510 1114 q 421 514 464 1026 q 186 -49 349 -49 l 186 -58 q 36 45 56 -58 l 36 54 l 56 54 l 56 64 l 140 7 q 411 869 351 7 l 403 869 l 271 644 q 140 514 168 514 l 111 514 q 65 644 71 514 l 65 729 q 158 1179 71 1117 l 186 1169 l 186 1141 q 131 672 131 987 q 158 607 140 607 q 435 1152 326 764 m 415 1394 l 433 1394 q 606 1132 472 1394 q 513 1196 525 1097 q 425 1282 446 1279 l 415 1282 q 286 1158 358 1223 l 248 1132 l 240 1132 l 240 1177 q 415 1394 379 1394 z "},"ŷ":{"ha":465,"x_min":29,"x_max":422,"o":"m 355 693 l 385 693 l 422 656 q 404 553 404 618 l 404 486 l 393 243 l 404 233 l 404 224 l 393 131 q 329 -554 393 -554 l 292 -554 l 254 -507 q 310 -329 310 -464 q 338 393 338 -72 l 329 393 q 197 83 315 389 q 113 36 157 46 q 29 318 29 36 q 113 590 29 542 l 142 581 l 142 543 q 93 366 93 485 l 93 309 q 131 140 93 140 l 142 140 q 318 636 318 440 l 355 693 m 206 1181 l 224 1181 q 397 918 263 1181 q 304 982 316 884 q 216 1068 237 1065 l 206 1068 q 77 945 149 1010 l 39 918 l 31 918 l 31 964 q 206 1181 170 1181 z "},"Ÿ":{"ha":514,"x_min":36,"x_max":510,"o":"m 435 1152 l 472 1152 l 510 1114 q 421 514 464 1026 q 186 -49 349 -49 l 186 -58 q 36 45 56 -58 l 36 54 l 56 54 l 56 64 l 140 7 q 411 869 351 7 l 403 869 l 271 644 q 140 514 168 514 l 111 514 q 65 644 71 514 l 65 729 q 158 1179 71 1117 l 186 1169 l 186 1141 q 131 672 131 987 q 158 607 140 607 q 435 1152 326 764 m 218 1353 l 246 1353 l 287 1300 q 237 1235 287 1265 q 178 1300 196 1253 l 218 1353 m 430 1360 l 458 1360 l 498 1307 q 448 1242 498 1272 q 389 1307 408 1260 l 430 1360 z "},"Ź":{"ha":625,"x_min":26,"x_max":599,"o":"m 450 1203 l 478 1203 l 505 1175 l 505 1165 q 139 113 530 832 l 139 83 l 176 83 l 543 187 q 599 121 599 187 l 599 113 q 543 75 581 75 l 476 93 l 82 0 q 26 37 56 0 q 421 1118 382 636 l 393 1128 l 121 1034 q 75 1071 79 1053 l 75 1080 q 225 1118 75 1108 q 450 1203 225 1137 m 162 1133 l 118 1174 q 328 1349 312 1342 l 362 1314 l 162 1133 z "},"ź":{"ha":522,"x_min":25,"x_max":484,"o":"m 306 864 l 315 864 q 353 781 353 851 l 353 761 q 138 94 353 599 l 138 77 l 155 57 l 183 57 q 428 151 218 57 l 456 151 l 484 123 l 484 106 l 437 57 l 428 68 l 400 68 l 165 -26 q 33 39 33 -4 q 278 686 278 543 l 278 781 l 258 781 q 81 686 232 781 l 53 686 l 25 724 q 165 807 25 746 q 306 864 229 861 m 183 935 l 139 975 q 349 1150 333 1143 l 383 1116 l 183 935 z "},"Ż":{"ha":625,"x_min":26,"x_max":599,"o":"m 450 1203 l 478 1203 l 505 1175 l 505 1165 q 139 113 530 832 l 139 83 l 176 83 l 543 187 q 599 121 599 187 l 599 113 q 543 75 581 75 l 476 93 l 82 0 q 26 37 56 0 q 421 1118 382 636 l 393 1128 l 121 1034 q 75 1071 79 1053 l 75 1080 q 225 1118 75 1108 q 450 1203 225 1137 m 186 1304 q 250 1242 245 1279 l 250 1204 q 204 1154 232 1154 q 130 1229 149 1154 q 186 1304 130 1267 z "},"ż":{"ha":522,"x_min":25,"x_max":484,"o":"m 306 864 l 315 864 q 353 781 353 851 l 353 761 q 138 94 353 599 l 138 77 l 155 57 l 183 57 q 428 151 218 57 l 456 151 l 484 123 l 484 106 l 437 57 l 428 68 l 400 68 l 165 -26 q 33 39 33 -4 q 278 686 278 543 l 278 781 l 258 781 q 81 686 232 781 l 53 686 l 25 724 q 165 807 25 746 q 306 864 229 861 m 257 1099 q 321 1036 315 1074 l 321 999 q 275 949 302 949 q 200 1023 219 949 q 257 1099 200 1061 z "},"Ž":{"ha":625,"x_min":26,"x_max":599,"o":"m 450 1203 l 478 1203 l 505 1175 l 505 1165 q 139 113 530 832 l 139 83 l 176 83 l 543 187 q 599 121 599 187 l 599 113 q 543 75 581 75 l 476 93 l 82 0 q 26 37 56 0 q 421 1118 382 636 l 393 1128 l 121 1034 q 75 1071 79 1053 l 75 1080 q 225 1118 75 1108 q 450 1203 225 1137 m 269 1200 q 131 1354 234 1200 l 131 1395 l 141 1395 l 178 1370 q 269 1299 266 1309 l 280 1299 q 338 1339 300 1303 q 444 1427 351 1427 l 431 1396 q 288 1200 327 1200 l 269 1200 z "},"ž":{"ha":522,"x_min":25,"x_max":484,"o":"m 306 864 l 315 864 q 353 781 353 851 l 353 761 q 138 94 353 599 l 138 77 l 155 57 l 183 57 q 428 151 218 57 l 456 151 l 484 123 l 484 106 l 437 57 l 428 68 l 400 68 l 165 -26 q 33 39 33 -4 q 278 686 278 543 l 278 781 l 258 781 q 81 686 232 781 l 53 686 l 25 724 q 165 807 25 746 q 306 864 229 861 m 213 894 q 75 1048 178 894 l 75 1088 l 85 1088 l 123 1063 q 213 992 210 1002 l 224 992 q 283 1033 245 997 q 388 1120 295 1120 l 376 1090 q 233 894 271 894 l 213 894 z "},"ƒ":{"ha":355,"x_min":-65,"x_max":522,"o":"m 372 1043 q 522 1006 522 1038 l 522 987 l 513 978 l 485 968 l 485 958 l 475 968 l 363 968 q 184 696 212 968 l 184 518 l 193 518 q 400 583 294 534 l 410 575 l 410 555 q 184 453 400 513 l 170 -262 l -65 -275 q 113 -195 -103 -200 l 129 415 l 118 443 l 100 443 q -40 481 -16 443 q -3 538 -21 538 l 17 538 l 92 518 l 100 518 q 118 659 121 518 q 372 1043 154 1043 z "},"Ǽ":{"ha":888,"x_min":14,"x_max":823,"o":"m 367 1153 q 472 220 468 1150 l 501 -81 l 454 -89 l 435 -89 l 407 -61 l 407 286 l 397 427 l 389 427 q 143 332 164 399 q 89 -14 107 -9 l 52 -14 l 14 24 q 164 811 60 380 q 367 1153 236 1166 m 174 492 l 220 456 q 407 519 407 497 l 407 689 l 416 811 l 393 905 q 338 1018 367 1018 q 174 492 278 1018 m 694 1186 q 742 1157 742 1173 l 742 1129 q 525 1059 742 1100 l 518 732 l 518 684 q 545 665 518 665 l 724 684 l 732 675 l 732 665 q 518 590 732 628 l 481 178 l 481 159 q 555 57 481 57 l 807 159 l 823 102 q 526 -18 836 89 q 406 170 435 -18 l 452 572 l 424 619 q 461 732 461 690 l 452 969 q 432 1063 452 1063 q 694 1186 432 1137 m 453 1165 l 409 1206 q 618 1381 603 1374 l 653 1346 l 453 1165 z "},"ǽ":{"ha":737,"x_min":52,"x_max":689,"o":"m 285 739 l 314 739 l 342 720 l 332 581 q 416 82 358 82 l 435 82 l 435 74 q 397 7 435 22 l 359 7 q 294 214 322 7 l 285 214 q 117 -106 231 -106 q 52 93 52 -106 l 52 195 q 210 682 52 627 q 285 739 236 682 m 117 224 l 117 93 q 144 -11 117 -11 q 267 476 205 -11 l 267 486 q 239 618 260 618 l 210 618 q 117 224 117 618 m 510 789 q 660 639 660 745 l 660 611 q 472 321 660 401 l 408 321 l 408 301 q 492 66 408 133 l 521 66 q 671 216 574 66 l 679 208 l 689 208 q 501 -8 622 -8 q 322 376 391 -8 q 304 423 307 376 q 371 667 342 452 q 510 789 443 789 m 397 441 q 427 395 406 395 l 484 395 q 596 611 596 448 l 596 621 q 510 713 582 713 q 397 441 397 713 m 290 935 l 246 975 q 456 1150 440 1143 l 490 1116 l 290 935 z "},"Ǿ":{"ha":549,"x_min":29,"x_max":517,"o":"m 254 1050 l 264 1050 q 339 965 315 1050 q 517 478 517 827 q 329 8 517 126 l 235 0 q 29 309 81 0 l 29 421 q 170 946 94 946 q 254 1050 170 975 m 77 403 l 85 393 l 85 383 l 77 355 q 244 56 104 56 q 460 496 460 56 l 460 533 q 264 937 411 937 q 77 403 140 937 m 414 1007 l 433 1007 l 433 989 q 208 107 339 469 q 189 22 189 107 l 163 4 l 114 14 l 114 52 q 368 914 250 323 q 414 1007 368 979 m 140 1201 l 96 1242 q 306 1417 290 1410 l 340 1382 l 140 1201 z "},"ǿ":{"ha":375,"x_min":3,"x_max":351,"o":"m 229 732 q 351 481 317 732 l 342 469 l 342 414 q 192 -18 318 -18 l 182 -26 l 172 -26 q 32 330 32 5 q 229 732 32 732 m 89 376 q 172 49 110 49 l 182 49 q 285 386 261 49 l 285 518 q 201 657 285 644 q 89 376 89 624 m 303 848 l 323 848 l 323 829 q 98 -52 229 310 q 78 -137 78 -52 l 52 -155 l 3 -146 l 3 -108 q 258 755 140 164 q 303 848 258 820 m 111 935 l 66 975 q 276 1150 260 1143 l 311 1116 l 111 935 z "},"Ș":{"ha":549,"x_min":45,"x_max":510,"o":"m 397 1196 q 510 1131 431 1196 l 510 1093 l 492 1093 l 492 1083 q 370 1131 416 1131 l 322 1131 q 457 200 131 1023 l 467 154 q 252 -157 467 -33 l 184 -175 q 45 -33 45 -135 q 72 12 56 12 l 92 12 q 157 -109 122 -109 q 401 154 372 -109 l 401 200 q 332 1187 -3 1129 l 397 1196 m 334 -264 q 276 -528 422 -394 l 268 -528 q 248 -500 248 -528 q 301 -284 363 -345 l 334 -264 z "},"ș":{"ha":361,"x_min":-41,"x_max":334,"o":"m 323 781 l 334 770 l 334 751 q 155 489 155 625 l 155 469 q 315 189 155 370 l 323 151 q 61 -26 256 -26 q -41 49 -41 -26 l 71 39 l 109 39 q 240 151 240 71 l 240 161 q 109 376 240 184 l 81 481 q 306 781 81 653 l 323 781 m 179 -74 q 121 -338 267 -204 l 113 -338 q 93 -310 93 -338 q 146 -94 208 -155 l 179 -74 z "},"ˆ":{"ha":665,"x_min":92,"x_max":457,"o":"m 267 1181 l 285 1181 q 457 918 323 1181 q 364 982 376 884 q 277 1068 297 1065 l 267 1068 q 138 945 210 1010 l 100 918 l 92 918 l 92 964 q 267 1181 231 1181 z "},"ˇ":{"ha":1067,"x_min":332,"x_max":644,"o":"m 469 925 q 332 1079 435 925 l 332 1120 l 342 1120 l 379 1095 q 469 1023 467 1034 l 481 1023 q 539 1064 501 1028 q 644 1152 551 1152 l 632 1121 q 489 925 528 925 l 469 925 z "},"˘":{"ha":472,"x_min":66,"x_max":400,"o":"m 66 1069 l 93 1099 q 217 976 178 978 q 358 1117 257 974 l 400 1109 q 66 1069 237 743 z "},"˙":{"ha":199,"x_min":24,"x_max":144,"o":"m 81 1099 q 144 1036 139 1074 l 144 999 q 98 949 126 949 q 24 1023 43 949 q 81 1099 24 1061 z "},"˚":{"ha":1067,"x_min":332,"x_max":642,"o":"m 524 1181 q 642 1072 595 1181 q 493 907 642 930 l 486 907 q 332 1018 355 907 l 332 1031 q 479 1177 332 1156 q 524 1181 524 1177 m 376 1061 l 376 1042 q 457 926 376 953 l 471 926 q 596 1055 578 926 q 517 1150 596 1136 l 486 1156 q 376 1061 395 1147 z "},"˛":{"ha":278,"x_min":35,"x_max":256,"o":"m 144 7 l 98 -107 q 147 -170 81 -205 q 212 -100 178 -170 l 256 -139 q 110 -244 196 -244 l 100 -244 q 35 -106 43 -237 q 94 50 35 -79 l 144 7 z "},"˜":{"ha":848,"x_min":89,"x_max":730,"o":"m 726 1039 q 472 918 603 880 l 397 962 q 254 1116 271 1109 l 245 1118 q 144 1034 186 1133 l 140 1003 l 89 1008 q 257 1186 115 1168 l 285 1171 q 475 981 399 1003 l 489 978 q 710 1068 591 949 l 724 1064 l 730 1055 l 726 1039 z "},"˝":{"ha":517,"x_min":65,"x_max":393,"o":"m 104 869 l 65 933 q 205 1131 203 1109 l 253 1080 l 104 869 m 245 843 l 205 905 q 347 1105 343 1082 l 393 1055 l 245 843 z "},"Ẁ":{"ha":737,"x_min":49,"x_max":696,"o":"m 106 1152 q 143 1114 138 1141 q 106 646 106 800 l 106 355 l 115 225 l 106 196 q 134 93 113 93 q 349 721 228 231 l 349 787 l 330 815 q 386 880 354 880 q 453 815 440 880 l 443 750 q 566 168 484 168 q 631 505 615 168 l 631 665 q 603 1117 631 800 l 640 1182 q 677 1126 677 1173 l 696 543 q 566 65 661 65 q 396 608 454 65 q 273 271 371 593 q 115 -47 167 -43 l 96 -47 q 68 -9 72 -47 l 58 -9 l 49 431 l 49 543 q 97 1152 50 1152 l 106 1152 m 183 1311 q 522 1197 231 1344 l 447 1137 l 167 1258 l 183 1311 z "},"ẁ":{"ha":648,"x_min":26,"x_max":599,"o":"m 570 787 q 599 703 599 751 l 599 543 q 457 0 575 0 q 336 375 372 0 l 318 375 q 176 28 231 28 l 157 28 l 157 18 q 26 393 56 18 l 26 421 q 82 675 36 675 l 93 675 l 119 646 q 93 468 93 562 q 157 113 111 113 q 298 600 224 113 l 289 713 l 345 730 l 382 703 l 382 656 q 449 93 382 236 l 457 93 q 543 533 517 93 l 514 721 l 514 730 q 570 787 514 787 m 162 1008 q 501 895 210 1042 l 426 835 l 146 956 l 162 1008 z "},"Ẃ":{"ha":737,"x_min":49,"x_max":696,"o":"m 106 1152 q 143 1114 138 1141 q 106 646 106 800 l 106 355 l 115 225 l 106 196 q 134 93 113 93 q 349 721 228 231 l 349 787 l 330 815 q 386 880 354 880 q 453 815 440 880 l 443 750 q 566 168 484 168 q 631 505 615 168 l 631 665 q 603 1117 631 800 l 640 1182 q 677 1126 677 1173 l 696 543 q 566 65 661 65 q 396 608 454 65 q 273 271 371 593 q 115 -47 167 -43 l 96 -47 q 68 -9 72 -47 l 58 -9 l 49 431 l 49 543 q 97 1152 50 1152 l 106 1152 m 275 1145 l 231 1186 q 440 1361 425 1354 l 475 1326 l 275 1145 z "},"ẃ":{"ha":648,"x_min":26,"x_max":599,"o":"m 570 787 q 599 703 599 751 l 599 543 q 457 0 575 0 q 336 375 372 0 l 318 375 q 176 28 231 28 l 157 28 l 157 18 q 26 393 56 18 l 26 421 q 82 675 36 675 l 93 675 l 119 646 q 93 468 93 562 q 157 113 111 113 q 298 600 224 113 l 289 713 l 345 730 l 382 703 l 382 656 q 449 93 382 236 l 457 93 q 543 533 517 93 l 514 721 l 514 730 q 570 787 514 787 m 245 935 l 201 975 q 411 1150 395 1143 l 446 1116 l 245 935 z "},"Ẅ":{"ha":737,"x_min":49,"x_max":696,"o":"m 106 1152 q 143 1114 138 1141 q 106 646 106 800 l 106 355 l 115 225 l 106 196 q 134 93 113 93 q 349 721 228 231 l 349 787 l 330 815 q 386 880 354 880 q 453 815 440 880 l 443 750 q 566 168 484 168 q 631 505 615 168 l 631 665 q 603 1117 631 800 l 640 1182 q 677 1126 677 1173 l 696 543 q 566 65 661 65 q 396 608 454 65 q 273 271 371 593 q 115 -47 167 -43 l 96 -47 q 68 -9 72 -47 l 58 -9 l 49 431 l 49 543 q 97 1152 50 1152 l 106 1152 m 224 1228 l 252 1228 l 292 1175 q 242 1110 292 1141 q 184 1175 201 1128 l 224 1228 m 435 1235 l 463 1235 l 503 1182 q 453 1117 503 1147 q 395 1182 413 1135 l 435 1235 z "},"ẅ":{"ha":648,"x_min":26,"x_max":599,"o":"m 570 787 q 599 703 599 751 l 599 543 q 457 0 575 0 q 336 375 372 0 l 318 375 q 176 28 231 28 l 157 28 l 157 18 q 26 393 56 18 l 26 421 q 82 675 36 675 l 93 675 l 119 646 q 93 468 93 562 q 157 113 111 113 q 298 600 224 113 l 289 713 l 345 730 l 382 703 l 382 656 q 449 93 382 236 l 457 93 q 543 533 517 93 l 514 721 l 514 730 q 570 787 514 787 m 206 1122 l 234 1122 l 275 1069 q 224 1004 275 1035 q 166 1069 184 1022 l 206 1122 m 418 1129 l 446 1129 l 486 1076 q 435 1011 486 1042 q 377 1076 395 1029 l 418 1129 z "},"Ỳ":{"ha":514,"x_min":36,"x_max":510,"o":"m 435 1152 l 472 1152 l 510 1114 q 421 514 464 1026 q 186 -49 349 -49 l 186 -58 q 36 45 56 -58 l 36 54 l 56 54 l 56 64 l 140 7 q 411 869 351 7 l 403 869 l 271 644 q 140 514 168 514 l 111 514 q 65 644 71 514 l 65 729 q 158 1179 71 1117 l 186 1169 l 186 1141 q 131 672 131 987 q 158 607 140 607 q 435 1152 326 764 m 85 1305 q 425 1192 133 1339 l 349 1132 l 69 1253 l 85 1305 z "},"ỳ":{"ha":465,"x_min":29,"x_max":422,"o":"m 355 693 l 385 693 l 422 656 q 404 553 404 618 l 404 486 l 393 243 l 404 233 l 404 224 l 393 131 q 329 -554 393 -554 l 292 -554 l 254 -507 q 310 -329 310 -464 q 338 393 338 -72 l 329 393 q 197 83 315 389 q 113 36 157 46 q 29 318 29 36 q 113 590 29 542 l 142 581 l 142 543 q 93 366 93 485 l 93 309 q 131 140 93 140 l 142 140 q 318 636 318 440 l 355 693 m 73 1008 q 412 895 120 1042 l 336 835 l 56 956 l 73 1008 z "},"–":{"ha":419,"x_min":65,"x_max":378,"o":"m 347 551 l 375 555 l 378 484 q 65 497 250 507 l 68 562 l 347 551 z "},"—":{"ha":561,"x_min":61,"x_max":593,"o":"m 555 533 l 564 533 l 593 505 l 593 478 q 98 460 237 484 l 61 488 l 61 534 l 555 533 z "},"‘":{"ha":243,"x_min":50,"x_max":167,"o":"m 167 1051 q 79 798 98 818 l 72 798 l 50 827 q 72 901 50 865 q 131 1107 106 1107 q 167 1051 167 1089 z "},"’":{"ha":243,"x_min":50,"x_max":167,"o":"m 167 1051 q 79 798 98 818 l 72 798 l 50 827 q 72 901 50 865 q 131 1107 106 1107 q 167 1051 167 1089 z "},"‚":{"ha":243,"x_min":74,"x_max":191,"o":"m 191 151 q 103 -103 122 -82 l 96 -103 l 74 -74 q 96 1 74 -35 q 154 207 129 207 q 191 151 191 189 z "},"“":{"ha":454,"x_min":89,"x_max":343,"o":"m 118 1156 q 182 1118 168 1156 q 136 875 155 875 l 118 875 q 89 1071 89 875 l 89 1100 q 118 1156 94 1156 m 306 1100 q 343 1071 343 1086 q 286 818 294 971 l 277 808 l 268 808 q 231 921 231 808 q 306 1100 249 1100 z "},"”":{"ha":454,"x_min":89,"x_max":343,"o":"m 118 1156 q 182 1118 168 1156 q 136 875 155 875 l 118 875 q 89 1071 89 875 l 89 1100 q 118 1156 94 1156 m 306 1100 q 343 1071 343 1086 q 286 818 294 971 l 277 808 l 268 808 q 231 921 231 808 q 306 1100 249 1100 z "},"„":{"ha":454,"x_min":89,"x_max":342,"o":"m 117 254 q 182 216 168 254 q 135 -28 154 -28 l 117 -28 q 89 170 89 -28 l 89 197 q 117 254 93 254 m 304 197 q 342 170 342 183 q 285 -83 294 69 l 277 -93 l 267 -93 q 229 20 229 -93 q 304 197 248 197 z "},"†":{"ha":711,"x_min":154,"x_max":595,"o":"m 557 885 l 567 885 l 595 857 l 595 829 q 385 802 479 817 l 393 340 l 383 153 l 403 40 q 355 -17 403 22 l 309 21 q 328 218 328 69 l 328 236 l 329 793 q 192 764 252 779 l 154 791 l 154 839 l 329 859 l 330 1219 q 351 1251 347 1251 l 383 1258 l 386 1028 l 383 873 l 383 865 l 557 885 z "},"‡":{"ha":711,"x_min":134,"x_max":590,"o":"m 536 897 l 546 897 l 574 868 l 574 842 q 393 818 476 831 l 395 724 l 553 743 l 561 743 l 590 714 l 590 686 q 393 660 482 673 l 390 606 l 403 40 q 355 -17 403 22 l 309 21 q 334 650 328 68 q 186 619 252 636 l 149 648 l 149 694 l 334 717 l 332 807 q 171 775 241 793 l 134 804 l 134 850 l 332 873 l 330 1219 q 351 1251 347 1251 l 383 1258 l 386 1028 l 383 880 l 536 897 z "},"•":{"ha":281,"x_min":78,"x_max":244,"o":"m 134 472 q 244 390 221 488 q 153 297 215 283 q 78 397 96 322 q 134 472 78 435 z "},"…":{"ha":1067,"x_min":123,"x_max":943,"o":"m 164 118 l 193 118 l 232 65 q 182 0 232 31 q 123 65 143 18 l 164 118 m 518 118 l 549 118 l 589 65 q 539 0 589 31 q 479 65 497 18 l 518 118 m 875 118 l 904 118 l 943 65 q 893 0 943 31 q 835 65 854 18 l 875 118 z "},"‹":{"ha":557,"x_min":81,"x_max":473,"o":"m 436 708 q 473 671 473 700 q 231 465 473 654 l 221 418 l 473 250 l 473 221 l 446 193 q 221 334 419 193 q 98 363 195 353 l 81 400 q 174 475 81 446 q 436 708 228 555 z "},"›":{"ha":747,"x_min":53,"x_max":465,"o":"m 90 843 q 249 704 118 843 q 465 525 465 610 q 249 310 465 479 q 183 262 249 289 l 118 281 l 118 318 q 240 385 118 350 q 380 543 380 486 l 53 768 l 53 806 q 90 835 53 831 l 90 843 z "},"⁄":{"ha":484,"x_min":82,"x_max":401,"o":"m 382 1007 l 401 1007 l 401 989 q 176 107 307 469 q 157 22 157 107 l 131 4 l 82 14 l 82 52 q 336 914 218 323 q 382 1007 336 979 z "},"€":{"ha":770,"x_min":39,"x_max":711,"o":"m 656 1255 q 711 1218 711 1238 l 711 1200 q 627 1181 711 1181 q 340 911 399 1100 q 228 358 228 621 l 228 349 q 358 68 244 68 l 386 58 l 591 83 q 669 58 644 107 q 424 -17 693 8 q 171 218 265 -17 l 161 311 q 396 1156 161 717 q 656 1255 581 1255 m 441 743 l 452 743 l 479 715 l 479 688 q 77 621 228 659 l 39 650 l 39 696 l 441 743 m 457 589 l 467 589 l 494 559 l 494 532 q 92 467 243 504 l 54 494 l 54 542 l 457 589 z "},"™":{"ha":1153,"x_min":-1,"x_max":1118,"o":"m 996 1175 q 1053 1108 1053 1153 l 1118 134 l 1118 68 q 1090 12 1118 20 l 1071 12 l 1043 31 l 1053 171 l 1053 200 q 996 921 1053 606 l 986 921 q 865 302 930 745 l 808 275 q 743 518 755 275 q 611 856 640 831 q 603 854 607 854 l 611 715 l 611 546 q 555 -45 611 -45 l 528 -45 l 518 3 l 555 387 l 546 387 l 555 396 l 555 518 q 549 852 555 728 q 326 806 339 825 l 336 525 l 336 281 l 345 225 l 336 178 l 336 75 q 289 0 336 31 q 243 37 245 18 l 243 65 q 281 150 281 115 l 281 187 l 289 355 l 281 403 l 289 458 q 243 806 268 806 l 195 806 l 45 796 q -1 825 -1 808 l -1 852 l 26 880 l 139 863 q 289 900 252 871 l 345 880 l 545 909 q 528 1025 539 1000 q 566 1071 545 1068 l 593 1071 q 705 790 640 1068 q 808 471 753 701 l 836 471 l 958 1043 l 958 1071 l 949 1128 q 996 1165 949 1165 l 996 1175 z "},"−":{"ha":419,"x_min":65,"x_max":378,"o":"m 347 551 l 375 555 l 378 484 q 65 497 250 507 l 68 562 l 347 551 z "},"":{"ha":218,"x_min":69,"x_max":155,"o":"m 155 -74 q 97 -338 243 -204 l 89 -338 q 69 -310 69 -338 q 122 -94 184 -155 l 155 -74 z "},"ﬁ":{"ha":550,"x_min":-40,"x_max":533,"o":"m 372 1043 q 522 1006 522 1038 l 522 987 l 513 978 l 485 968 l 485 958 l 475 968 l 363 968 q 184 696 212 968 l 184 518 l 193 518 q 400 583 294 534 l 410 575 l 410 555 q 184 453 400 513 l 193 153 l 193 68 q 155 -17 193 -3 l 147 -17 l 118 21 l 138 115 l 129 415 l 118 443 l 100 443 q -40 481 -16 443 q -3 538 -21 538 l 17 538 l 92 518 l 100 518 q 118 659 121 518 q 372 1043 154 1043 m 467 875 q 533 838 503 875 q 467 772 533 810 q 420 818 441 772 q 467 875 439 869 m 467 631 l 496 593 q 458 387 458 555 q 513 41 463 210 l 513 22 l 486 -7 l 458 -7 q 391 435 414 -7 q 448 631 391 631 l 467 631 z "},"ﬂ":{"ha":553,"x_min":-40,"x_max":522,"o":"m 372 1043 q 522 1006 522 1038 l 522 987 l 513 978 l 485 968 l 485 958 l 475 968 l 363 968 q 184 696 212 968 l 184 518 l 193 518 q 400 583 294 534 l 410 575 l 410 555 q 184 453 400 513 l 193 153 l 193 68 q 155 -17 193 -3 l 147 -17 l 118 21 l 138 115 l 129 415 l 118 443 l 100 443 q -40 481 -16 443 q -3 538 -21 538 l 17 538 l 92 518 l 100 518 q 118 659 121 518 q 372 1043 154 1043 m 457 1095 l 489 1103 l 481 932 l 479 779 l 486 340 l 477 153 l 497 40 q 448 -17 497 22 l 403 21 q 422 218 422 69 l 422 236 l 436 1064 q 457 1095 452 1095 z "}}}
